<svg xmlns="http://www.w3.org/2000/svg" xmlns:xlink="http://www.w3.org/1999/xlink" t="1650527686533" class="icon" viewBox="0 0 1706 1024" version="1.1" p-id="8144" width="333.203125" height="200"><defs><style type="text/css"/></defs><path d="M1651.994 314.598a111.053 111.053 0 0 0-90.676-34.15 115.328 115.328 0 0 0-74.29 33.894c-12.929 12.877-28.468 28.519-28.468 28.519l-42.138-43.392-2.764 1.92L1376 339.942l-13.722 12.877L1376 367.59l28.365 29.492-28.467 28.518-13.773 13.722 13.721 13.875 37.504 38.758 2.765 1.792 42.24-43.161 28.39 28.518a115.2 115.2 0 0 0 74.215 34.202 111.411 111.411 0 0 0 90.829-33.92c22.963-22.042 33.997-52.352 34.048-81.818 0.051-30.438-10.931-60.8-33.843-82.97z m-54.247 110.388a39.757 39.757 0 0 1-36.685 11.008c-7.321-0.973-13.696-4.634-20.198-11.11-12.774-12.852-28.314-27.623-28.314-27.623s15.59-16.538 28.416-28.493c6.452-6.4 12.877-10.086 20.199-10.957 12.825-3.712 26.624 0.026 36.685 11.06 8.192 7.372 11.904 17.535 11.904 28.569a36.685 36.685 0 0 1-12.007 27.546z m-684.211 87.27c27.546-1.792 54.144-12.774 74.291-33.997 12.877-12.8 28.467-28.441 28.467-28.441l43.085 43.29 2.714-2.714 37.709-37.658 13.721-13.798-13.67-12.903-29.338-29.491 29.44-30.362 13.747-13.772-13.696-12.903-37.555-37.76-2.713-2.867-43.188 43.238s-15.564-15.667-28.339-28.595c-20.147-21.197-46.72-32.256-74.265-34.125a111.949 111.949 0 0 0-90.778 33.895c-22.989 22.016-34.1 52.377-34.125 82.765-0.051 29.465 10.931 59.852 33.869 81.92a112.23 112.23 0 0 0 90.624 34.278z m-36.454-144.589c10.112-10.112 23.833-14.694 36.659-10.957 7.347 0.922 14.72 4.634 20.147 11.034 12.826 12.006 28.416 28.595 28.416 28.595s-15.642 14.72-28.467 27.52a31.718 31.718 0 0 1-20.199 11.034 39.68 39.68 0 0 1-36.659-11.11 39.86 39.86 0 0 1-11.853-27.623c0.026-11.008 4.608-21.171 11.956-28.493z" fill="#D7000F" p-id="8145"/><path d="M1430.682 536.013c-1.792-1.792-8.244-8.243-17.434-17.51a1829.914 1829.914 0 0 1-37.504-38.682c-39.373-38.733-83.328-82.97-83.328-82.97s44.109-45.005 83.584-83.558a1620.48 1620.48 0 0 1 37.658-38.63 2642.618 2642.618 0 0 1 17.51-17.46c45.952-45.952 46.054-120.448 0.256-165.632-5.504-5.606-10.982-11.059-17.434-14.771a104.653 104.653 0 0 0-37.504-16.614c-38.579-9.293-79.795 0.768-109.26 31.155-18.356 17.459-28.493 28.493-28.493 28.493l-28.365-28.544a115.38 115.38 0 0 0-109.952-31.463 102.81 102.81 0 0 0-37.632 16.538 124.39 124.39 0 0 0-17.46 14.669c-45.951 45.004-46.054 119.526-0.255 165.632 1.792 1.868 8.192 8.268 17.382 17.51 10.112 10.138 23.757 23.987 37.555 37.786l84.148 84.787s-44.98 44.083-84.404 83.635a6586.813 6586.813 0 0 0-37.708 37.683c-9.165 9.165-15.642 15.565-17.46 17.383-45.952 46.003-46.105 120.524-0.256 165.708 5.504 5.556 10.983 10.138 17.383 14.772 11.955 8.217 24.73 13.85 37.606 16.537a115.456 115.456 0 0 0 110.055-31.104c17.51-17.433 28.467-28.441 28.467-28.441s10.112 11.059 28.39 28.492c29.312 30.464 70.528 40.653 109.159 31.488a102.989 102.989 0 0 0 37.53-16.512c6.476-3.635 12.031-9.216 17.51-14.694 45.952-45.005 46.054-119.526 0.256-165.683z m-330.47-332.698l-1.025-0.947c-15.539-16.538-15.488-41.42 0.103-57.011 0-0.947 0.972-0.947 0.972-1.869 16.538-13.747 41.268-13.696 55.91 1.946l28.366 28.544-43.162 42.265 53.99 54.375 43.162-42.317 43.085 42.496 54.144-54.221-43.034-42.42s12.877-13.798 28.467-28.466c14.695-15.616 39.476-15.565 55.066-1.767l1.792 1.869c15.514 15.642 15.462 40.525-0.128 57.011-0.922 0-1.766 0.973-1.766 1.895-21.99 21.99-138.676 137.779-138.676 137.779s-115.353-117.018-137.267-139.162z m277.094 443.955c-0.922 0.922-1.792 0.922-1.792 1.818-15.642 13.773-40.423 13.722-55.066-1.92-15.54-14.72-28.416-28.57-28.416-28.57l43.238-43.187-54.067-54.374-43.187 43.213-43.034-43.367-54.144 54.247 42.983 43.264s-13.696 13.85-28.416 28.492c-14.695 15.59-39.475 15.54-55.962 1.716 0-0.896-0.973-0.896-0.973-1.844a40.704 40.704 0 0 1 0.103-57.062l0.973-0.82L1237.299 450.1s116.327 116.173 138.266 138.24c0 0.947 0.921 1.818 1.792 1.818 15.59 15.77 15.59 41.651-0.051 57.113z" fill="#D7000F" p-id="8146"/><path d="M626.278 658.048c-10.982-11.034-22.886-17.46-35.737-18.483-2.765-0.768-4.583-0.768-6.4-0.768-18.355-0.026-33.997 6.272-45.901 19.149-11.93 12.902-18.355 29.388-18.38 48.742-0.026 19.251 6.297 35.866 18.2 48.794 12.852 12.825 27.47 19.328 46.746 19.353h5.504c12.826-1.766 24.756-7.245 35.79-17.459l-0.026 13.85 31.155 0.05 0.205-128.895-31.207-0.051v15.718z m-9.267 78.208c-6.425 8.32-15.616 11.955-26.624 11.93h-0.947c-10.982 0-20.173-3.661-27.469-11.981-6.425-7.322-10.06-17.46-10.035-29.44 0-11.955 3.635-21.223 11.034-29.389 6.425-7.347 15.616-11.034 26.624-11.034h0.921c11.008 0.026 20.173 3.738 26.624 11.11 7.322 7.322 10.957 17.486 10.957 29.44-0.077 11.93-3.738 22.094-11.085 29.364z m-353.843-96.205c-24.755-0.051-36.685 16.487-36.685 16.487l0.103-72.628-33.024-0.05-0.282 187.647 32.998 0.051 0.103-79.155c0.025-16.589 9.216-30.387 27.597-30.361 19.225 0.025 24.704 17.612 24.678 30.412l-0.102 79.156 29.337 0.025 0.103-76.313c0.102-39.578-20.967-55.245-44.826-55.27z m-153.114-8.525a46.413 46.413 0 0 1 35.738 15.693c2.74 4.66 6.4 8.269 7.322 13.747l28.441-20.198a88.371 88.371 0 0 0-27.469-24.806c-13.747-7.45-28.39-12.032-43.11-12.058-21.99-0.051-40.346 7.245-56.909 21.94-19.225 17.458-28.441 38.604-28.467 63.513-0.026 23.91 8.192 44.211 24.627 60.8 16.487 16.537 36.66 24.883 60.519 24.934 15.59 0 30.259-3.712 43.11-11.033 11.955-6.4 20.198-14.746 27.546-24.781a845.005 845.005 0 0 1-28.39-20.275c-0.948 4.659-4.583 9.241-7.348 12.928-10.138 11.904-22.042 16.486-35.814 16.46-14.695-0.025-25.703-4.633-34.79-15.692-10.113-11.085-14.67-25.78-14.618-43.264 0.025-16.512 4.582-30.336 14.745-41.344a43.546 43.546 0 0 1 34.867-16.564z m311.68 61.261c0.026-16.614 10.138-30.413 28.468-30.387 19.25 0 24.73 17.562 24.704 30.438l-0.154 79.053 30.285 0.051 0.102-76.262c0.077-39.603-21.888-55.245-44.851-55.296-31.13-1.024-41.242 16.486-41.242 16.486l-1.817-14.745-27.546-0.051-0.23 129.766 32.153 0.051 0.128-79.104z" fill="#221814" p-id="8147"/><path d="M332.8 641.075h30.234v130.663H332.8z m15.693-47.82c-11.008-0.026-18.304 7.27-18.33 17.407a17.408 17.408 0 0 0 17.383 17.588h0.896c11.033 0.025 17.459-8.27 17.459-17.536 0.025-10.138-6.375-17.434-17.408-17.46z m-0.282 191.41c-11.033-0.025-18.304 8.193-18.33 18.356 0 9.216 7.245 16.614 17.383 16.64h0.896c11.034 0.025 17.46-7.347 17.46-16.589 0.025-10.138-6.4-18.38-17.409-18.406z" fill="#D7000F" p-id="8148"/><path d="M807.552 833.178c-19.251-0.973-32.102 7.321-43.162 20.198-8.217-13.773-21.043-20.3-33.817-20.3-27.571-0.974-39.501 16.486-39.501 16.486l-0.87-15.616-29.338-0.052-0.205 129.792 32.973 0.026 0.128-78.208c0.026-17.562 8.294-30.387 25.754-30.336 17.433 0.077 21.939 16.563 21.939 30.413l-0.128 78.182 30.208 0.051 0.128-77.26v0.896c0.025-22.068 10.137-32.18 24.832-32.18 17.433 0.077 22.886 16.564 22.886 30.413l-0.128 78.208 29.363 0.103 0.103-76.39c0.102-38.708-19.149-54.375-41.165-54.426z" fill="#221814" p-id="8149"/><path d="M332.467 833.408h30.26V963.2h-30.26z" fill="#D7000F" p-id="8150"/><path d="M612.275 840.294a56.422 56.422 0 0 0-32.102-9.318h-2.765a62.208 62.208 0 0 0-43.98 17.46c-14.772 12.876-22.12 29.362-22.145 49.689-0.025 19.328 6.349 34.867 19.2 47.897 12.826 13.722 28.39 20.224 47.616 20.276 0.896 0 0.896 0 1.843-0.896a64.435 64.435 0 0 0 56.884-33.024c5.504-10.112 9.216-22.068 9.216-34.048 0-11.904-3.61-22.99-9.114-34.074-5.453-10.163-14.643-18.458-24.653-23.962z m-6.605 91.06c-6.4 8.268-15.616 11.93-25.676 12.85-11.034-0.025-19.226-4.633-25.677-12.902-7.347-8.32-10.061-19.353-10.035-33.152 0.025-12.85 2.764-23.91 10.137-32.256 7.347-8.217 15.59-12.876 25.677-12.876 11.008 0 19.277 4.71 26.598 12.979 6.426 8.32 10.087 19.405 10.061 32.256-0.025 13.875-3.737 24.857-11.085 33.1z m-342.81-99.892c-30.233-0.998-40.37 16.436-40.37 16.436l-1.818-14.72-27.52-0.052-0.205 129.767 32.103 0.102 0.102-78.233c0.026-17.485 9.242-31.284 27.571-31.258 19.226 0.026 24.755 17.485 24.73 31.309l-0.103 78.259 30.234 0.026 0.102-76.365c0.077-39.603-20.94-55.27-44.825-55.27zM134.35 911.334c-0.026 17.46-9.19 30.336-28.442 30.285-19.277-0.051-26.598-16.614-26.573-30.361l0.128-78.285-32.076-0.077-0.128 75.494c-0.052 40.448 25.6 55.296 48.537 56.218 31.155 0.051 41.267-17.485 41.267-17.485l1.818 15.693 27.494 0.051 0.205-129.766-32.102-0.051-0.128 78.284z m318.285-55.68c11.033 0.052 19.276 3.738 25.702 12.032 2.688 2.74 4.557 5.556 6.349 9.19l23.91-17.433a56.474 56.474 0 0 0-21.99-19.405c-10.061-6.45-21.965-9.216-33.92-9.216-17.408-0.05-32.077 5.504-45.875 17.357-14.72 13.799-22.042 30.413-22.068 50.663-0.025 18.432 6.4 33.996 20.096 47.82 12.826 12.928 29.338 19.456 47.668 19.482 11.904 0.026 23.808-2.714 34.867-9.242 8.243-4.505 15.59-10.982 21.12-19.225l-23.86-17.536c-1.766 3.686-3.635 7.424-6.4 10.137-6.425 8.218-15.59 11.93-25.676 11.904a29.798 29.798 0 0 1-24.781-11.98c-7.296-8.295-10.957-18.458-10.931-31.335 0-12.851 3.686-23.014 11.033-31.257 6.452-8.27 14.67-11.981 24.756-11.956z m977.612-33.408l20.096 27.623 16.564-11.93c-11.904-15.616-24.73-24.883-24.73-24.883l-11.93 9.19z m101.632 125.312l-22.963-0.025-35.737-0.051a10.189 10.189 0 0 1-10.061-10.164l0.102-80.05-34.816-0.078-0.051 15.642 11.955 0.051-0.102 70.887a19.149 19.149 0 0 0 18.304 19.276l50.38 0.077 22.964 0.026 22.937 0.077 36.66 0.05v-15.59l-36.66-0.05-22.912-0.078z" fill="#221814" p-id="8151"/><path d="M1585.152 827.98l0.051-18.38-30.259-0.026-22.886-0.05-22.964-0.026-33.945-0.052v15.59l33.894 0.026 22.963 0.026 22.938 0.051-22.938 13.85-2.816 1.766c-8.243-4.608-16.537-9.216-20.147-11.033-0.921 0-1.843-0.973-1.843-0.973l-7.322 11.085 7.322 7.398-31.18-0.128-0.154 92.98h6.45c7.322 0.025 14.67-4.609 14.67-13.722v-12.903l11.904 0.026 12.825 0.025-0.077 26.701h10.215c6.349-1.843 10.112-5.58 10.982-13.747v-12.902l11.955 0.025h12.75v6.426c0 2.739-3.585 4.608-6.4 4.608h-6.4l-3.713-0.026 3.712 13.824 0.922 1.843h14.643c10.982 0 19.251-8.217 19.302-18.432l0.103-61.619a12.544 12.544 0 0 0-12.826-12.877h-21.99l-2.714-0.05 2.714-1.793 30.259-17.51z m-63.36 70.836h-12.826l-11.904-0.051V887.73h11.904l12.826 0.051v11.034z m0-25.805l-12.774-0.025-11.956-0.026v-10.138h11.956l12.774 0.052v10.137z m45.85 25.856h-12.826l-11.904-0.051v-11.008h24.78l-0.05 11.06z m-12.724-35.942h12.826v10.137h-12.826l-11.955-0.025v-10.138l11.955 0.026z m-225.792 64.051v-17.434l-2.662 0.896-7.398 1.792 0.179-86.502c0-10.112-6.426-15.693-13.696-15.693l-18.381-0.051-36.71-0.102v15.692l36.659 0.103h9.19l-0.051 23.91h-9.14l-9.164-0.051v-16.563h-21.12l-0.154 96.614-9.113 2.74-0.051 17.433 39.424-10.931 9.164-2.714v31.309l9.242 0.026c6.349 0 11.904-3.712 13.67-11.956v-25.779l7.399-1.817 2.713-0.922z m-32.972-8.294l-9.165 2.688-9.165 2.739v-24.832l9.216 0.025h9.114v19.38z m0.076-34.97h-9.139l-9.165-0.051v-18.407l9.165 0.026h9.14v18.432z" fill="#221814" p-id="8152"/><path d="M1409.024 895.795l0.051-15.565-30.285-0.05 0.052-23.092 30.233 0.051 0.051-15.59-20.224-0.026 18.432-22.963-17.408-12.058-22.041 34.97h-15.693l12.851-10.138c-10.905-14.77-21.017-24.934-21.017-24.934l-11.956 7.424 16.538 27.597-20.198-0.026v15.642l25.676 0.051-0.05 23.014-25.678-0.05-0.05 15.64h22.962l-24.883 63.489-1.843 6.502h11.008c6.4 0 12.877-3.712 15.59-9.19l16.59-42.317 21.938 51.635 22.887 0.026-31.027-70.067 27.494 0.025z m-385.946-67.763l-30.336-0.051-20.147-0.026 0.051-22.144-26.598-0.051-0.077 22.144-32.973-0.051v15.641l32.973 0.052-0.102 63.462-41.216-0.051 0.102-79.13-26.547-0.051-0.154 93.85 67.815 0.102-0.051 45.082 3.712 0.05c15.539 0 22.041-6.425 22.937-18.406V921.78h20.199l24.78 0.051c11.904 0 22.042-9.113 22.042-21.196l0.102-56.986c0-8.192-7.372-15.59-16.512-15.616z m-9.292 68.966a10.24 10.24 0 0 1-10.112 10.164l-11.034-0.026-20.198-0.026 0.102-63.513 20.198 0.025 21.07 0.026-0.026 53.35z m192.69-87.961l-63.308-0.103-46.771-0.102-0.051 15.642 46.822 0.05 55.91 0.103-0.204 113.203c0 5.556-4.583 9.268-10.01 9.268l-45.9-0.128-54.964-0.103 0.205-138.035-23.86-0.077-0.204 153.651 78.822 0.154 57.754 0.102a21.76 21.76 0 0 0 22.041-21.99l0.205-115.02a16.384 16.384 0 0 0-16.486-16.615z" fill="#221814" p-id="8153"/><path d="M1096.218 916.429v15.718l46.822 0.077 47.642 0.077 0.05-15.693-11.903-0.026 7.321-10.112c-10.112-9.19-18.252-13.798-18.252-13.798l-9.216 9.165 12.8 14.745-17.434-0.025 0.051-25.728 35.738 0.051v-15.616l-35.738-0.077V855.86l35.789 0.077v-15.642l-46.771-0.153-45.85-0.077v15.693l32.103 0.051v19.277l-32.154-0.051v15.692l32.102 0.052v25.728l-33.1-0.077z" fill="#221814" p-id="8154"/></svg>