<?xml version="1.0" encoding="UTF-8"?>
<!-- Do not edit this file with editors other than diagrams.net -->
<!DOCTYPE svg PUBLIC "-//W3C//DTD SVG 1.1//EN" "http://www.w3.org/Graphics/SVG/1.1/DTD/svg11.dtd">
<svg xmlns="http://www.w3.org/2000/svg" xmlns:xlink="http://www.w3.org/1999/xlink" version="1.1" width="551px" height="97px" viewBox="-0.5 -0.5 551 97" content="&lt;mxfile host=&quot;Electron&quot; modified=&quot;2022-10-18T09:47:43.570Z&quot; agent=&quot;5.0 (Windows NT 10.0; Win64; x64) AppleWebKit/537.36 (KHTML, like Gecko) draw.io/20.2.8 Chrome/102.0.5005.167 Electron/19.0.15 Safari/537.36&quot; etag=&quot;quxole-qM1EDkbfut4zG&quot; version=&quot;20.2.8&quot; type=&quot;device&quot;&gt;&lt;diagram id=&quot;QRdCkG50NODbVMTR1S22&quot; name=&quot;第 1 页&quot;&gt;5Vnbkps4EP0aPSbFxWB4NDbOVipbO1vzsNlHDcigHUCOEGNPvn5bIO7YZi4k2drUZErduqtPn+5mkLlNz584Psa/s5AkyNDCMzJ3yDDctQu/peK5UliuVikiTsNKpbeKe/qdKGU9rKAhyXsDBWOJoMe+MmBZRgLR02HO2ak/7MCS/q5HHJGR4j7AyVj7Fw1FXGkdY93qfyM0iuuddVtdOMX1YHWTPMYhO3VUpo/MLWdMVK30vCWJfLv6Xap5+wu9zcE4ycScCZpZfOPpLv8zi4276HOwPvyx/7CqVnnCSaEurA4rnusXICE8iBIZFzGLWIYTv9V6QcGfiNxFB4GzIgsbKX8kIoiVEOMgLjj5hI+gWIGiXe4LY0c16h8ixLMCAi4EA9WBZWKPU5qUIPJd5G6R68uGV7Z9G7k2ctaysbGQt1Zz1Cq6DTLJwo3Eg7zFkWTybALzZsiqGtIVc1bwgNwRTlMiCL8/4oBmEfQ60AlzIyIudFZvKB/uoq2UqtrjioFqzJfbXRlnNIgCTyQMDsWfYR4nCRb0qX8OrHwiasa1sIGGQs4LUKSPUeSDGbZooyF/hTwHOe4IV+APR9ks0mQTCMbh3Z4IFxR87wt+IMkdy6mgDCy1e2BCsLQzYJPQSHYIiRqPFSKhGdk2FKANkdcH5WvgpG4I+5PzdaOOjVBPcBQTKCrUayo8tcRiKlXc4RRbW8ps69vev4Q7kzMVX6WZPlpK+rsn7c7KhqXw3BEaf6t1GbzD167QWUmK7VKlVK/1VkLR/ruEYswkFPtnEooxQShgkh1yfMksrid//veEYpq/GKFYE2ZzkLdDm23ZWKGNbWnayHLwBHA0DysjBHB/wiesk9IwLDMOTnL6HT+U86VtjoxmoryN5SFrJ9cCqsmV75WuydkjGDSRsNhlLJOrHGiSDFUdJzd+nmUhTx5Y1hpZdj1hWXOxUKHdDhUROMXx2v1Vjq7s1mbG899lZQ8Qvx6/izPxLu5S72LffpaalkIscA60JGF2iqkgkuJlx4nLCPqixPmt8cuYC9MrYBgbqS7xZpnEsRYyyURSM5GMah/gf8lFYEKzDOhTIQb6vXrg1cxoyqLL2lAeOZFxzcPBY1SepiazkBxwkYgBxcE9D4eDEQQjPoSe0H6wLVvNqMs9la+9P1LOPaQo3JjzOG61lC+700kHPL0mGw6EsRIa3ga55qUYNjfQzI9117niCgrAqvvy320ojm3+HuhcDDf6OM+xf2g0dG7Tfqc8CBKc51S6XSzSZDKDXJ4qlitO6nJOf0kx1xRuHzVt3S/ebNO5Ub6V0rAWRO9XI6kQcrNG0t1pmHZwaU3gstbNrqXUDncyy+2k/1Y/GWrCbL2EMmk1q/tlcLBQ8012WEfUCynzDxcqfae59hvcaYp5HagVkKOXIdtFjiOZF3KGjSNh75hlw5Z6OKzsAlLeI38vA72znTcdROjV69LEusTpHa/9xUqU137LmMXM11Nxa/g1ayIV16fQ/wpWBrH9Tl6hrv1jg+n/Cw==&lt;/diagram&gt;&lt;/mxfile&gt;" style="background-color: rgb(255, 255, 255);"><defs><style type="text/css">@import url(https://fonts.googleapis.com/css?family=Architects+Daughter);&#xa;@import url(https://fonts.googleapis.com/css?family=Architects+Daughter);&#xa;@import url(https://fonts.googleapis.com/css?family=Architects+Daughter);&#xa;</style></defs><g><path d="M 38 45 Q 38 45 139.76 45" fill="none" stroke="none" pointer-events="stroke"/><path d="M 125.88 52.5 L 140.88 45 L 125.88 37.5" fill="none" stroke="none" pointer-events="all"/><path d="M 38 45 M 38 45 C 37.09 43.68 71.14 45.74 139.76 45 M 38 45 C 39.03 46.16 71.67 43.29 139.76 45" fill="none" stroke="rgb(0, 0, 0)" stroke-linejoin="round" stroke-linecap="round" stroke-miterlimit="10" pointer-events="stroke"/><path d="M 125.88 52.5 M 125.88 52.5 C 130.37 51.4 134.41 48.56 140.88 45 M 125.88 52.5 C 129.78 51.27 133.07 49.77 140.88 45 M 140.88 45 C 137.6 42.31 134.1 40.53 125.88 37.5 M 140.88 45 C 136.33 42.46 130.6 40.08 125.88 37.5" fill="none" stroke="rgb(0, 0, 0)" stroke-linejoin="round" stroke-linecap="round" stroke-miterlimit="10" pointer-events="all"/><ellipse cx="15" cy="22.5" rx="7.5" ry="7.5" fill="none" stroke="none" pointer-events="all"/><path d="M 15 30 L 15 55 M 15 35 L 0 35 M 15 35 L 30 35 M 15 55 L 0 75 M 15 55 L 30 75" fill="none" stroke="none" pointer-events="all"/><path d="M 18.15 14.72 C 19.32 15.32 20.56 18.46 21.2 20.02 C 21.84 21.59 22.19 22.51 21.99 24.13 C 21.78 25.76 21.31 28.66 19.96 29.8 C 18.6 30.94 15.39 31.18 13.86 31 C 12.33 30.82 11.8 30.03 10.77 28.73 C 9.75 27.43 8.14 24.96 7.73 23.19 C 7.33 21.41 7.47 19.37 8.36 18.07 C 9.24 16.78 11.06 15.73 13.06 15.42 C 15.06 15.1 19.13 15.84 20.35 16.16 C 21.57 16.47 20.77 17.31 20.39 17.3 M 13.52 16.12 C 14.69 16.09 16.66 15.99 18.24 16.75 C 19.82 17.5 22.36 19.35 22.99 20.64 C 23.63 21.94 22.59 22.9 22.07 24.51 C 21.54 26.12 21.42 29.25 19.86 30.31 C 18.31 31.37 14.28 31.44 12.73 30.87 C 11.18 30.29 11.27 28.09 10.56 26.86 C 9.85 25.64 8.88 24.81 8.47 23.52 C 8.07 22.23 7.21 20.48 8.14 19.13 C 9.08 17.77 13.39 16.26 14.09 15.39 C 14.79 14.51 12.26 13.71 12.33 13.88" fill="rgb(255, 255, 255)" stroke="none" pointer-events="all"/><path d="M 14.11 15.48 C 15.67 15.69 18.78 16.52 20.12 17.48 C 21.47 18.45 21.88 19.77 22.17 21.26 C 22.46 22.76 22.6 25.08 21.87 26.46 C 21.14 27.84 19.28 28.98 17.79 29.55 C 16.31 30.13 14.49 30.44 12.96 29.91 C 11.43 29.37 9.64 27.66 8.62 26.33 C 7.6 25.01 6.55 23.46 6.83 21.95 C 7.11 20.43 8.61 18.59 10.27 17.25 C 11.93 15.9 15.74 14.14 16.79 13.9 C 17.84 13.65 16.63 15.53 16.59 15.79 M 16.59 16.11 C 18.2 16.99 21.02 18.77 22.17 20.2 C 23.32 21.64 24.12 23.33 23.47 24.71 C 22.82 26.1 19.66 27.59 18.27 28.51 C 16.87 29.42 16.24 30.18 15.1 30.21 C 13.96 30.23 12.47 29.65 11.42 28.66 C 10.37 27.66 9.25 26.03 8.81 24.23 C 8.36 22.43 7.99 19.57 8.75 17.86 C 9.51 16.15 12.09 14.31 13.38 13.97 C 14.68 13.64 15.91 15.45 16.53 15.84 C 17.16 16.24 17.21 16.34 17.14 16.34" fill="none" stroke="rgb(0, 0, 0)" stroke-linejoin="round" stroke-linecap="round" stroke-miterlimit="10" pointer-events="all"/><path d="M 15 30 M 15 30 C 15.38 36.37 15.18 41.02 15 55 M 15 30 C 16.15 35.2 15.3 41.02 15 55 M 15 35 M 15 35 C 11.16 35.06 5.85 34.87 0 35 M 15 35 C 12.49 35.51 8.2 34.6 0 35 M 15 35 M 15 35 C 21.62 34.42 24.95 33.7 30 35 M 15 35 C 20.95 35.08 25 34.75 30 35 M 15 55 M 15 55 C 10.59 63.29 6.03 68.38 0 75 M 15 55 C 10 60.77 6.3 66.54 0 75 M 15 55 M 15 55 C 19.89 60.82 22.85 64.57 30 75 M 15 55 C 20.32 61.12 23.73 68.11 30 75" fill="none" stroke="rgb(0, 0, 0)" stroke-linejoin="round" stroke-linecap="round" stroke-miterlimit="10" pointer-events="all"/><g fill="rgb(0, 0, 0)" font-family="霞鹜文楷" text-anchor="middle" font-size="12px"><text x="14.5" y="92.5">张三</text></g><path d="M 165 45 L 277.76 47.45" fill="none" stroke="none" pointer-events="stroke"/><path d="M 263.72 54.65 L 278.88 47.48 L 264.05 39.65" fill="none" stroke="none" pointer-events="all"/><path d="M 165 45 M 165 45 C 196.1 44.82 230.01 47.2 277.76 47.45 M 165 45 C 194.17 46.26 224.23 45.77 277.76 47.45" fill="none" stroke="rgb(0, 0, 0)" stroke-linejoin="round" stroke-linecap="round" stroke-miterlimit="10" pointer-events="stroke"/><path d="M 263.72 54.65 M 263.72 54.65 C 266.81 51.93 272.19 51.25 278.88 47.48 M 263.72 54.65 C 267.23 52.99 271.48 50.14 278.88 47.48 M 278.88 47.48 C 274.6 44.73 267.76 40.89 264.05 39.65 M 278.88 47.48 C 273.72 45.2 267.33 42.3 264.05 39.65" fill="none" stroke="rgb(0, 0, 0)" stroke-linejoin="round" stroke-linecap="round" stroke-miterlimit="10" pointer-events="all"/><ellipse cx="165" cy="22.5" rx="7.5" ry="7.5" fill="none" stroke="none" pointer-events="all"/><path d="M 165 30 L 165 55 M 165 35 L 150 35 M 165 35 L 180 35 M 165 55 L 150 75 M 165 55 L 180 75" fill="none" stroke="none" pointer-events="all"/><path d="M 163.26 14.67 C 164.8 14.28 168.27 15.22 169.67 16.29 C 171.07 17.35 171.42 19.59 171.66 21.07 C 171.9 22.54 171.81 23.67 171.09 25.13 C 170.37 26.59 168.71 29.16 167.36 29.83 C 166.01 30.51 164.46 29.66 162.97 29.2 C 161.49 28.75 159.47 28.35 158.42 27.1 C 157.38 25.85 156.43 23.33 156.7 21.69 C 156.96 20.05 158.47 18.29 160 17.25 C 161.54 16.22 164.9 15.67 165.91 15.47 C 166.92 15.26 166.35 15.81 166.06 16.03 M 162.76 16.66 C 164.16 16.51 165.33 16.87 166.9 17.52 C 168.46 18.16 171.24 19.12 172.17 20.53 C 173.1 21.93 172.83 24.61 172.45 25.95 C 172.07 27.3 171.36 27.88 169.88 28.59 C 168.4 29.3 165.47 30.33 163.57 30.24 C 161.66 30.14 159.23 29.22 158.43 28.02 C 157.62 26.82 158.69 24.49 158.73 23.06 C 158.77 21.63 157.88 20.5 158.67 19.45 C 159.46 18.39 162.53 17.15 163.47 16.72 C 164.42 16.29 164.52 17.02 164.32 16.86" fill="rgb(255, 255, 255)" stroke="none" pointer-events="all"/><path d="M 162.96 16.54 C 164.07 15.99 165.66 15.57 167.13 16.21 C 168.61 16.85 171.01 18.97 171.82 20.4 C 172.64 21.82 172.54 23.58 172.03 24.77 C 171.51 25.95 169.97 26.84 168.74 27.5 C 167.5 28.17 166.24 28.69 164.62 28.75 C 163 28.82 160.03 28.65 159.01 27.88 C 157.99 27.1 158.41 25.67 158.49 24.08 C 158.58 22.49 158.6 19.91 159.53 18.35 C 160.46 16.8 163.48 15.18 164.08 14.75 C 164.68 14.32 163.12 15.53 163.14 15.79 M 167.5 17 C 168.86 17 169.71 15.77 170.54 16.88 C 171.37 18 172.68 21.71 172.51 23.69 C 172.34 25.68 170.71 27.98 169.51 28.78 C 168.31 29.59 166.99 28.71 165.33 28.53 C 163.66 28.35 160.57 28.4 159.52 27.73 C 158.47 27.06 159 26.05 159 24.5 C 159.01 22.96 159.27 20 159.55 18.46 C 159.83 16.91 159.55 15.67 160.7 15.26 C 161.84 14.85 165.32 15.83 166.43 16 C 167.53 16.16 167.32 15.96 167.31 16.25" fill="none" stroke="rgb(0, 0, 0)" stroke-linejoin="round" stroke-linecap="round" stroke-miterlimit="10" pointer-events="all"/><path d="M 165 30 M 165 30 C 163.78 35.34 166.4 44.18 165 55 M 165 30 C 165.38 37.21 166.11 44.05 165 55 M 165 35 M 165 35 C 160.35 33.61 153.66 35.42 150 35 M 165 35 C 159.28 35.42 153.04 34.34 150 35 M 165 35 M 165 35 C 170.59 35.25 174.82 35.65 180 35 M 165 35 C 170.99 35.46 176.43 35.79 180 35 M 165 55 M 165 55 C 159.88 61.81 156.73 67.51 150 75 M 165 55 C 161.14 59.74 158.33 64.39 150 75 M 165 55 M 165 55 C 168.97 60.16 173.89 67.2 180 75 M 165 55 C 167.67 58.67 171.63 62.56 180 75" fill="none" stroke="rgb(0, 0, 0)" stroke-linejoin="round" stroke-linecap="round" stroke-miterlimit="10" pointer-events="all"/><g fill="rgb(0, 0, 0)" font-family="霞鹜文楷" text-anchor="middle" font-size="12px"><text x="164.5" y="92.5">李四</text></g><rect x="45" y="20" width="70" height="30" fill="none" stroke="none" pointer-events="all"/><g fill="rgb(0, 0, 0)" font-family="霞鹜文楷" text-anchor="middle" font-size="12px"><text x="79.5" y="39.5">转账500</text></g><path d="M 279.09 15.36 L 280.92 11.88 L 286.21 9.67 L 303.42 7.08 L 333.62 4.52 L 349.37 5.78 L 356.49 10.56 L 359.59 17.24 L 360.91 80.67 L 346.51 87.64 L 320.08 89.62 L 297.95 89.78 L 285.2 82.88 L 279.49 77.44 L 281.35 16.06" fill="rgb(255, 255, 255)" stroke="none" pointer-events="none"/><path d="M 280 16 M 280 16 C 281.58 -0.09 360.86 3.03 360 16 M 280 16 C 279.3 2.63 362.07 0.89 360 16 M 360 16 C 362.54 28.01 362.01 41.99 360 79 M 360 16 C 360.8 38.16 361.26 61.72 360 79 M 360 79 C 360.49 93.54 279.05 92.43 280 79 M 360 79 C 361.94 92.42 280.23 91.86 280 79 M 280 79 C 278.57 61.71 282.04 46.8 280 16 M 280 79 C 279.01 56.38 279.69 35.28 280 16" fill="none" stroke="rgb(0, 0, 0)" stroke-linejoin="round" stroke-linecap="round" stroke-miterlimit="10" pointer-events="none"/><path d="M 280 16 M 280 16 C 279.09 26.36 360.03 25.45 360 16 M 280 16 C 278.65 27.43 357.82 28.61 360 16 M 280 16 M 280 16 C 278.94 25.84 361.87 25.04 360 16 M 280 16 C 279.92 26.28 359.53 28.43 360 16 M 280 16 M 280 16 C 281.81 26.09 359.01 27.38 360 16 M 280 16 C 280.09 26.56 359.3 28.53 360 16" fill="none" stroke="rgb(0, 0, 0)" stroke-linejoin="round" stroke-linecap="round" stroke-miterlimit="10" pointer-events="none"/><path d="M 286.22 36.83 C 286.22 36.83 286.22 36.83 286.22 36.83 M 286.22 36.83 C 286.22 36.83 286.22 36.83 286.22 36.83 M 286.61 42.47 C 287.9 40.84 289.82 38.59 292.51 35.68 M 286.61 42.47 C 288.18 40.46 289.59 39.38 292.51 35.68 M 286.35 48.87 C 291.71 46.23 292.91 38.63 297.5 36.04 M 286.35 48.87 C 291.05 43.01 295.91 38.66 297.5 36.04 M 286.74 54.51 C 292.47 48.98 298.08 39.34 302.49 36.4 M 286.74 54.51 C 293.74 47.34 299.26 39.63 302.49 36.4 M 286.48 60.91 C 292.12 55.06 298.58 46.88 308.13 36 M 286.48 60.91 C 292.86 53.66 298.63 46.43 308.13 36 M 286.88 66.55 C 294.21 55.71 302.83 48.7 313.12 36.36 M 286.88 66.55 C 292.49 60.82 297.71 53.26 313.12 36.36 M 287.93 71.44 C 296.57 60.82 305.94 47.96 318.76 35.97 M 287.93 71.44 C 297.29 59.5 307.18 49.13 318.76 35.97 M 289.63 75.57 C 302.54 61.73 312.66 47.32 323.75 36.33 M 289.63 75.57 C 301.99 62.64 313.16 48.42 323.75 36.33 M 294.62 75.93 C 306 65.12 316.98 53.99 329.39 35.93 M 294.62 75.93 C 304.59 63.1 315.41 52.69 329.39 35.93 M 300.26 75.54 C 308.46 66.29 316.04 54.05 334.38 36.29 M 300.26 75.54 C 309.56 64.61 320.34 51.84 334.38 36.29 M 305.25 75.9 C 312.23 65.33 323.02 54.32 339.37 36.65 M 305.25 75.9 C 315 66.63 322.38 56.5 339.37 36.65 M 310.89 75.51 C 323.95 60.24 336.55 49.76 345.01 36.26 M 310.89 75.51 C 324.78 60.12 338.76 43.07 345.01 36.26 M 315.88 75.87 C 322.6 67.95 330.14 56.21 350 36.62 M 315.88 75.87 C 326.64 63.39 335.84 53.62 350 36.62 M 320.87 76.23 C 330.51 66.11 343.71 50.57 354.33 37.74 M 320.87 76.23 C 331.83 63.61 342.11 50.87 354.33 37.74 M 326.51 75.83 C 333.74 67.09 343.37 57.01 356.03 41.87 M 326.51 75.83 C 334.45 67.51 342.13 57.77 356.03 41.87 M 331.5 76.19 C 339.86 64.42 349.89 55.32 355.77 48.27 M 331.5 76.19 C 341.29 65.39 351.32 54.29 355.77 48.27 M 337.14 75.8 C 345.22 66.85 351.7 59.38 356.17 53.91 M 337.14 75.8 C 344.2 68.62 350.41 60.75 356.17 53.91 M 342.13 76.16 C 347.29 71.25 348.91 69.86 355.91 60.31 M 342.13 76.16 C 344.82 72.1 347.94 69.14 355.91 60.31 M 347.77 75.76 C 349.72 72.56 351.98 69.07 355.64 66.71 M 347.77 75.76 C 349.41 74.07 350.86 72.11 355.64 66.71" fill="none" stroke="#fff2cc" stroke-width="0.5" stroke-linejoin="round" stroke-linecap="round" stroke-miterlimit="10" pointer-events="none"/><path d="M 291 35 M 291 35 C 309.31 36.62 327.24 36.13 349 35 M 291 35 C 304.28 34.3 318.71 35.38 349 35 M 349 35 C 351.96 36.13 356.52 38.18 355 41 M 349 35 C 351.87 32.83 353.17 37.69 355 41 M 355 41 C 354.52 52.51 355.68 60.58 355 69 M 355 41 C 355.73 50.13 355.21 59.13 355 69 M 355 69 C 356.92 74.63 351.39 74.22 349 75 M 355 69 C 356.67 74.78 353.54 75.88 349 75 M 349 75 C 336.7 73.1 321.66 74.25 291 75 M 349 75 C 330.69 75.98 314.38 75.66 291 75 M 291 75 C 287.04 73.12 283.86 72.19 285 69 M 291 75 C 287.36 73.19 284.69 74.06 285 69 M 285 69 C 284.64 63.46 283.7 53.83 285 41 M 285 69 C 284.75 63.78 285.78 57.28 285 41 M 285 41 C 284.33 37.02 286.15 35.95 291 35 M 285 41 C 284.09 38 285.16 36.43 291 35" fill="none" stroke="#d6b656" stroke-linejoin="round" stroke-linecap="round" stroke-miterlimit="10" pointer-events="none"/><g transform="translate(-0.5 -0.5)"><switch><foreignObject pointer-events="none" width="100%" height="100%" requiredFeatures="http://www.w3.org/TR/SVG11/feature#Extensibility" style="overflow: visible; text-align: left;"><div xmlns="http://www.w3.org/1999/xhtml" style="display: flex; align-items: unsafe center; justify-content: unsafe center; width: 68px; height: 1px; padding-top: 55px; margin-left: 286px;"><div data-drawio-colors="color: rgb(0, 0, 0); background-color: rgb(255, 255, 255); " style="box-sizing: border-box; font-size: 0px; text-align: center;"><div style="display: inline-block; font-size: 10px; font-family: 霞鹜文楷; color: rgb(0, 0, 0); line-height: 1.2; pointer-events: none; background-color: rgb(255, 255, 255); white-space: normal; overflow-wrap: normal;">张三 - 500<br />李四 + 500</div></div></div></foreignObject><text x="320" y="58" fill="rgb(0, 0, 0)" font-family="霞鹜文楷" font-size="10px" text-anchor="middle">张三 - 500...</text></switch></g><g transform="translate(-0.5 -0.5)"><switch><foreignObject pointer-events="none" width="100%" height="100%" requiredFeatures="http://www.w3.org/TR/SVG11/feature#Extensibility" style="overflow: visible; text-align: left;"><div xmlns="http://www.w3.org/1999/xhtml" style="display: flex; align-items: unsafe center; justify-content: unsafe center; width: 58px; height: 1px; padding-top: 15px; margin-left: 291px;"><div data-drawio-colors="color: rgb(0, 0, 0); background-color: #FFFFFF; " style="box-sizing: border-box; font-size: 0px; text-align: center;"><div style="display: inline-block; font-size: 10px; font-family: 霞鹜文楷; color: rgb(0, 0, 0); line-height: 1.2; pointer-events: none; background-color: rgb(255, 255, 255); white-space: normal; overflow-wrap: normal;">数据库</div></div></div></foreignObject><text x="320" y="18" fill="rgb(0, 0, 0)" font-family="霞鹜文楷" font-size="10px" text-anchor="middle">数据库</text></switch></g><path d="M 355 55 M 355 55 C 366.97 45.26 377.49 38.92 391.29 26.74 M 355 55 C 367.75 45.84 379.81 36.43 391.29 26.74" fill="none" stroke="rgb(0, 0, 0)" stroke-linejoin="round" stroke-linecap="round" stroke-miterlimit="10" pointer-events="none"/><path d="M 383.52 23.36 C 383.52 23.36 383.52 23.36 383.52 23.36 M 383.52 23.36 C 383.52 23.36 383.52 23.36 383.52 23.36 M 387.19 25.23 C 388.35 23.71 389.52 22.82 389.82 22.21 M 387.19 25.23 C 388.1 24.27 389.04 23.17 389.82 22.21 M 391.53 26.35 C 392.8 24.6 394.26 24.15 396.77 20.31 M 391.53 26.35 C 393.34 24.05 395.74 21.57 396.77 20.31 M 394.54 28.97 C 396.91 26.59 398.85 23.89 401.76 20.67 M 394.54 28.97 C 395.86 26.89 398.37 25.01 401.76 20.67" fill="none" stroke="rgb(0, 0, 0)" stroke-width="0.5" stroke-linejoin="round" stroke-linecap="round" stroke-miterlimit="10" pointer-events="none"/><path d="M 400.17 19.83 M 400.17 19.83 C 399.17 25.13 396.06 31.88 392.94 34.96 M 400.17 19.83 C 398.68 23.98 395.15 29.29 392.94 34.96 M 392.94 34.96 C 392.42 32.48 391.49 28.9 391.29 26.74 M 392.94 34.96 C 392.57 32.19 392.08 29.61 391.29 26.74 M 391.29 26.74 C 389.21 25.33 385.16 23.99 383.72 23.13 M 391.29 26.74 C 389.14 26 387.15 24.74 383.72 23.13 M 383.72 23.13 C 389.9 21.12 396.36 20.7 400.17 19.83 M 383.72 23.13 C 389.56 22.52 393.03 21.2 400.17 19.83" fill="none" stroke="rgb(0, 0, 0)" stroke-linejoin="round" stroke-linecap="round" stroke-miterlimit="10" pointer-events="none"/><g transform="translate(-0.5 -0.5)"><switch><foreignObject pointer-events="none" width="100%" height="100%" requiredFeatures="http://www.w3.org/TR/SVG11/feature#Extensibility" style="overflow: visible; text-align: left;"><div xmlns="http://www.w3.org/1999/xhtml" style="display: flex; align-items: unsafe center; justify-content: unsafe center; width: 1px; height: 1px; padding-top: 15px; margin-left: 475px;"><div data-drawio-colors="color: rgb(0, 0, 0); " style="box-sizing: border-box; font-size: 0px; text-align: center;"><div style="display: inline-block; font-size: 10px; font-family: 霞鹜文楷; color: rgb(0, 0, 0); line-height: 1.2; pointer-events: none; white-space: nowrap;">要么全部成功，要么全部失败</div></div></div></foreignObject><text x="475" y="18" fill="rgb(0, 0, 0)" font-family="霞鹜文楷" font-size="10px" text-anchor="middle">要么全部成功，要么全部失败</text></switch></g></g><switch><g requiredFeatures="http://www.w3.org/TR/SVG11/feature#Extensibility"/><a transform="translate(0,-5)" xlink:href="https://www.diagrams.net/doc/faq/svg-export-text-problems" target="_blank"><text text-anchor="middle" font-size="10px" x="50%" y="100%">Text is not SVG - cannot display</text></a></switch></svg>