<?xml version="1.0" encoding="UTF-8"?>
<!-- Do not edit this file with editors other than diagrams.net -->
<!DOCTYPE svg PUBLIC "-//W3C//DTD SVG 1.1//EN" "http://www.w3.org/Graphics/SVG/1.1/DTD/svg11.dtd">
<svg xmlns="http://www.w3.org/2000/svg" xmlns:xlink="http://www.w3.org/1999/xlink" version="1.1" width="541px" height="552px" viewBox="-0.5 -0.5 541 552" content="&lt;mxfile host=&quot;Electron&quot; modified=&quot;2022-08-16T20:46:27.127Z&quot; agent=&quot;5.0 (Windows NT 10.0; Win64; x64) AppleWebKit/537.36 (KHTML, like Gecko) draw.io/20.2.3 Chrome/102.0.5005.167 Electron/19.0.11 Safari/537.36&quot; etag=&quot;7dsH_ncQgC4WvNd12eqx&quot; version=&quot;20.2.3&quot; type=&quot;device&quot;&gt;&lt;diagram id=&quot;CxcfNg40HYxm0wYU19zQ&quot; name=&quot;第 1 页&quot;&gt;7V1bk6I4GP01eZwtuYdH8TLzsFO1tT1VM/O0xUhUdtC4iN1t//oNmChIkLQtBDG+NPnkZjg5J8l3QgNjtHr9HPub5VccoAjog+AVGGOg6xqENvmTRvaHiKsZh8AiDgO60ynwFL4hGhzQ6C4M0LawY4JxlISbYnCG12s0SwoxP47xS3G3OY6KV934C1QKPM38qBz9HgbJ8hCFunOKf0HhYsmurNnu4ZuVz3amv2S79AP8kgsZE2CMYoyTw9bqdYSitPJYvRyOm1Z8e7yxGK0TkQOC2bef31em/vbPl+Xfc3P212i++WTRp/HsRzv6i+ndJntWBYsY7zbA8Fb42f+VBQekFKNt+JYv48RPcmUCBJQvoyDMF+nzykXojaA4Qa+8R0t3PVVo/qdrxwolSER4hZJ4T3Y5wpAewkBIiy+nJ2qw2DL/NB0a9CmKFsdTnyqabNC6fke925xqtyNyWW+pFWrf/m+XAsQrbC2yvxMHDCeA/LSJBeAYuFa64ZFgtgHJV8eTkntMz0sPZFcyha9kAzgFpIYmJvAmwM0irg08N93wjOzaDnCHAJqXb8I8v4nNeeBXfB4hx+X2OgMnAUv2W5IVqf+xRja3SYx/oxGOcEwiAZr7u+w08zCKWHSN1yjddePPwvWCBKxT6RsmYB9/0lNMvizDBD2ReHq1F8JwJIYJROdR1pKXYRCgdQb+3TpAAbuD3yiZLWlhjtfJ1F+FUYa9iQvcEXAn6YaXbR9qEjrpxjCrOsPzo3BBTjueEXyjWGLTyzexC/xRbnj7IovnGtqx+RYamt1UQ3OqG5pxwjeB9RAMnRSyrgGgdhnERiUaizjgoScP1I/C5O5QwU5jFdhYG5RRcozlUWI1BRL3SpDYKTYoSKZgaCiQ3BAk9uAMJVYJJSYHJGZTIGFcdqmrhALSeaRFHCdLvMBrP5qcojmlSGvvtM+fOJOd9Cn/i5JkT3vC/i7BRUBcg4ECiFoBRFoR18CB1CbexTNUz+iJHy/QpRO6fHjFKPKT8Ll4d7cHi1YPlnZ5oNgtArrh6QPyOesYkTiyNPMQJ1fJxefZh+7PQL7FUVoPd8syOixrj8VhFaMpVmE/5F0kMtvFz0fgfJhR0GuY/Mht/0xP9YdFS+NX9pDSwp4V1uTH/8gXckelxdNhWYkddw1yq/BZjehe8Z0ryHdaxRi4JcLTy4RX6jENBYZvpbFP2urDmR8N6RcrMug6SOnZo9zgcJ1kv8vygDVOz0Wwvj3AvjwypGNAzrDwKpAWyXI6FYBiZ1nRMMqsaLfJimyE0GH5tKd8+fQJCenWo8nnviid0tR0UIKJUtOLanqEazXAH1NNLalqypkfLqmpyGRoP9TUdXuhptUk2a648uZEuyWuI8eweOI6923IG5sOBjkx7qu48uZJW1VXzb1CXXsvqIXuQxVeqxH+mOrqSFVXKKCuo4dR1+kU9khdeSzZqrxanJkQmhdKKx6khgZW96dMO5OwUvI9nKNoi3KZpcNJhNPhfcEoFfh7gSWR5iIs9XL6qlXxts36Xl//nD68+X2zXauPcSG7LO71KfkRyg6cxrw+5WsfvT6XbkJ5ffrl9TkwSIe9Piz1X+PjIE9gCDzyfCDwNDBUZp9mYNFVs4/JS80rt49klHTN7WPyevHtT3701e3DeqO1MwrsAddOKZhS098mx0dfkpVy+ltZgORTj3QLkGmWcKGSlo9gARInQbbyqZYEKyYlWiJBXtbynARl95Ae1MghSoIdMXKYjuLEhzRyNMCJtlROrJ79u5QNoCQjMBE4Ek0NqJR+92hWekqfXUyl9B8spd8Az0pdcGMJpLfUaFs+AxqyR9v2NYx3oWdZwEkPubCUiE8/feA1Q5DXrApAt8RrnJUQal1NV71KNeRnyl5XY/HeO9ItlVTTMXmV7Mh0jMWxjKv1CPfOQh1Zj2Bx7LgdIyU1ecEhJfmTF5y5NeXj7gkrSfdx2zd+M4OMgaIa8JWzk/UDPqkJA/san5GCXXdhJ7om6tANkgU7V6/vhPVveYDpcLowPJ9hg28CvcmrQN/nab7t8gAHeB598SeJQ6gWDKgFAzlOKTfG2hUCzTU2sdeBqhUCreCAv0KA83LmdhcI2Lz5CLVAQDZIisrtSF4fYHPmHt7fb5e/PqAwcuhoX5v1TWv72rbou0FtqX1th9PXLinMD8lE8aCJmRoa0jkDBt5yYtgU78AbG2Mf1b7wfvfs3ZMjFCRHp6IJtESOPCOXMsz2NeckyrfH12iI8W9j/T6n+w6Kx/AZ1gCHZ7VpNTnJUHnPQq0E9yOCy7r59YIrNeHkiLwNTTkMO5JFr6M9jr261ay5IzAvogayHQDKmd3Cli2XPXBbqHFtt2VW6gIlRszKQpvBr+MWWlGZrWbPVlUXdv/fTanpDI7qSn8rKLzmld5KdutkV2CR8N3Lrikou1Dqi7kgL9emPOL9kF0efbaru/D+6VPR4EdoEFqiow+py4gh7x+qKU+TXDo79zTxklutmpqgrejsDtYe3N4PBRv6b2ekGOM0H3/87jNp/suvmNQVCf4P&lt;/diagram&gt;&lt;/mxfile&gt;" style="background-color: rgb(255, 255, 255);"><defs/><g><path d="M 24 10 M 24 10 C 78.93 8.58 136.66 7.08 196 10 M 24 10 C 69.26 11.69 114.45 10.78 196 10 M 196 10 C 213.65 9.42 219.99 16.26 220 34 M 196 10 C 211.35 9.65 219.75 17.49 220 34 M 220 34 C 222.71 58.57 219.66 84.94 220 146 M 220 34 C 221.4 68.65 221.46 103.52 220 146 M 220 146 C 219.97 162.91 212.09 171.4 196 170 M 220 146 C 221.17 162.02 211.71 171.45 196 170 M 196 170 C 135.93 168.3 77.02 168.68 24 170 M 196 170 C 143.41 171.03 92.98 171.35 24 170 M 24 170 C 8.83 168.68 0.21 163.52 0 146 M 24 170 C 6.77 168.29 1.28 161.83 0 146 M 0 146 C -1.6 121.88 0.52 97.58 0 34 M 0 146 C -0.03 123.56 0.68 101.09 0 34 M 0 34 C -0.86 19.58 6.81 11.07 24 10 M 0 34 C -1.77 19.01 9.49 9.97 24 10" fill="none" stroke="rgb(0, 0, 0)" stroke-linejoin="round" stroke-linecap="round" stroke-miterlimit="10" pointer-events="none"/><g transform="translate(-0.5 -0.5)"><switch><foreignObject pointer-events="none" width="100%" height="100%" requiredFeatures="http://www.w3.org/TR/SVG11/feature#Extensibility" style="overflow: visible; text-align: left;"><div xmlns="http://www.w3.org/1999/xhtml" style="display: flex; align-items: unsafe flex-start; justify-content: unsafe center; width: 212px; height: 1px; padding-top: 0px; margin-left: 4px;"><div data-drawio-colors="color: rgb(0, 0, 0); " style="box-sizing: border-box; font-size: 0px; text-align: center; max-height: 170px; overflow: hidden;"><div style="display: inline-block; font-size: 12px; font-family: 霞鹜文楷; color: rgb(0, 0, 0); line-height: 1.2; pointer-events: none; white-space: normal; overflow-wrap: normal;"><h1 style="">简单工厂</h1><h4 style="">提供方法的工厂</h4><p><br /></p></div></div></div></foreignObject><text x="110" y="12" fill="rgb(0, 0, 0)" font-family="霞鹜文楷" font-size="12px" text-anchor="middle">简单工厂提供方法的工厂...</text></switch></g><path d="M 23.05 101.67 L 111.09 101.95 L 112.3 103.6 L 116.88 108.23 L 115.23 145.77 L 115.09 149.84 L 108.04 148.33 L 17.57 151.48 L 15.75 150.01 L 16.61 140.69 L 15.62 106.56 L 15.9 100.32 L 21.97 101.48" fill="rgb(255, 255, 255)" stroke="none" pointer-events="none"/><path d="M 22.5 100 M 22.5 100 C 42.29 100.52 61.36 98.11 107.5 100 M 22.5 100 C 50.86 100.56 79.93 100.75 107.5 100 M 107.5 100 C 114.04 98.07 113.56 102.47 115 107.5 M 107.5 100 C 113.93 98.87 115.31 100.88 115 107.5 M 115 107.5 C 115.2 117.99 116.1 127.73 115 142.5 M 115 107.5 C 115.15 116.74 113.7 125.62 115 142.5 M 115 142.5 C 113.52 148 113.49 151.94 107.5 150 M 115 142.5 C 115.09 146.65 113.61 149.51 107.5 150 M 107.5 150 C 73.52 151.32 40.37 149.74 22.5 150 M 107.5 150 C 83.29 151.55 57.14 151.65 22.5 150 M 22.5 150 C 17.42 151.08 15.18 147.45 15 142.5 M 22.5 150 C 17.7 147.71 12.84 147.03 15 142.5 M 15 142.5 C 14.36 131.52 14.09 119.88 15 107.5 M 15 142.5 C 15.86 131.31 14.94 118.67 15 107.5 M 15 107.5 C 14.42 102.37 18.69 98.92 22.5 100 M 15 107.5 C 16.73 104.28 15.28 98.64 22.5 100" fill="none" stroke="rgb(0, 0, 0)" stroke-linejoin="round" stroke-linecap="round" stroke-miterlimit="10" pointer-events="none"/><g transform="translate(-0.5 -0.5)"><switch><foreignObject pointer-events="none" width="100%" height="100%" requiredFeatures="http://www.w3.org/TR/SVG11/feature#Extensibility" style="overflow: visible; text-align: left;"><div xmlns="http://www.w3.org/1999/xhtml" style="display: flex; align-items: unsafe center; justify-content: unsafe center; width: 98px; height: 1px; padding-top: 125px; margin-left: 16px;"><div data-drawio-colors="color: rgb(0, 0, 0); " style="box-sizing: border-box; font-size: 0px; text-align: center;"><div style="display: inline-block; font-size: 12px; font-family: 霞鹜文楷; color: rgb(0, 0, 0); line-height: 1.2; pointer-events: none; white-space: normal; overflow-wrap: normal;"><h3>产品工厂</h3></div></div></div></foreignObject><text x="65" y="129" fill="rgb(0, 0, 0)" font-family="霞鹜文楷" font-size="12px" text-anchor="middle">产品工厂</text></switch></g><path d="M 166.55 103.35 L 195.12 104.19 L 199.61 107.59 L 200.21 110.61 L 201.24 137.4 L 197.25 142.07 L 193.63 145.05 L 165.76 144 L 162.13 144.64 L 161.95 138.16 L 158.3 109.07 L 161.22 107.1 L 166.38 105.55" fill="rgb(255, 255, 255)" stroke="none" pointer-events="none"/><path d="M 166 105 M 166 105 C 172.82 102.97 178.53 106.11 194 105 M 166 105 C 173.69 103.8 181.38 103.86 194 105 M 194 105 C 196.61 103.18 200.19 108.37 200 111 M 194 105 C 200.15 105.07 200.26 107.8 200 111 M 200 111 C 201.14 117.38 201.09 125.14 200 139 M 200 111 C 200.76 116.8 201.02 123.33 200 139 M 200 139 C 201.71 143.47 198.75 143.1 194 145 M 200 139 C 199.48 140.89 198.83 142.85 194 145 M 194 145 C 182.37 146.63 174.66 146.27 166 145 M 194 145 C 187.02 145.66 181.67 144.45 166 145 M 166 145 C 160.84 146.48 161.94 142.9 160 139 M 166 145 C 163.12 145.98 160.24 142.1 160 139 M 160 139 C 158.33 130.66 159.47 119.64 160 111 M 160 139 C 160.26 128.84 160.56 118.32 160 111 M 160 111 C 160.9 106.55 161.66 105.67 166 105 M 160 111 C 158.75 106.67 162.26 104.27 166 105" fill="none" stroke="rgb(0, 0, 0)" stroke-linejoin="round" stroke-linecap="round" stroke-miterlimit="10" pointer-events="none"/><g transform="translate(-0.5 -0.5)"><switch><foreignObject pointer-events="none" width="100%" height="100%" requiredFeatures="http://www.w3.org/TR/SVG11/feature#Extensibility" style="overflow: visible; text-align: left;"><div xmlns="http://www.w3.org/1999/xhtml" style="display: flex; align-items: unsafe center; justify-content: unsafe center; width: 38px; height: 1px; padding-top: 125px; margin-left: 161px;"><div data-drawio-colors="color: rgb(0, 0, 0); " style="box-sizing: border-box; font-size: 0px; text-align: center;"><div style="display: inline-block; font-size: 12px; font-family: 霞鹜文楷; color: rgb(0, 0, 0); line-height: 1.2; pointer-events: none; white-space: normal; overflow-wrap: normal;"><h3>产品接口</h3></div></div></div></foreignObject><text x="180" y="129" fill="rgb(0, 0, 0)" font-family="霞鹜文楷" font-size="12px" text-anchor="middle">产品接口</text></switch></g><path d="M 115 125 M 115 125 C 127.96 126.21 143.6 126.51 153.63 125 M 115 125 C 125.68 123.88 137.53 125.28 153.63 125" fill="none" stroke="rgb(0, 0, 0)" stroke-linejoin="round" stroke-linecap="round" stroke-miterlimit="10" pointer-events="none"/><path d="M 151.62 121.79 C 151.62 121.79 151.62 121.79 151.62 121.79 M 151.62 121.79 C 151.62 121.79 151.62 121.79 151.62 121.79 M 153.99 125.17 C 154.59 124.92 154.82 124.21 155.3 123.66 M 153.99 125.17 C 154.34 124.88 154.63 124.31 155.3 123.66" fill="none" stroke="rgb(0, 0, 0)" stroke-width="0.5" stroke-linejoin="round" stroke-linecap="round" stroke-miterlimit="10" pointer-events="none"/><path d="M 158.88 125 M 158.88 125 C 156.87 126.39 155.96 126.92 151.88 128.5 M 158.88 125 C 156.35 126.69 153.14 127.94 151.88 128.5 M 151.88 128.5 C 152.57 127.46 152.57 126.84 153.63 125 M 151.88 128.5 C 152.56 127.67 152.92 126.75 153.63 125 M 153.63 125 C 152.98 123.63 152.52 122.17 151.88 121.5 M 153.63 125 C 152.85 123.74 152.23 122.15 151.88 121.5 M 151.88 121.5 C 154.72 122.72 156.86 124.91 158.88 125 M 151.88 121.5 C 154.24 122.86 156.14 123.52 158.88 125" fill="none" stroke="rgb(0, 0, 0)" stroke-linejoin="round" stroke-linecap="round" stroke-miterlimit="10" pointer-events="none"/><path d="M 285.46 1.17 L 325.64 -1.63 L 329.38 0.52 L 331.01 5.8 L 329.66 27.14 L 326.61 28.6 L 285.82 29.83 L 281.86 30.66 L 278.63 6.12 L 281.3 0.01 L 284.81 -1.4" fill="#e51400" stroke="none" pointer-events="none"/><path d="M 284.5 0 M 284.5 0 C 301.65 0.08 317.42 -1.63 325.5 0 M 284.5 0 C 299.1 -0.39 314.72 -0.38 325.5 0 M 325.5 0 C 328.54 1.65 329.44 3.16 330 4.5 M 325.5 0 C 327.5 -1.36 332.2 1.97 330 4.5 M 330 4.5 C 328.18 8.82 328.27 16.24 330 25.5 M 330 4.5 C 329.17 9.63 329.33 14.97 330 25.5 M 330 25.5 C 331.72 30.03 329.78 29.31 325.5 30 M 330 25.5 C 327.87 28.05 327.82 28.34 325.5 30 M 325.5 30 C 311.59 29.68 298.16 29.77 284.5 30 M 325.5 30 C 308.59 30.1 293.27 31.25 284.5 30 M 284.5 30 C 280.64 31.51 279.57 28.44 280 25.5 M 284.5 30 C 283.22 27.86 278.52 30.35 280 25.5 M 280 25.5 C 281.41 19.4 280.87 17.48 280 4.5 M 280 25.5 C 279.89 18.69 279.92 13.2 280 4.5 M 280 4.5 C 280.78 -0.14 283.25 -0.29 284.5 0 M 280 4.5 C 280.45 -0.67 283.4 -1.13 284.5 0" fill="none" stroke="#b20000" stroke-linejoin="round" stroke-linecap="round" stroke-miterlimit="10" pointer-events="none"/><path d="M 200 125 M 200 125 C 227.63 124.72 238.7 105.62 240 70 M 200 125 C 227.11 124.4 238.93 108.9 240 70 M 240 70 C 241.15 33 250.49 14.83 273.63 15 M 240 70 C 241.34 34.02 249.5 15.22 273.63 15" fill="none" stroke="#b20000" stroke-linejoin="round" stroke-linecap="round" stroke-miterlimit="10" pointer-events="none"/><path d="M 271.79 11.6 C 271.79 11.6 271.79 11.6 271.79 11.6 M 271.79 11.6 C 271.79 11.6 271.79 11.6 271.79 11.6 M 274.15 14.98 C 274.26 14.59 274.75 14.13 275.47 13.47 M 274.15 14.98 C 274.45 14.51 274.82 14.23 275.47 13.47" fill="none" stroke="#b20000" stroke-width="0.5" stroke-linejoin="round" stroke-linecap="round" stroke-miterlimit="10" pointer-events="none"/><path d="M 278.88 15 M 278.88 15 C 277.24 16.34 276.27 16.74 271.88 18.5 M 278.88 15 C 276.87 15.66 274.59 16.75 271.88 18.5 M 271.88 18.5 C 272.13 16.95 273.29 16.34 273.63 15 M 271.88 18.5 C 272.26 17.36 272.97 16.45 273.63 15 M 273.63 15 C 273.03 14.64 273.26 13.86 271.88 11.5 M 273.63 15 C 272.85 13.66 272.32 12.4 271.88 11.5 M 271.88 11.5 C 274.73 13.26 277.31 13.57 278.88 15 M 271.88 11.5 C 274.12 13.08 277.16 14.33 278.88 15" fill="none" stroke="#b20000" stroke-linejoin="round" stroke-linecap="round" stroke-miterlimit="10" pointer-events="none"/><g transform="translate(-0.5 -0.5)"><switch><foreignObject pointer-events="none" width="100%" height="100%" requiredFeatures="http://www.w3.org/TR/SVG11/feature#Extensibility" style="overflow: visible; text-align: left;"><div xmlns="http://www.w3.org/1999/xhtml" style="display: flex; align-items: unsafe center; justify-content: unsafe center; width: 1px; height: 1px; padding-top: 15px; margin-left: 360px;"><div data-drawio-colors="color: #FF0000; " style="box-sizing: border-box; font-size: 0px; text-align: center;"><div style="display: inline-block; font-size: 12px; font-family: 霞鹜文楷; color: rgb(255, 0, 0); line-height: 1.2; pointer-events: none; white-space: nowrap;">产品A</div></div></div></foreignObject><text x="360" y="19" fill="#FF0000" font-family="霞鹜文楷" font-size="12px" text-anchor="middle">产品A</text></switch></g><path d="M 285.46 48.54 L 327.26 51.8 L 329.24 49.24 L 331.66 53.56 L 330.74 77.96 L 324.18 80.3 L 283.99 79.29 L 280.67 78.78 L 278.15 54.63 L 281.99 51.96 L 284.16 50.63" fill="#a20025" stroke="none" pointer-events="none"/><path d="M 284.5 50 M 284.5 50 C 294.47 50.71 307.16 48.92 325.5 50 M 284.5 50 C 297.65 50.03 312.54 50.94 325.5 50 M 325.5 50 C 326.92 49.26 331.37 50.28 330 54.5 M 325.5 50 C 329.94 48.9 331.34 50.61 330 54.5 M 330 54.5 C 328.19 63.28 328.19 68.1 330 75.5 M 330 54.5 C 330.47 59.99 330.49 68.09 330 75.5 M 330 75.5 C 328.17 78.88 329.08 81.42 325.5 80 M 330 75.5 C 330.6 77.98 327.26 78.73 325.5 80 M 325.5 80 C 314.87 78.45 303.53 81.55 284.5 80 M 325.5 80 C 314.05 80.32 301.46 80.23 284.5 80 M 284.5 80 C 282.39 81.5 281.36 77.21 280 75.5 M 284.5 80 C 280.74 78.78 277.97 80.24 280 75.5 M 280 75.5 C 280.48 68.74 281.63 63.83 280 54.5 M 280 75.5 C 279.63 71.67 279.81 67.26 280 54.5 M 280 54.5 C 281.25 50.39 280.61 51.22 284.5 50 M 280 54.5 C 279.26 53.19 279.88 48.29 284.5 50" fill="none" stroke="#6f0000" stroke-linejoin="round" stroke-linecap="round" stroke-miterlimit="10" pointer-events="none"/><path d="M 200 125 M 200 125 C 227.63 124.38 240.3 115.09 240 95 M 200 125 C 228.3 127.07 239.89 115.57 240 95 M 240 95 C 240.88 73.46 252.09 64.41 273.63 65 M 240 95 C 239.56 77 253.3 66.92 273.63 65" fill="none" stroke="#6f0000" stroke-linejoin="round" stroke-linecap="round" stroke-miterlimit="10" pointer-events="none"/><path d="M 271.62 61.8 C 271.62 61.8 271.62 61.8 271.62 61.8 M 271.62 61.8 C 271.62 61.8 271.62 61.8 271.62 61.8 M 273.98 65.18 C 274.33 64.72 275.15 64.14 275.29 63.67 M 273.98 65.18 C 274.39 64.71 274.71 64.21 275.29 63.67" fill="none" stroke="#6f0000" stroke-width="0.5" stroke-linejoin="round" stroke-linecap="round" stroke-miterlimit="10" pointer-events="none"/><path d="M 278.88 65 M 278.88 65 C 277.22 66.16 275.2 66.1 271.88 68.5 M 278.88 65 C 277.47 65.59 275.08 66.97 271.88 68.5 M 271.88 68.5 C 272.15 67.45 272.96 66.97 273.63 65 M 271.88 68.5 C 272.65 67.21 273.02 66.16 273.63 65 M 273.63 65 C 273.23 63.85 272.31 63.07 271.88 61.5 M 273.63 65 C 273.24 64.08 272.87 63.38 271.88 61.5 M 271.88 61.5 C 273.55 61.99 275.11 62.54 278.88 65 M 271.88 61.5 C 274.69 63.09 277.59 64.33 278.88 65" fill="none" stroke="#6f0000" stroke-linejoin="round" stroke-linecap="round" stroke-miterlimit="10" pointer-events="none"/><g transform="translate(-0.5 -0.5)"><switch><foreignObject pointer-events="none" width="100%" height="100%" requiredFeatures="http://www.w3.org/TR/SVG11/feature#Extensibility" style="overflow: visible; text-align: left;"><div xmlns="http://www.w3.org/1999/xhtml" style="display: flex; align-items: unsafe center; justify-content: unsafe center; width: 1px; height: 1px; padding-top: 65px; margin-left: 360px;"><div data-drawio-colors="color: #990000; " style="box-sizing: border-box; font-size: 0px; text-align: center;"><div style="display: inline-block; font-size: 12px; font-family: 霞鹜文楷; color: rgb(153, 0, 0); line-height: 1.2; pointer-events: none; white-space: nowrap;">产品B</div></div></div></foreignObject><text x="360" y="69" fill="#990000" font-family="霞鹜文楷" font-size="12px" text-anchor="middle">产品B</text></switch></g><path d="M 285.46 99.22 L 324.07 99.52 L 327.16 102.6 L 329.99 106.44 L 327.28 130.38 L 324.97 131.16 L 283.08 131.01 L 282.08 129.84 L 279.91 103.88 L 282.33 102.94 L 285.84 99.64" fill="#fa6800" stroke="none" pointer-events="none"/><path d="M 284.5 100 M 284.5 100 C 294.98 101.03 308.23 101.19 325.5 100 M 284.5 100 C 297.92 99.64 309.45 100 325.5 100 M 325.5 100 C 328.11 100.06 328.34 100.84 330 104.5 M 325.5 100 C 326.56 99.02 328.61 102.24 330 104.5 M 330 104.5 C 330.41 113.51 330.37 119.03 330 125.5 M 330 104.5 C 329.91 112.18 329.86 117.65 330 125.5 M 330 125.5 C 328.4 128.31 328.72 128.47 325.5 130 M 330 125.5 C 329.66 127.95 326.97 128.92 325.5 130 M 325.5 130 C 314.51 131.84 304.21 128.44 284.5 130 M 325.5 130 C 314.77 129.83 304.56 131.13 284.5 130 M 284.5 130 C 283.26 131.49 278.26 128.59 280 125.5 M 284.5 130 C 279.5 129.24 280 130.19 280 125.5 M 280 125.5 C 280.22 118.41 278.22 110 280 104.5 M 280 125.5 C 279.92 116.96 281.18 110.88 280 104.5 M 280 104.5 C 279.48 100.66 281.29 99.97 284.5 100 M 280 104.5 C 280.97 102.82 282.72 100.29 284.5 100" fill="none" stroke="#c73500" stroke-linejoin="round" stroke-linecap="round" stroke-miterlimit="10" pointer-events="none"/><path d="M 200 125 M 200 125 C 227.63 124.9 239.38 124.57 240 120 M 200 125 C 226.91 125.96 238.06 124.28 240 120 M 240 120 C 238.95 116.58 251.46 113.01 273.63 115 M 240 120 C 241.92 115.22 249.32 112.73 273.63 115" fill="none" stroke="#c73500" stroke-linejoin="round" stroke-linecap="round" stroke-miterlimit="10" pointer-events="none"/><path d="M 272.1 111.25 C 272.1 111.25 272.1 111.25 272.1 111.25 M 272.1 111.25 C 272.1 111.25 272.1 111.25 272.1 111.25 M 273.81 115.38 C 274.05 115.1 274.51 114.23 275.78 113.12 M 273.81 115.38 C 274.15 114.96 274.86 114.46 275.78 113.12" fill="none" stroke="#c73500" stroke-width="0.5" stroke-linejoin="round" stroke-linecap="round" stroke-miterlimit="10" pointer-events="none"/><path d="M 278.88 115 M 278.88 115 C 277.45 115.98 275.3 117.28 271.88 118.5 M 278.88 115 C 276.24 116.27 273.73 117.41 271.88 118.5 M 271.88 118.5 C 272.5 117.2 272.77 116.4 273.63 115 M 271.88 118.5 C 272.43 117.63 272.63 116.95 273.63 115 M 273.63 115 C 273.06 114.08 272.67 113 271.88 111.5 M 273.63 115 C 273.02 114.01 272.71 113.23 271.88 111.5 M 271.88 111.5 C 273.68 112.47 276.25 114.38 278.88 115 M 271.88 111.5 C 274.3 113.18 277.13 114.55 278.88 115" fill="none" stroke="#c73500" stroke-linejoin="round" stroke-linecap="round" stroke-miterlimit="10" pointer-events="none"/><g transform="translate(-0.5 -0.5)"><switch><foreignObject pointer-events="none" width="100%" height="100%" requiredFeatures="http://www.w3.org/TR/SVG11/feature#Extensibility" style="overflow: visible; text-align: left;"><div xmlns="http://www.w3.org/1999/xhtml" style="display: flex; align-items: unsafe center; justify-content: unsafe center; width: 1px; height: 1px; padding-top: 115px; margin-left: 360px;"><div data-drawio-colors="color: #FF8000; " style="box-sizing: border-box; font-size: 0px; text-align: center;"><div style="display: inline-block; font-size: 12px; font-family: 霞鹜文楷; color: rgb(255, 128, 0); line-height: 1.2; pointer-events: none; white-space: nowrap;">产品C</div></div></div></foreignObject><text x="360" y="119" fill="#FF8000" font-family="霞鹜文楷" font-size="12px" text-anchor="middle">产品C</text></switch></g><g transform="translate(-0.5 -0.5)"><switch><foreignObject pointer-events="none" width="100%" height="100%" requiredFeatures="http://www.w3.org/TR/SVG11/feature#Extensibility" style="overflow: visible; text-align: left;"><div xmlns="http://www.w3.org/1999/xhtml" style="display: flex; align-items: unsafe center; justify-content: unsafe center; width: 1px; height: 1px; padding-top: 140px; margin-left: 250px;"><div data-drawio-colors="color: #FF0000; " style="box-sizing: border-box; font-size: 0px; text-align: center;"><div style="display: inline-block; font-size: 12px; font-family: 霞鹜文楷; color: rgb(255, 0, 0); line-height: 1.2; pointer-events: none; white-space: nowrap;"><font color="#000000">ifelse</font></div></div></div></foreignObject><text x="250" y="144" fill="#FF0000" font-family="霞鹜文楷" font-size="12px" text-anchor="middle">ifelse</text></switch></g><path d="M 24 200 M 24 200 C 82.3 199.54 144.85 197.99 196 200 M 24 200 C 59.49 201.35 95.08 201.24 196 200 M 196 200 C 213.92 198.83 220.16 207.54 220 224 M 196 200 C 212.31 201.2 218.91 208 220 224 M 220 224 C 220.65 249.27 217.87 272 220 336 M 220 224 C 220.9 250.03 219.68 277.63 220 336 M 220 336 C 221.71 353.76 213.32 361.25 196 360 M 220 336 C 220.35 350.44 210.7 361.99 196 360 M 196 360 C 130.61 360.91 63.87 359.83 24 360 M 196 360 C 135.87 360.25 78.29 361.49 24 360 M 24 360 C 9.64 361.41 0.98 352.24 0 336 M 24 360 C 9.82 358.32 -1.31 352.48 0 336 M 0 336 C -0.04 313.21 -1.47 291.49 0 224 M 0 336 C -0.04 297.96 0.08 258.94 0 224 M 0 224 C 1.66 209.26 6.96 200.39 24 200 M 0 224 C -0.3 208.08 8.48 199.93 24 200" fill="none" stroke="rgb(0, 0, 0)" stroke-linejoin="round" stroke-linecap="round" stroke-miterlimit="10" pointer-events="none"/><g transform="translate(-0.5 -0.5)"><switch><foreignObject pointer-events="none" width="100%" height="100%" requiredFeatures="http://www.w3.org/TR/SVG11/feature#Extensibility" style="overflow: visible; text-align: left;"><div xmlns="http://www.w3.org/1999/xhtml" style="display: flex; align-items: unsafe flex-start; justify-content: unsafe center; width: 212px; height: 1px; padding-top: 190px; margin-left: 4px;"><div data-drawio-colors="color: rgb(0, 0, 0); " style="box-sizing: border-box; font-size: 0px; text-align: center; max-height: 170px; overflow: hidden;"><div style="display: inline-block; font-size: 12px; font-family: 霞鹜文楷; color: rgb(0, 0, 0); line-height: 1.2; pointer-events: none; white-space: normal; overflow-wrap: normal;"><h1 style="">工厂方法</h1><h4 style="">提供工厂的方法</h4><p><br /></p></div></div></div></foreignObject><text x="110" y="202" fill="rgb(0, 0, 0)" font-family="霞鹜文楷" font-size="12px" text-anchor="middle">工厂方法提供工厂的方法...</text></switch></g><path d="M 23.47 290.47 L 112.21 291.71 L 114.31 293.85 L 115.02 299.27 L 116.14 337.03 L 114.33 340.01 L 106.81 339.27 L 20.6 338.01 L 16.37 337.46 L 15.07 332.28 L 16.52 298.62 L 18.84 291.26 L 23.41 288.62" fill="rgb(255, 255, 255)" stroke="none" pointer-events="none"/><path d="M 22.5 290 M 22.5 290 C 41.58 290.22 62.83 288.92 107.5 290 M 22.5 290 C 49.5 288.47 77.67 288.88 107.5 290 M 107.5 290 C 112.49 289.85 115.78 293.73 115 297.5 M 107.5 290 C 113.06 289.99 116.41 291.4 115 297.5 M 115 297.5 C 115.04 305.22 116.72 315.52 115 332.5 M 115 297.5 C 114.93 307.5 115.42 318.33 115 332.5 M 115 332.5 C 115.6 335.7 112.67 338.26 107.5 340 M 115 332.5 C 115.25 339.45 114.39 341.26 107.5 340 M 107.5 340 C 73.91 337.85 43.28 339.09 22.5 340 M 107.5 340 C 77.73 339.81 49.13 339.02 22.5 340 M 22.5 340 C 17.37 340.45 14.81 336.91 15 332.5 M 22.5 340 C 16.87 337.96 15.78 337.46 15 332.5 M 15 332.5 C 16.34 325.55 14.3 319.26 15 297.5 M 15 332.5 C 14.68 318.2 15.5 304.52 15 297.5 M 15 297.5 C 15.57 291.8 16.76 289.3 22.5 290 M 15 297.5 C 15.72 293.7 17.19 291.04 22.5 290" fill="none" stroke="rgb(0, 0, 0)" stroke-linejoin="round" stroke-linecap="round" stroke-miterlimit="10" pointer-events="none"/><g transform="translate(-0.5 -0.5)"><switch><foreignObject pointer-events="none" width="100%" height="100%" requiredFeatures="http://www.w3.org/TR/SVG11/feature#Extensibility" style="overflow: visible; text-align: left;"><div xmlns="http://www.w3.org/1999/xhtml" style="display: flex; align-items: unsafe center; justify-content: unsafe center; width: 98px; height: 1px; padding-top: 315px; margin-left: 16px;"><div data-drawio-colors="color: rgb(0, 0, 0); " style="box-sizing: border-box; font-size: 0px; text-align: center;"><div style="display: inline-block; font-size: 12px; font-family: 霞鹜文楷; color: rgb(0, 0, 0); line-height: 1.2; pointer-events: none; white-space: normal; overflow-wrap: normal;"><h3>抽象工厂</h3></div></div></div></foreignObject><text x="65" y="319" fill="rgb(0, 0, 0)" font-family="霞鹜文楷" font-size="12px" text-anchor="middle">抽象工厂</text></switch></g><path d="M 166.97 295.81 L 193.83 295.1 L 198.65 296.16 L 199.18 300.21 L 201.88 327.46 L 198.1 331.81 L 194.86 333.13 L 164.08 336.01 L 159.87 332.47 L 158.24 327.27 L 158.36 301.63 L 159.81 296.96 L 165.36 293.16" fill="rgb(255, 255, 255)" stroke="none" pointer-events="none"/><path d="M 166 295 M 166 295 C 175.21 295.5 182.38 294.97 194 295 M 166 295 C 177.71 294.67 187.24 295.02 194 295 M 194 295 C 198.52 296.9 199.59 296.93 200 301 M 194 295 C 198.92 293.29 201.39 294.81 200 301 M 200 301 C 200.18 310.82 201.38 318.29 200 329 M 200 301 C 200.22 309.09 199.57 315.57 200 329 M 200 329 C 200.19 333.19 198.05 335.34 194 335 M 200 329 C 202.25 334.32 197.45 333.13 194 335 M 194 335 C 186.65 335.41 177.79 335.26 166 335 M 194 335 C 186.17 335.42 177.3 334.99 166 335 M 166 335 C 163.33 335.65 158.69 332.39 160 329 M 166 335 C 161.83 334.59 159.69 332.74 160 329 M 160 329 C 160.78 320.84 161.45 312.33 160 301 M 160 329 C 160.1 320.57 160.54 312.33 160 301 M 160 301 C 161.31 296.14 160.49 295.17 166 295 M 160 301 C 159.23 297.15 162.93 294.05 166 295" fill="none" stroke="rgb(0, 0, 0)" stroke-linejoin="round" stroke-linecap="round" stroke-miterlimit="10" pointer-events="none"/><g transform="translate(-0.5 -0.5)"><switch><foreignObject pointer-events="none" width="100%" height="100%" requiredFeatures="http://www.w3.org/TR/SVG11/feature#Extensibility" style="overflow: visible; text-align: left;"><div xmlns="http://www.w3.org/1999/xhtml" style="display: flex; align-items: unsafe center; justify-content: unsafe center; width: 38px; height: 1px; padding-top: 315px; margin-left: 161px;"><div data-drawio-colors="color: rgb(0, 0, 0); " style="box-sizing: border-box; font-size: 0px; text-align: center;"><div style="display: inline-block; font-size: 12px; font-family: 霞鹜文楷; color: rgb(0, 0, 0); line-height: 1.2; pointer-events: none; white-space: normal; overflow-wrap: normal;"><h3>产品接口</h3></div></div></div></foreignObject><text x="180" y="319" fill="rgb(0, 0, 0)" font-family="霞鹜文楷" font-size="12px" text-anchor="middle">产品接口</text></switch></g><path d="M 115 315 M 115 315 C 127.42 314.45 143.26 313.69 153.63 315 M 115 315 C 128.84 314.43 139.89 315.56 153.63 315" fill="none" stroke="rgb(0, 0, 0)" stroke-linejoin="round" stroke-linecap="round" stroke-miterlimit="10" pointer-events="none"/><path d="M 151.88 311.5 C 151.88 311.5 151.88 311.5 151.88 311.5 M 151.88 311.5 C 151.88 311.5 151.88 311.5 151.88 311.5 M 154.25 314.87 C 154.42 314.55 154.95 314.06 155.56 313.37 M 154.25 314.87 C 154.75 314.49 155.03 313.96 155.56 313.37" fill="none" stroke="rgb(0, 0, 0)" stroke-width="0.5" stroke-linejoin="round" stroke-linecap="round" stroke-miterlimit="10" pointer-events="none"/><path d="M 158.88 315 M 158.88 315 C 156.69 316.74 153.15 317.14 151.88 318.5 M 158.88 315 C 157.11 315.95 155.19 316.92 151.88 318.5 M 151.88 318.5 C 152.49 317.95 152.9 316.62 153.63 315 M 151.88 318.5 C 152.49 317.71 152.81 316.6 153.63 315 M 153.63 315 C 152.99 314.4 153.09 313.47 151.88 311.5 M 153.63 315 C 153.24 314.31 153.04 313.49 151.88 311.5 M 151.88 311.5 C 154.96 312.21 157.24 314.4 158.88 315 M 151.88 311.5 C 153.81 312.71 156.04 313.63 158.88 315" fill="none" stroke="rgb(0, 0, 0)" stroke-linejoin="round" stroke-linecap="round" stroke-miterlimit="10" pointer-events="none"/><path d="M 285.47 191.49 L 326.14 191.81 L 326.95 190.14 L 331.51 192.59 L 327.3 219.75 L 325.89 219.17 L 284.44 219.86 L 280.61 216.94 L 280.13 192.72 L 279.71 190.37 L 284.54 189.64" fill="#e51400" stroke="none" pointer-events="none"/><path d="M 284.5 190 M 284.5 190 C 296.01 189.61 304.56 190.97 325.5 190 M 284.5 190 C 299 190.16 316 190.05 325.5 190 M 325.5 190 C 327.1 189.79 329.42 191.74 330 194.5 M 325.5 190 C 330.32 187.71 331.4 193.04 330 194.5 M 330 194.5 C 330.16 202.41 328.12 209.63 330 215.5 M 330 194.5 C 329 200.91 329.81 209.17 330 215.5 M 330 215.5 C 330.47 218.72 327.08 219.43 325.5 220 M 330 215.5 C 329.28 218.68 328.28 220.58 325.5 220 M 325.5 220 C 311.21 218.55 296.09 220.18 284.5 220 M 325.5 220 C 316.06 219.31 304.23 220 284.5 220 M 284.5 220 C 280.05 221.17 278.17 220.19 280 215.5 M 284.5 220 C 281.79 221.21 280.52 217.74 280 215.5 M 280 215.5 C 279.56 209.43 279.21 201.27 280 194.5 M 280 215.5 C 280.42 210.22 279.61 203.11 280 194.5 M 280 194.5 C 278.85 192.49 279.67 190.57 284.5 190 M 280 194.5 C 278.62 190.14 282.61 192.21 284.5 190" fill="none" stroke="#b20000" stroke-linejoin="round" stroke-linecap="round" stroke-miterlimit="10" pointer-events="none"/><g transform="translate(-0.5 -0.5)"><switch><foreignObject pointer-events="none" width="100%" height="100%" requiredFeatures="http://www.w3.org/TR/SVG11/feature#Extensibility" style="overflow: visible; text-align: left;"><div xmlns="http://www.w3.org/1999/xhtml" style="display: flex; align-items: unsafe center; justify-content: unsafe center; width: 48px; height: 1px; padding-top: 205px; margin-left: 281px;"><div data-drawio-colors="color: #ffffff; " style="box-sizing: border-box; font-size: 0px; text-align: center;"><div style="display: inline-block; font-size: 12px; font-family: 霞鹜文楷; color: rgb(255, 255, 255); line-height: 1.2; pointer-events: none; white-space: normal; overflow-wrap: normal;">工厂A</div></div></div></foreignObject><text x="305" y="209" fill="#ffffff" font-family="霞鹜文楷" font-size="12px" text-anchor="middle">工厂A</text></switch></g><path d="M 200 315 M 200 315 C 227.64 316.83 239.05 297.34 240 260 M 200 315 C 227.86 315.8 240.77 296.13 240 260 M 240 260 C 238.69 221.41 249.99 204.59 273.63 205 M 240 260 C 241.71 221.87 251.43 205.68 273.63 205" fill="none" stroke="#b20000" stroke-linejoin="round" stroke-linecap="round" stroke-miterlimit="10" pointer-events="none"/><path d="M 272.05 201.3 C 272.05 201.3 272.05 201.3 272.05 201.3 M 272.05 201.3 C 272.05 201.3 272.05 201.3 272.05 201.3 M 273.76 205.44 C 274.64 204.86 275.23 204.18 275.73 203.17 M 273.76 205.44 C 274.18 204.92 274.77 204.17 275.73 203.17" fill="none" stroke="#b20000" stroke-width="0.5" stroke-linejoin="round" stroke-linecap="round" stroke-miterlimit="10" pointer-events="none"/><path d="M 278.88 205 M 278.88 205 C 276.75 205.82 275.29 207.12 271.88 208.5 M 278.88 205 C 276.75 206.37 273.49 207.54 271.88 208.5 M 271.88 208.5 C 272.03 207.65 272.79 206.75 273.63 205 M 271.88 208.5 C 272.53 207.32 273.09 205.78 273.63 205 M 273.63 205 C 273.39 203.8 272.75 202.24 271.88 201.5 M 273.63 205 C 273.19 204.21 273.02 203.36 271.88 201.5 M 271.88 201.5 C 274.37 202.22 275.72 203.22 278.88 205 M 271.88 201.5 C 273.45 202.4 274.39 202.56 278.88 205" fill="none" stroke="#b20000" stroke-linejoin="round" stroke-linecap="round" stroke-miterlimit="10" pointer-events="none"/><path d="M 285.47 238.51 L 325.36 238.39 L 327.84 241.18 L 329 242.91 L 328.11 269.37 L 325.06 270.45 L 285.07 270.45 L 282.72 270.53 L 280.77 245.6 L 282.23 239.84 L 283.05 238.16" fill="#a20025" stroke="none" pointer-events="none"/><path d="M 284.5 240 M 284.5 240 C 296.77 240.49 310.16 238.79 325.5 240 M 284.5 240 C 299.41 240.58 313.37 239.65 325.5 240 M 325.5 240 C 326.88 241 328.87 242.58 330 244.5 M 325.5 240 C 327.55 240.2 331.91 243.17 330 244.5 M 330 244.5 C 331.27 250.56 329.17 254.63 330 265.5 M 330 244.5 C 329.37 253.18 330.08 260.51 330 265.5 M 330 265.5 C 330.81 269.86 328.56 269.01 325.5 270 M 330 265.5 C 327.87 266.33 327.86 268.57 325.5 270 M 325.5 270 C 316.77 270.04 305.31 271.93 284.5 270 M 325.5 270 C 314.05 270.18 302.67 268.94 284.5 270 M 284.5 270 C 283.36 271.16 279.52 268.27 280 265.5 M 284.5 270 C 282.23 271.89 281.26 267.66 280 265.5 M 280 265.5 C 278.96 256.94 279.88 249.53 280 244.5 M 280 265.5 C 280.65 261.45 279.45 256.16 280 244.5 M 280 244.5 C 278.2 240.88 280.69 238.7 284.5 240 M 280 244.5 C 281.17 239.58 279.97 240.62 284.5 240" fill="none" stroke="#6f0000" stroke-linejoin="round" stroke-linecap="round" stroke-miterlimit="10" pointer-events="none"/><g transform="translate(-0.5 -0.5)"><switch><foreignObject pointer-events="none" width="100%" height="100%" requiredFeatures="http://www.w3.org/TR/SVG11/feature#Extensibility" style="overflow: visible; text-align: left;"><div xmlns="http://www.w3.org/1999/xhtml" style="display: flex; align-items: unsafe center; justify-content: unsafe center; width: 48px; height: 1px; padding-top: 255px; margin-left: 281px;"><div data-drawio-colors="color: #ffffff; " style="box-sizing: border-box; font-size: 0px; text-align: center;"><div style="display: inline-block; font-size: 12px; font-family: 霞鹜文楷; color: rgb(255, 255, 255); line-height: 1.2; pointer-events: none; white-space: normal; overflow-wrap: normal;">工厂B</div></div></div></foreignObject><text x="305" y="259" fill="#ffffff" font-family="霞鹜文楷" font-size="12px" text-anchor="middle">工厂B</text></switch></g><path d="M 200 315 M 200 315 C 227.64 313.85 238.27 306.24 240 285 M 200 315 C 228.89 317 237.89 304.83 240 285 M 240 285 C 239.5 266.7 253.17 255.87 273.63 255 M 240 285 C 237.84 264.21 249.25 255.21 273.63 255" fill="none" stroke="#6f0000" stroke-linejoin="round" stroke-linecap="round" stroke-miterlimit="10" pointer-events="none"/><path d="M 271.88 251.5 C 271.88 251.5 271.88 251.5 271.88 251.5 M 271.88 251.5 C 271.88 251.5 271.88 251.5 271.88 251.5 M 274.24 254.88 C 274.59 254.49 274.92 254.17 275.55 253.37 M 274.24 254.88 C 274.64 254.28 275.28 253.73 275.55 253.37" fill="none" stroke="#6f0000" stroke-width="0.5" stroke-linejoin="round" stroke-linecap="round" stroke-miterlimit="10" pointer-events="none"/><path d="M 278.88 255 M 278.88 255 C 275.43 255.77 272.57 257.57 271.88 258.5 M 278.88 255 C 277.18 256.31 274.88 256.68 271.88 258.5 M 271.88 258.5 C 272.77 257.59 273.09 256.1 273.63 255 M 271.88 258.5 C 272.3 257.8 272.71 257.07 273.63 255 M 273.63 255 C 272.73 253.99 272.52 252.59 271.88 251.5 M 273.63 255 C 273.14 254.12 272.45 252.68 271.88 251.5 M 271.88 251.5 C 274.96 253.5 276.4 254.65 278.88 255 M 271.88 251.5 C 273.98 252.79 275.96 253.68 278.88 255" fill="none" stroke="#6f0000" stroke-linejoin="round" stroke-linecap="round" stroke-miterlimit="10" pointer-events="none"/><path d="M 285.47 289.53 L 324.58 288.96 L 328.73 292.22 L 330.49 293.23 L 328.92 318.99 L 324.24 321.73 L 285.7 321.04 L 280.83 320.11 L 281.4 294.49 L 280.75 289.3 L 285.57 290.67" fill="#fa6800" stroke="none" pointer-events="none"/><path d="M 284.5 290 M 284.5 290 C 297.53 291.38 311.77 290.61 325.5 290 M 284.5 290 C 297.81 290.19 310.73 290.44 325.5 290 M 325.5 290 C 326.67 288.2 328.33 293.42 330 294.5 M 325.5 290 C 329.39 288.09 327.81 293.3 330 294.5 M 330 294.5 C 328.38 298.9 330.22 304.02 330 315.5 M 330 294.5 C 329.75 299.25 330.35 303.44 330 315.5 M 330 315.5 C 331.14 317 330.03 318.6 325.5 320 M 330 315.5 C 331.07 318.58 327.43 321.16 325.5 320 M 325.5 320 C 314.13 320.71 302.14 318.86 284.5 320 M 325.5 320 C 312.04 319.05 299.12 319.88 284.5 320 M 284.5 320 C 282.67 321.15 280.86 320.34 280 315.5 M 284.5 320 C 282.67 317.98 282 317.57 280 315.5 M 280 315.5 C 278.37 308.64 280.56 306.19 280 294.5 M 280 315.5 C 280.45 308.48 280.87 300.8 280 294.5 M 280 294.5 C 281.55 293.28 281.72 290.84 284.5 290 M 280 294.5 C 279.13 293.63 281.93 289.03 284.5 290" fill="none" stroke="#c73500" stroke-linejoin="round" stroke-linecap="round" stroke-miterlimit="10" pointer-events="none"/><g transform="translate(-0.5 -0.5)"><switch><foreignObject pointer-events="none" width="100%" height="100%" requiredFeatures="http://www.w3.org/TR/SVG11/feature#Extensibility" style="overflow: visible; text-align: left;"><div xmlns="http://www.w3.org/1999/xhtml" style="display: flex; align-items: unsafe center; justify-content: unsafe center; width: 48px; height: 1px; padding-top: 305px; margin-left: 281px;"><div data-drawio-colors="color: #000000; " style="box-sizing: border-box; font-size: 0px; text-align: center;"><div style="display: inline-block; font-size: 12px; font-family: 霞鹜文楷; color: rgb(0, 0, 0); line-height: 1.2; pointer-events: none; white-space: normal; overflow-wrap: normal;"><font color="#ffffff">工厂C</font></div></div></div></foreignObject><text x="305" y="309" fill="#000000" font-family="霞鹜文楷" font-size="12px" text-anchor="middle">工厂C</text></switch></g><path d="M 200 315 M 200 315 C 227.64 314.01 239.99 315.15 240 310 M 200 315 C 227.89 312.77 237.79 311.5 240 310 M 240 310 C 241.98 305.32 250.58 304.12 273.63 305 M 240 310 C 239.03 306.71 250.25 306.01 273.63 305" fill="none" stroke="#c73500" stroke-linejoin="round" stroke-linecap="round" stroke-miterlimit="10" pointer-events="none"/><path d="M 271.7 301.7 C 271.7 301.7 271.7 301.7 271.7 301.7 M 271.7 301.7 C 271.7 301.7 271.7 301.7 271.7 301.7 M 274.07 305.08 C 274.38 304.63 274.83 304.25 275.38 303.57 M 274.07 305.08 C 274.62 304.5 275.02 303.81 275.38 303.57" fill="none" stroke="#c73500" stroke-width="0.5" stroke-linejoin="round" stroke-linecap="round" stroke-miterlimit="10" pointer-events="none"/><path d="M 278.88 305 M 278.88 305 C 276.81 306.59 274.61 306.37 271.88 308.5 M 278.88 305 C 277.2 305.91 275.25 306.73 271.88 308.5 M 271.88 308.5 C 272.03 307.58 273.24 306.05 273.63 305 M 271.88 308.5 C 272.21 307.65 272.68 306.83 273.63 305 M 273.63 305 C 273.28 304.53 272.5 303.41 271.88 301.5 M 273.63 305 C 272.93 304.05 272.6 303.06 271.88 301.5 M 271.88 301.5 C 274.31 303.03 275.38 303.2 278.88 305 M 271.88 301.5 C 273.22 302.54 274.77 303.32 278.88 305" fill="none" stroke="#c73500" stroke-linejoin="round" stroke-linecap="round" stroke-miterlimit="10" pointer-events="none"/><path d="M 385.47 190.37 L 427.11 191.25 L 429.79 191.91 L 428.73 194.67 L 427.93 218.35 L 426.44 220.83 L 385.83 219.49 L 383.1 217.87 L 380.26 192.8 L 381.24 189.99 L 383.39 189.82" fill="#e51400" stroke="none" pointer-events="none"/><path d="M 384.5 190 M 384.5 190 C 391.55 189.92 400.45 190.63 425.5 190 M 384.5 190 C 393.54 189.94 404.98 189.04 425.5 190 M 425.5 190 C 430.15 190.64 428.91 192.69 430 194.5 M 425.5 190 C 426.87 189.72 429.15 191.36 430 194.5 M 430 194.5 C 431.92 201.51 429.17 207.32 430 215.5 M 430 194.5 C 430.59 199.23 430.27 204.89 430 215.5 M 430 215.5 C 430.09 217.52 429.46 220.32 425.5 220 M 430 215.5 C 428.06 218.12 428.38 219.06 425.5 220 M 425.5 220 C 413.05 221.55 398.24 219.27 384.5 220 M 425.5 220 C 412.9 219.5 400.2 220.26 384.5 220 M 384.5 220 C 382 221.06 380.53 218.34 380 215.5 M 384.5 220 C 380.34 219.33 380.76 216.86 380 215.5 M 380 215.5 C 381.35 208.72 378.54 201.23 380 194.5 M 380 215.5 C 380.05 209.24 380.47 201.96 380 194.5 M 380 194.5 C 378.58 192.74 382.59 190.65 384.5 190 M 380 194.5 C 378.29 193.41 382.05 192.12 384.5 190" fill="none" stroke="#b20000" stroke-linejoin="round" stroke-linecap="round" stroke-miterlimit="10" pointer-events="none"/><path d="M 330 205 M 330 205 C 330.97 206.55 343.1 203.39 373.63 205 M 330 205 C 331.08 202.87 344.7 203.9 373.63 205" fill="none" stroke="rgb(0, 0, 0)" stroke-linejoin="round" stroke-linecap="round" stroke-miterlimit="10" pointer-events="none"/><path d="M 371.65 201.76 C 371.65 201.76 371.65 201.76 371.65 201.76 M 371.65 201.76 C 371.65 201.76 371.65 201.76 371.65 201.76 M 374.02 205.14 C 374.5 204.48 374.74 204.23 375.33 203.63 M 374.02 205.14 C 374.37 204.91 374.53 204.39 375.33 203.63" fill="none" stroke="rgb(0, 0, 0)" stroke-width="0.5" stroke-linejoin="round" stroke-linecap="round" stroke-miterlimit="10" pointer-events="none"/><path d="M 378.88 205 M 378.88 205 C 377.22 206.21 375.48 206.99 371.88 208.5 M 378.88 205 C 376.93 206.29 374.39 207.16 371.88 208.5 M 371.88 208.5 C 372.39 207.57 372.84 206.97 373.63 205 M 371.88 208.5 C 372.69 207.23 373.17 205.88 373.63 205 M 373.63 205 C 373.19 203.27 372.37 202.12 371.88 201.5 M 373.63 205 C 372.97 203.69 372.53 202.5 371.88 201.5 M 371.88 201.5 C 374.53 203.14 376.42 203.93 378.88 205 M 371.88 201.5 C 373.67 202.78 376.22 203.35 378.88 205" fill="none" stroke="rgb(0, 0, 0)" stroke-linejoin="round" stroke-linecap="round" stroke-miterlimit="10" pointer-events="none"/><g transform="translate(-0.5 -0.5)"><switch><foreignObject pointer-events="none" width="100%" height="100%" requiredFeatures="http://www.w3.org/TR/SVG11/feature#Extensibility" style="overflow: visible; text-align: left;"><div xmlns="http://www.w3.org/1999/xhtml" style="display: flex; align-items: unsafe center; justify-content: unsafe center; width: 1px; height: 1px; padding-top: 205px; margin-left: 460px;"><div data-drawio-colors="color: #FF0000; " style="box-sizing: border-box; font-size: 0px; text-align: center;"><div style="display: inline-block; font-size: 12px; font-family: 霞鹜文楷; color: rgb(255, 0, 0); line-height: 1.2; pointer-events: none; white-space: nowrap;">产品A</div></div></div></foreignObject><text x="460" y="209" fill="#FF0000" font-family="霞鹜文楷" font-size="12px" text-anchor="middle">产品A</text></switch></g><path d="M 385.47 241.05 L 423.92 238.96 L 427.72 241.27 L 431.06 243.55 L 428.47 270.77 L 427.23 271.68 L 384.92 271.22 L 380.5 268.93 L 378.01 246.05 L 381.58 240.97 L 385.07 238.83" fill="#a20025" stroke="none" pointer-events="none"/><path d="M 384.5 240 M 384.5 240 C 396.05 240.23 405.52 238.9 425.5 240 M 384.5 240 C 393.81 239.56 401.89 240.11 425.5 240 M 425.5 240 C 427.34 241.44 429.88 243.25 430 244.5 M 425.5 240 C 428.09 239.85 431.02 242.98 430 244.5 M 430 244.5 C 430.14 251.74 431.34 258.25 430 265.5 M 430 244.5 C 430.03 249.41 429.64 256.45 430 265.5 M 430 265.5 C 430.31 266.95 429.11 271.37 425.5 270 M 430 265.5 C 431.72 268.08 428.1 269.26 425.5 270 M 425.5 270 C 412.7 270.93 398.93 270.17 384.5 270 M 425.5 270 C 415.63 269.02 405.3 269.16 384.5 270 M 384.5 270 C 382.88 271.05 381.42 269.72 380 265.5 M 384.5 270 C 383.7 269.79 378.19 266.8 380 265.5 M 380 265.5 C 381.1 262.59 379.13 255.8 380 244.5 M 380 265.5 C 380.34 258.73 379.84 253.98 380 244.5 M 380 244.5 C 380.82 243 383.27 239.41 384.5 240 M 380 244.5 C 379.99 243.04 380.29 239.53 384.5 240" fill="none" stroke="#6f0000" stroke-linejoin="round" stroke-linecap="round" stroke-miterlimit="10" pointer-events="none"/><g transform="translate(-0.5 -0.5)"><switch><foreignObject pointer-events="none" width="100%" height="100%" requiredFeatures="http://www.w3.org/TR/SVG11/feature#Extensibility" style="overflow: visible; text-align: left;"><div xmlns="http://www.w3.org/1999/xhtml" style="display: flex; align-items: unsafe center; justify-content: unsafe center; width: 1px; height: 1px; padding-top: 255px; margin-left: 460px;"><div data-drawio-colors="color: #990000; " style="box-sizing: border-box; font-size: 0px; text-align: center;"><div style="display: inline-block; font-size: 12px; font-family: 霞鹜文楷; color: rgb(153, 0, 0); line-height: 1.2; pointer-events: none; white-space: nowrap;">产品B</div></div></div></foreignObject><text x="460" y="259" fill="#990000" font-family="霞鹜文楷" font-size="12px" text-anchor="middle">产品B</text></switch></g><path d="M 385.47 291.73 L 424.74 290.68 L 429.65 290.63 L 429.38 296.43 L 429.01 319.18 L 424.01 318.54 L 384.01 318.94 L 381.91 319.99 L 379.77 295.31 L 381.93 291.94 L 382.75 291.84" fill="#fa6800" stroke="none" pointer-events="none"/><path d="M 384.5 290 M 384.5 290 C 396.56 290.55 406.59 291.17 425.5 290 M 384.5 290 C 392.08 291.18 400.8 291.18 425.5 290 M 425.5 290 C 428.53 288.24 430.85 289.81 430 294.5 M 425.5 290 C 429.31 289.97 428.29 290.01 430 294.5 M 430 294.5 C 427.93 301.97 429.09 309.18 430 315.5 M 430 294.5 C 429.89 301.59 429.43 308.01 430 315.5 M 430 315.5 C 430.54 320.37 428.76 318.43 425.5 320 M 430 315.5 C 430.79 318.05 427.82 319.45 425.5 320 M 425.5 320 C 412.34 320.32 399.61 321.06 384.5 320 M 425.5 320 C 416.36 320.54 408.39 320.06 384.5 320 M 384.5 320 C 379.75 321.04 378.32 317.11 380 315.5 M 384.5 320 C 382.46 320.25 380.21 316.75 380 315.5 M 380 315.5 C 380.42 308.26 379.3 305.98 380 294.5 M 380 315.5 C 380.21 310.22 380.79 306.01 380 294.5 M 380 294.5 C 379.05 293.27 379.96 288.16 384.5 290 M 380 294.5 C 381.7 292.67 383.13 291.53 384.5 290" fill="none" stroke="#c73500" stroke-linejoin="round" stroke-linecap="round" stroke-miterlimit="10" pointer-events="none"/><g transform="translate(-0.5 -0.5)"><switch><foreignObject pointer-events="none" width="100%" height="100%" requiredFeatures="http://www.w3.org/TR/SVG11/feature#Extensibility" style="overflow: visible; text-align: left;"><div xmlns="http://www.w3.org/1999/xhtml" style="display: flex; align-items: unsafe center; justify-content: unsafe center; width: 1px; height: 1px; padding-top: 305px; margin-left: 460px;"><div data-drawio-colors="color: #FF8000; " style="box-sizing: border-box; font-size: 0px; text-align: center;"><div style="display: inline-block; font-size: 12px; font-family: 霞鹜文楷; color: rgb(255, 128, 0); line-height: 1.2; pointer-events: none; white-space: nowrap;">产品C</div></div></div></foreignObject><text x="460" y="309" fill="#FF8000" font-family="霞鹜文楷" font-size="12px" text-anchor="middle">产品C</text></switch></g><path d="M 330 255 M 330 255 C 330.97 256.89 345.51 256.25 373.63 255 M 330 255 C 329.89 254.81 343.74 255.56 373.63 255" fill="none" stroke="rgb(0, 0, 0)" stroke-linejoin="round" stroke-linecap="round" stroke-miterlimit="10" pointer-events="none"/><path d="M 372.14 251.21 C 372.14 251.21 372.14 251.21 372.14 251.21 M 372.14 251.21 C 372.14 251.21 372.14 251.21 372.14 251.21 M 373.84 255.34 C 374.55 254.61 375.41 253.36 375.81 253.08 M 373.84 255.34 C 374.6 254.55 375.32 253.65 375.81 253.08" fill="none" stroke="rgb(0, 0, 0)" stroke-width="0.5" stroke-linejoin="round" stroke-linecap="round" stroke-miterlimit="10" pointer-events="none"/><path d="M 378.88 255 M 378.88 255 C 377.25 256.53 374.99 256.19 371.88 258.5 M 378.88 255 C 376.32 256.51 373.9 257.87 371.88 258.5 M 371.88 258.5 C 372.02 257.77 372.47 256.95 373.63 255 M 371.88 258.5 C 372.31 257.38 373.12 256.56 373.63 255 M 373.63 255 C 372.99 254.07 372.54 252.91 371.88 251.5 M 373.63 255 C 373.32 254.01 372.68 253.35 371.88 251.5 M 371.88 251.5 C 374.15 252.71 377.06 254.83 378.88 255 M 371.88 251.5 C 373.88 252.63 375.79 253.21 378.88 255" fill="none" stroke="rgb(0, 0, 0)" stroke-linejoin="round" stroke-linecap="round" stroke-miterlimit="10" pointer-events="none"/><path d="M 330 305 M 330 305 C 330.98 303.23 343.91 305.11 373.63 305 M 330 305 C 328.7 306.74 342.77 307.21 373.63 305" fill="none" stroke="rgb(0, 0, 0)" stroke-linejoin="round" stroke-linecap="round" stroke-miterlimit="10" pointer-events="none"/><path d="M 371.96 301.41 C 371.96 301.41 371.96 301.41 371.96 301.41 M 371.96 301.41 C 371.96 301.41 371.96 301.41 371.96 301.41 M 373.67 305.54 C 374.02 304.92 374.37 304.44 375.64 303.27 M 373.67 305.54 C 374.26 304.76 375.06 303.88 375.64 303.27" fill="none" stroke="rgb(0, 0, 0)" stroke-width="0.5" stroke-linejoin="round" stroke-linecap="round" stroke-miterlimit="10" pointer-events="none"/><path d="M 378.88 305 M 378.88 305 C 377.28 305.28 376.06 306.96 371.88 308.5 M 378.88 305 C 377.19 306.02 376.28 306.39 371.88 308.5 M 371.88 308.5 C 372.79 307.27 372.8 306.31 373.63 305 M 371.88 308.5 C 372.31 307.53 372.69 306.85 373.63 305 M 373.63 305 C 373.15 304.16 372.73 302.29 371.88 301.5 M 373.63 305 C 372.93 303.59 372.52 302.37 371.88 301.5 M 371.88 301.5 C 373.94 303.15 376.47 302.76 378.88 305 M 371.88 301.5 C 373.3 302.48 375.36 303.07 378.88 305" fill="none" stroke="rgb(0, 0, 0)" stroke-linejoin="round" stroke-linecap="round" stroke-miterlimit="10" pointer-events="none"/><path d="M 25.5 380 M 25.5 380 C 83.98 377.89 143.62 378.28 194.5 380 M 25.5 380 C 73.46 380.06 121.66 381.59 194.5 380 M 194.5 380 C 212.66 378.46 219.26 386.5 220 405.5 M 194.5 380 C 211.29 381.12 218.37 387.93 220 405.5 M 220 405.5 C 219.47 451.67 221.29 496.91 220 524.5 M 220 405.5 C 219.98 441.54 220.21 476.87 220 524.5 M 220 524.5 C 219.29 543.39 212.39 548.43 194.5 550 M 220 524.5 C 220.12 541 211.63 551.3 194.5 550 M 194.5 550 C 127.22 550.04 61.82 550.8 25.5 550 M 194.5 550 C 133.21 548.26 69.47 549.48 25.5 550 M 25.5 550 C 8.32 549.54 1.16 541.23 0 524.5 M 25.5 550 C 9.47 551.34 -0.15 541.44 0 524.5 M 0 524.5 C -0.14 497.44 0.76 472.56 0 405.5 M 0 524.5 C 1.63 498.03 1.39 471.27 0 405.5 M 0 405.5 C 0.89 389.44 7.83 378.68 25.5 380 M 0 405.5 C -0.93 390.78 8.21 382.05 25.5 380" fill="none" stroke="rgb(0, 0, 0)" stroke-linejoin="round" stroke-linecap="round" stroke-miterlimit="10" pointer-events="none"/><g transform="translate(-0.5 -0.5)"><switch><foreignObject pointer-events="none" width="100%" height="100%" requiredFeatures="http://www.w3.org/TR/SVG11/feature#Extensibility" style="overflow: visible; text-align: left;"><div xmlns="http://www.w3.org/1999/xhtml" style="display: flex; align-items: unsafe flex-start; justify-content: unsafe center; width: 212px; height: 1px; padding-top: 370px; margin-left: 4px;"><div data-drawio-colors="color: rgb(0, 0, 0); " style="box-sizing: border-box; font-size: 0px; text-align: center; max-height: 180px; overflow: hidden;"><div style="display: inline-block; font-size: 12px; font-family: 霞鹜文楷; color: rgb(0, 0, 0); line-height: 1.2; pointer-events: none; white-space: normal; overflow-wrap: normal;"><h1 style="">抽象工厂</h1><h4 style="">提供组合工厂的方法</h4><p><br /></p></div></div></div></foreignObject><text x="110" y="382" fill="rgb(0, 0, 0)" font-family="霞鹜文楷" font-size="12px" text-anchor="middle">抽象工厂提供组合工厂的方法...</text></switch></g><path d="M 23.48 469.94 L 110.18 468.86 L 114.82 473.79 L 113.28 478.62 L 114.76 516.28 L 111.41 517.47 L 109.31 520.85 L 21.08 520.52 L 15.01 519.76 L 16.99 511.96 L 14.43 476.51 L 14.99 473.54 L 20.88 468.65" fill="rgb(255, 255, 255)" stroke="none" pointer-events="none"/><path d="M 22.5 470 M 22.5 470 C 48.6 471.48 75.73 471.41 107.5 470 M 22.5 470 C 44.18 469.83 63.65 470.04 107.5 470 M 107.5 470 C 113.14 471.62 113.92 472.33 115 477.5 M 107.5 470 C 110.33 467.73 114.71 474.44 115 477.5 M 115 477.5 C 116.37 483.13 112.92 491.13 115 512.5 M 115 477.5 C 115.05 486.41 114.58 493.19 115 512.5 M 115 512.5 C 115.44 516.65 112.25 518.03 107.5 520 M 115 512.5 C 115.02 517.32 111.35 521.58 107.5 520 M 107.5 520 C 81.41 520.5 54.2 518.1 22.5 520 M 107.5 520 C 86.28 520.19 65.62 519.41 22.5 520 M 22.5 520 C 18.15 518.18 13.63 519.26 15 512.5 M 22.5 520 C 16.38 520.36 13.65 516.27 15 512.5 M 15 512.5 C 16.05 497.35 16.66 485.27 15 477.5 M 15 512.5 C 15.09 505.05 15.17 495.58 15 477.5 M 15 477.5 C 14.71 472.69 15.96 469.51 22.5 470 M 15 477.5 C 14.43 474.77 15.24 472.19 22.5 470" fill="none" stroke="rgb(0, 0, 0)" stroke-linejoin="round" stroke-linecap="round" stroke-miterlimit="10" pointer-events="none"/><g transform="translate(-0.5 -0.5)"><switch><foreignObject pointer-events="none" width="100%" height="100%" requiredFeatures="http://www.w3.org/TR/SVG11/feature#Extensibility" style="overflow: visible; text-align: left;"><div xmlns="http://www.w3.org/1999/xhtml" style="display: flex; align-items: unsafe center; justify-content: unsafe center; width: 98px; height: 1px; padding-top: 495px; margin-left: 16px;"><div data-drawio-colors="color: rgb(0, 0, 0); " style="box-sizing: border-box; font-size: 0px; text-align: center;"><div style="display: inline-block; font-size: 12px; font-family: 霞鹜文楷; color: rgb(0, 0, 0); line-height: 1.2; pointer-events: none; white-space: normal; overflow-wrap: normal;"><h3>抽象工厂</h3></div></div></div></foreignObject><text x="65" y="499" fill="rgb(0, 0, 0)" font-family="霞鹜文楷" font-size="12px" text-anchor="middle">抽象工厂</text></switch></g><path d="M 156.98 455.28 L 185.8 456.25 L 189.15 456.09 L 191.44 459.56 L 190.5 490.7 L 189.17 493.28 L 183.35 494.71 L 154.57 494.52 L 152.52 494.76 L 150.16 490.95 L 150.26 459.52 L 149.97 455.25 L 156.84 453.19" fill="rgb(255, 255, 255)" stroke="none" pointer-events="none"/><path d="M 156 455 M 156 455 C 164.55 455.88 173.94 456.58 184 455 M 156 455 C 164.99 454.46 174.42 454.6 184 455 M 184 455 C 189.17 454.67 191.74 455.54 190 461 M 184 455 C 186.19 455.63 189.68 457.85 190 461 M 190 461 C 188.17 468.98 188.25 478.41 190 489 M 190 461 C 189.75 466.43 190.13 473.3 190 489 M 190 489 C 190.03 494.13 187.63 495.12 184 495 M 190 489 C 192.01 492.19 189.01 493.45 184 495 M 184 495 C 174.49 493.9 163.4 494.12 156 495 M 184 495 C 179.02 495.47 172.38 495.03 156 495 M 156 495 C 150.11 493.38 151.51 494.73 150 489 M 156 495 C 151.34 497 152.15 491.55 150 489 M 150 489 C 150.5 479.47 149.81 472 150 461 M 150 489 C 151.1 478.77 150.79 468.08 150 461 M 150 461 C 150.45 457.03 153.7 455.39 156 455 M 150 461 C 147.95 458.21 150.98 455.21 156 455" fill="none" stroke="rgb(0, 0, 0)" stroke-linejoin="round" stroke-linecap="round" stroke-miterlimit="10" pointer-events="none"/><g transform="translate(-0.5 -0.5)"><switch><foreignObject pointer-events="none" width="100%" height="100%" requiredFeatures="http://www.w3.org/TR/SVG11/feature#Extensibility" style="overflow: visible; text-align: left;"><div xmlns="http://www.w3.org/1999/xhtml" style="display: flex; align-items: unsafe center; justify-content: unsafe center; width: 38px; height: 1px; padding-top: 475px; margin-left: 151px;"><div data-drawio-colors="color: rgb(0, 0, 0); " style="box-sizing: border-box; font-size: 0px; text-align: center;"><div style="display: inline-block; font-size: 12px; font-family: 霞鹜文楷; color: rgb(0, 0, 0); line-height: 1.2; pointer-events: none; white-space: normal; overflow-wrap: normal;"><h3>产品接口</h3></div></div></div></foreignObject><text x="170" y="479" fill="rgb(0, 0, 0)" font-family="霞鹜文楷" font-size="12px" text-anchor="middle">产品接口</text></switch></g><path d="M 115 495 M 115 495 C 129.31 495.62 135.21 491.78 135 485 M 115 495 C 127.89 496.46 135.69 491.67 135 485 M 135 485 C 135.77 477.24 136.94 475.2 143.63 475 M 135 485 C 136.03 476.69 137.04 472.76 143.63 475" fill="none" stroke="rgb(0, 0, 0)" stroke-linejoin="round" stroke-linecap="round" stroke-miterlimit="10" pointer-events="none"/><path d="M 142.09 471.26 C 142.09 471.26 142.09 471.26 142.09 471.26 M 142.09 471.26 C 142.09 471.26 142.09 471.26 142.09 471.26 M 143.8 475.39 C 144.47 474.55 144.92 474.37 145.76 473.13 M 143.8 475.39 C 144.15 475.07 144.65 474.35 145.76 473.13" fill="none" stroke="rgb(0, 0, 0)" stroke-width="0.5" stroke-linejoin="round" stroke-linecap="round" stroke-miterlimit="10" pointer-events="none"/><path d="M 148.88 475 M 148.88 475 C 146.24 475.8 144.82 477.34 141.88 478.5 M 148.88 475 C 146.82 475.88 144.98 477.41 141.88 478.5 M 141.88 478.5 C 142.25 477.31 142.96 476.53 143.63 475 M 141.88 478.5 C 142.56 477.61 142.88 476.5 143.63 475 M 143.63 475 C 143.27 473.76 142.52 472.98 141.88 471.5 M 143.63 475 C 143.14 473.97 142.62 473.19 141.88 471.5 M 141.88 471.5 C 143.42 472.89 145.74 473.4 148.88 475 M 141.88 471.5 C 144.51 472.97 147.21 474.24 148.88 475" fill="none" stroke="rgb(0, 0, 0)" stroke-linejoin="round" stroke-linecap="round" stroke-miterlimit="10" pointer-events="none"/><path d="M 282.98 380.78 L 349.93 380.68 L 355.75 384.6 L 360.52 390.56 L 359.25 447.86 L 357.48 455.45 L 349.94 459.3 L 282.13 458.75 L 273.99 456.94 L 268.48 448.15 L 271.43 387.35 L 272.22 384.66 L 280.24 378.61" fill="#a20025" stroke="none" pointer-events="none"/><path d="M 282 380 M 282 380 C 295.86 378.65 313.79 378.64 348 380 M 282 380 C 297.35 380.47 311.31 381.1 348 380 M 348 380 C 354.45 379.04 360.08 382.15 360 392 M 348 380 C 354 379.54 359.07 385.22 360 392 M 360 392 C 362.18 409.56 362.26 429.31 360 448 M 360 392 C 359.49 404.67 359.25 415.55 360 448 M 360 448 C 361.83 454.75 356.57 460.21 348 460 M 360 448 C 361.33 457.82 355.71 458.43 348 460 M 348 460 C 325.21 461.32 301.23 458.88 282 460 M 348 460 C 327.29 460.55 307.64 460.81 282 460 M 282 460 C 272.63 459.36 271.55 457.14 270 448 M 282 460 C 275.63 461.47 267.71 453.72 270 448 M 270 448 C 270.47 429.53 269.41 411.91 270 392 M 270 448 C 270.68 431.95 270.68 414.35 270 392 M 270 392 C 268.97 384 272.57 378.2 282 380 M 270 392 C 272.22 381.93 271.75 381.23 282 380" fill="none" stroke="#6f0000" stroke-linejoin="round" stroke-linecap="round" stroke-miterlimit="10" pointer-events="none"/><g transform="translate(-0.5 -0.5)"><switch><foreignObject pointer-events="none" width="100%" height="100%" requiredFeatures="http://www.w3.org/TR/SVG11/feature#Extensibility" style="overflow: visible; text-align: left;"><div xmlns="http://www.w3.org/1999/xhtml" style="display: flex; align-items: unsafe center; justify-content: unsafe center; width: 88px; height: 1px; padding-top: 420px; margin-left: 271px;"><div data-drawio-colors="color: #ffffff; " style="box-sizing: border-box; font-size: 0px; text-align: center;"><div style="display: inline-block; font-size: 12px; font-family: 霞鹜文楷; color: rgb(255, 255, 255); line-height: 1.2; pointer-events: none; white-space: normal; overflow-wrap: normal;">工厂X</div></div></div></foreignObject><text x="315" y="424" fill="#ffffff" font-family="霞鹜文楷" font-size="12px" text-anchor="middle">工厂X</text></switch></g><path d="M 190 475 M 190 475 C 217.65 476.02 230.52 465.38 230 447.5 M 190 475 C 218.34 472.8 228.15 463.99 230 447.5 M 230 447.5 C 230.96 428.46 239.82 421.83 263.63 420 M 230 447.5 C 231.73 427.3 242.85 422.07 263.63 420" fill="none" stroke="#6f0000" stroke-linejoin="round" stroke-linecap="round" stroke-miterlimit="10" pointer-events="none"/><path d="M 261.93 416.44 C 261.93 416.44 261.93 416.44 261.93 416.44 M 261.93 416.44 C 261.93 416.44 261.93 416.44 261.93 416.44 M 263.64 420.57 C 264.13 419.83 265.34 418.8 265.61 418.31 M 263.64 420.57 C 264.17 419.99 264.88 419.14 265.61 418.31" fill="none" stroke="#6f0000" stroke-width="0.5" stroke-linejoin="round" stroke-linecap="round" stroke-miterlimit="10" pointer-events="none"/><path d="M 268.88 420 M 268.88 420 C 266.77 420.26 265.59 422.19 261.88 423.5 M 268.88 420 C 266.64 421.23 264.18 422.66 261.88 423.5 M 261.88 423.5 C 262.22 421.89 262.98 421.06 263.63 420 M 261.88 423.5 C 262.35 422.79 262.47 422.15 263.63 420 M 263.63 420 C 263.11 419.12 262.57 418.04 261.88 416.5 M 263.63 420 C 263.23 419.44 262.82 418.59 261.88 416.5 M 261.88 416.5 C 262.98 417.25 264.92 417.94 268.88 420 M 261.88 416.5 C 264.36 418.04 267.4 418.96 268.88 420" fill="none" stroke="#6f0000" stroke-linejoin="round" stroke-linecap="round" stroke-miterlimit="10" pointer-events="none"/><path d="M 276.98 501.46 L 355.37 498.77 L 359.18 502.46 L 358.85 507.44 L 359.41 534.9 L 359.77 537.81 L 355.03 541.02 L 274.91 539.43 L 270.25 537.7 L 268.83 535.12 L 268.92 507.17 L 271.42 501.31 L 275.16 501.68" fill="#fa6800" stroke="none" pointer-events="none"/><path d="M 276 500 M 276 500 C 298.22 498.52 316.14 500.05 354 500 M 276 500 C 303.28 500.26 332.46 498.76 354 500 M 354 500 C 357.51 499.15 361.71 501.56 360 506 M 354 500 C 356.72 500.74 359.02 501.04 360 506 M 360 506 C 358.41 516.43 361.53 523.18 360 534 M 360 506 C 359.44 516.74 358.92 526.8 360 534 M 360 534 C 361.01 536.72 358.33 540.38 354 540 M 360 534 C 360.72 538.56 357.42 541.38 354 540 M 354 540 C 328.38 542.03 304.63 540.82 276 540 M 354 540 C 335.74 541.08 318.11 540.03 276 540 M 276 540 C 273.55 539.76 269.31 539.09 270 534 M 276 540 C 269.95 540.14 270.11 539.88 270 534 M 270 534 C 269.55 524.56 269.9 513.95 270 506 M 270 534 C 270.12 524.99 269.34 513.54 270 506 M 270 506 C 270.46 501.68 273.04 499.95 276 500 M 270 506 C 269.24 502.43 272.22 501.86 276 500" fill="none" stroke="#c73500" stroke-linejoin="round" stroke-linecap="round" stroke-miterlimit="10" pointer-events="none"/><g transform="translate(-0.5 -0.5)"><switch><foreignObject pointer-events="none" width="100%" height="100%" requiredFeatures="http://www.w3.org/TR/SVG11/feature#Extensibility" style="overflow: visible; text-align: left;"><div xmlns="http://www.w3.org/1999/xhtml" style="display: flex; align-items: unsafe center; justify-content: unsafe center; width: 88px; height: 1px; padding-top: 520px; margin-left: 271px;"><div data-drawio-colors="color: #000000; " style="box-sizing: border-box; font-size: 0px; text-align: center;"><div style="display: inline-block; font-size: 12px; font-family: 霞鹜文楷; color: rgb(0, 0, 0); line-height: 1.2; pointer-events: none; white-space: normal; overflow-wrap: normal;"><font color="#ffffff">工厂C</font></div></div></div></foreignObject><text x="315" y="524" fill="#000000" font-family="霞鹜文楷" font-size="12px" text-anchor="middle">工厂C</text></switch></g><path d="M 435.48 378.14 L 475.05 380.11 L 477.48 381.45 L 481.17 384.82 L 479.2 409.56 L 473.55 410.16 L 434.61 408.75 L 430.07 409.74 L 430.51 382.95 L 430.3 379.23 L 435.1 380.18" fill="#e51400" stroke="none" pointer-events="none"/><path d="M 434.5 380 M 434.5 380 C 448.82 379.71 462.63 379.12 475.5 380 M 434.5 380 C 449.03 380.33 465.74 379.84 475.5 380 M 475.5 380 C 478.25 378.33 481.89 380.6 480 384.5 M 475.5 380 C 479.16 379.14 479.24 382.61 480 384.5 M 480 384.5 C 481.45 389.91 481.27 397.09 480 405.5 M 480 384.5 C 479.77 390.08 479.19 394.74 480 405.5 M 480 405.5 C 479.33 409.13 480.21 408.08 475.5 410 M 480 405.5 C 480.22 406.99 478.6 410.62 475.5 410 M 475.5 410 C 462.75 409.53 448.56 411.45 434.5 410 M 475.5 410 C 458.59 410.7 444.14 409.61 434.5 410 M 434.5 410 C 431.9 410.83 431.23 408.63 430 405.5 M 434.5 410 C 432.04 410.18 431.24 409.7 430 405.5 M 430 405.5 C 431.37 401.5 431.63 395.55 430 384.5 M 430 405.5 C 429.31 401.49 430.19 396.04 430 384.5 M 430 384.5 C 428.05 383.24 430.44 380.82 434.5 380 M 430 384.5 C 432.23 380.76 430.93 381.95 434.5 380" fill="none" stroke="#b20000" stroke-linejoin="round" stroke-linecap="round" stroke-miterlimit="10" pointer-events="none"/><path d="M 360 420 M 360 420 C 384.32 421.19 393.25 415.95 395 407.5 M 360 420 C 384.01 418.18 393.06 416.93 395 407.5 M 395 407.5 C 394.44 399.41 404.56 395.07 423.63 395 M 395 407.5 C 393.33 398.13 402.58 393.28 423.63 395" fill="none" stroke="#6f0000" stroke-linejoin="round" stroke-linecap="round" stroke-miterlimit="10" pointer-events="none"/><path d="M 422.04 391.31 C 422.04 391.31 422.04 391.31 422.04 391.31 M 422.04 391.31 C 422.04 391.31 422.04 391.31 422.04 391.31 M 423.75 395.45 C 424.43 395.07 424.83 394.4 425.72 393.18 M 423.75 395.45 C 424.51 394.64 425.16 393.88 425.72 393.18" fill="none" stroke="#6f0000" stroke-width="0.5" stroke-linejoin="round" stroke-linecap="round" stroke-miterlimit="10" pointer-events="none"/><path d="M 428.88 395 M 428.88 395 C 426.82 396.78 424.9 397.4 421.88 398.5 M 428.88 395 C 426.73 395.97 423.84 397.06 421.88 398.5 M 421.88 398.5 C 422.27 397.65 423.13 396.01 423.63 395 M 421.88 398.5 C 422.26 397.67 422.83 396.94 423.63 395 M 423.63 395 C 423.24 393.99 422.56 393.27 421.88 391.5 M 423.63 395 C 423.05 393.71 422.26 392.21 421.88 391.5 M 421.88 391.5 C 423.72 392.62 426.69 393.03 428.88 395 M 421.88 391.5 C 424.31 392.79 426.14 393.6 428.88 395" fill="none" stroke="#6f0000" stroke-linejoin="round" stroke-linecap="round" stroke-miterlimit="10" pointer-events="none"/><g transform="translate(-0.5 -0.5)"><switch><foreignObject pointer-events="none" width="100%" height="100%" requiredFeatures="http://www.w3.org/TR/SVG11/feature#Extensibility" style="overflow: visible; text-align: left;"><div xmlns="http://www.w3.org/1999/xhtml" style="display: flex; align-items: unsafe center; justify-content: unsafe center; width: 1px; height: 1px; padding-top: 395px; margin-left: 510px;"><div data-drawio-colors="color: #FF0000; " style="box-sizing: border-box; font-size: 0px; text-align: center;"><div style="display: inline-block; font-size: 12px; font-family: 霞鹜文楷; color: rgb(255, 0, 0); line-height: 1.2; pointer-events: none; white-space: nowrap;">产品A</div></div></div></foreignObject><text x="510" y="399" fill="#FF0000" font-family="霞鹜文楷" font-size="12px" text-anchor="middle">产品A</text></switch></g><path d="M 435.48 439.16 L 474.27 440.68 L 478.37 442.49 L 478.66 445.14 L 480.01 469.18 L 476.73 471.44 L 435.24 469.34 L 432.18 469.33 L 431.14 445.83 L 432.82 442.69 L 433.62 438.7" fill="#a20025" stroke="none" pointer-events="none"/><path d="M 434.5 440 M 434.5 440 C 449.58 440.59 464.24 440.94 475.5 440 M 434.5 440 C 449.44 439.94 463.1 440.62 475.5 440 M 475.5 440 C 478.04 439.54 481.34 441.44 480 444.5 M 475.5 440 C 476.39 441.63 479.75 442.75 480 444.5 M 480 444.5 C 478.56 452.26 478.32 456.49 480 465.5 M 480 444.5 C 480.14 450.35 479.45 458.08 480 465.5 M 480 465.5 C 479.67 470.26 477.68 471.67 475.5 470 M 480 465.5 C 478.81 469.24 478.18 468.61 475.5 470 M 475.5 470 C 460.11 471.02 445.38 469.2 434.5 470 M 475.5 470 C 466.78 469.56 456.98 470.55 434.5 470 M 434.5 470 C 431.21 470.82 428.57 466.71 430 465.5 M 434.5 470 C 432.48 470.86 431.98 469.61 430 465.5 M 430 465.5 C 430.77 459 428.3 453.81 430 444.5 M 430 465.5 C 429.53 458.52 430.03 450.68 430 444.5 M 430 444.5 C 431.4 441.64 431.46 438.95 434.5 440 M 430 444.5 C 430.19 440.21 432.89 440.36 434.5 440" fill="none" stroke="#6f0000" stroke-linejoin="round" stroke-linecap="round" stroke-miterlimit="10" pointer-events="none"/><path d="M 360 420 M 360 420 C 384.32 421.53 395.66 424.81 395 437.5 M 360 420 C 382.81 420.11 396.69 423.98 395 437.5 M 395 437.5 C 394.71 450.62 402.96 455.5 423.63 455 M 395 437.5 C 395.1 451.43 403.39 456.19 423.63 455" fill="none" stroke="#6f0000" stroke-linejoin="round" stroke-linecap="round" stroke-miterlimit="10" pointer-events="none"/><path d="M 421.57 451.86 C 421.57 451.86 421.57 451.86 421.57 451.86 M 421.57 451.86 C 421.57 451.86 421.57 451.86 421.57 451.86 M 423.93 455.23 C 424.6 454.52 424.89 454.16 425.9 452.97 M 423.93 455.23 C 424.52 454.44 424.96 454.01 425.9 452.97" fill="none" stroke="#6f0000" stroke-width="0.5" stroke-linejoin="round" stroke-linecap="round" stroke-miterlimit="10" pointer-events="none"/><path d="M 428.88 455 M 428.88 455 C 426.85 455.54 425.97 456.6 421.88 458.5 M 428.88 455 C 426.12 456.18 423.35 457.76 421.88 458.5 M 421.88 458.5 C 422.68 457.85 422.76 456.77 423.63 455 M 421.88 458.5 C 422.61 457.12 423.1 455.83 423.63 455 M 423.63 455 C 422.62 454.08 421.97 452.66 421.88 451.5 M 423.63 455 C 423.01 453.99 422.41 453.02 421.88 451.5 M 421.88 451.5 C 424.91 452.19 427.33 453.92 428.88 455 M 421.88 451.5 C 423.81 452.64 425.77 453.46 428.88 455" fill="none" stroke="#6f0000" stroke-linejoin="round" stroke-linecap="round" stroke-miterlimit="10" pointer-events="none"/><g transform="translate(-0.5 -0.5)"><switch><foreignObject pointer-events="none" width="100%" height="100%" requiredFeatures="http://www.w3.org/TR/SVG11/feature#Extensibility" style="overflow: visible; text-align: left;"><div xmlns="http://www.w3.org/1999/xhtml" style="display: flex; align-items: unsafe center; justify-content: unsafe center; width: 1px; height: 1px; padding-top: 455px; margin-left: 510px;"><div data-drawio-colors="color: #990000; " style="box-sizing: border-box; font-size: 0px; text-align: center;"><div style="display: inline-block; font-size: 12px; font-family: 霞鹜文楷; color: rgb(153, 0, 0); line-height: 1.2; pointer-events: none; white-space: nowrap;">产品B</div></div></div></foreignObject><text x="510" y="459" fill="#990000" font-family="霞鹜文楷" font-size="12px" text-anchor="middle">产品B</text></switch></g><path d="M 435.48 503.98 L 473.59 503.4 L 478.54 506.13 L 479.42 511.26 L 478.22 533.93 L 475.75 534.26 L 434.74 536.2 L 432.34 532.5 L 429.36 510.26 L 430.79 504.91 L 432.92 504.33" fill="#fa6800" stroke="none" pointer-events="none"/><path d="M 434.5 505 M 434.5 505 C 451.03 503.25 467.72 504.13 475.5 505 M 434.5 505 C 446.76 505.08 459.98 505.44 475.5 505 M 475.5 505 C 477.73 505.77 478.48 504.87 480 509.5 M 475.5 505 C 476.64 505.78 480.57 505.68 480 509.5 M 480 509.5 C 480.57 513.52 479.81 521.39 480 530.5 M 480 509.5 C 480.61 515.05 481.11 521.2 480 530.5 M 480 530.5 C 478.27 534.65 479.64 534.8 475.5 535 M 480 530.5 C 481.82 531.54 479.55 533.53 475.5 535 M 475.5 535 C 461.67 535.36 444.66 536.87 434.5 535 M 475.5 535 C 459.45 534.15 445.21 535 434.5 535 M 434.5 535 C 431.24 535.74 430.89 531.63 430 530.5 M 434.5 535 C 429.71 536.53 429.99 533.98 430 530.5 M 430 530.5 C 430.35 522.58 429.62 515.59 430 509.5 M 430 530.5 C 428.9 525.24 429.79 520.2 430 509.5 M 430 509.5 C 429.08 507.7 431.31 505.63 434.5 505 M 430 509.5 C 431.39 505.55 431.06 505.44 434.5 505" fill="none" stroke="#c73500" stroke-linejoin="round" stroke-linecap="round" stroke-miterlimit="10" pointer-events="none"/><path d="M 360 520 M 360 520 C 360.98 521.7 382.54 521.26 423.63 520 M 360 520 C 359.29 521.67 382.04 521.47 423.63 520" fill="none" stroke="#c73500" stroke-linejoin="round" stroke-linecap="round" stroke-miterlimit="10" pointer-events="none"/><path d="M 421.61 516.81 C 421.61 516.81 421.61 516.81 421.61 516.81 M 421.61 516.81 C 421.61 516.81 421.61 516.81 421.61 516.81 M 423.97 520.19 C 424.47 519.94 424.48 519.59 425.28 518.68 M 423.97 520.19 C 424.3 519.85 424.68 519.31 425.28 518.68" fill="none" stroke="#c73500" stroke-width="0.5" stroke-linejoin="round" stroke-linecap="round" stroke-miterlimit="10" pointer-events="none"/><path d="M 428.88 520 M 428.88 520 C 426.99 521.61 423.36 522 421.88 523.5 M 428.88 520 C 426.89 520.95 425.29 521.88 421.88 523.5 M 421.88 523.5 C 422.19 522.32 422.95 521.84 423.63 520 M 421.88 523.5 C 422.39 522.39 423.15 521.33 423.63 520 M 423.63 520 C 423.07 519.21 422.93 518.21 421.88 516.5 M 423.63 520 C 423.18 519.34 422.8 518.46 421.88 516.5 M 421.88 516.5 C 424.02 517.26 425.03 518.33 428.88 520 M 421.88 516.5 C 424 517.74 426.53 518.68 428.88 520" fill="none" stroke="#c73500" stroke-linejoin="round" stroke-linecap="round" stroke-miterlimit="10" pointer-events="none"/><g transform="translate(-0.5 -0.5)"><switch><foreignObject pointer-events="none" width="100%" height="100%" requiredFeatures="http://www.w3.org/TR/SVG11/feature#Extensibility" style="overflow: visible; text-align: left;"><div xmlns="http://www.w3.org/1999/xhtml" style="display: flex; align-items: unsafe center; justify-content: unsafe center; width: 1px; height: 1px; padding-top: 520px; margin-left: 510px;"><div data-drawio-colors="color: #FF8000; " style="box-sizing: border-box; font-size: 0px; text-align: center;"><div style="display: inline-block; font-size: 12px; font-family: 霞鹜文楷; color: rgb(255, 128, 0); line-height: 1.2; pointer-events: none; white-space: nowrap;">产品C</div></div></div></foreignObject><text x="510" y="524" fill="#FF8000" font-family="霞鹜文楷" font-size="12px" text-anchor="middle">产品C</text></switch></g><path d="M 190 520 M 190 520 C 190.98 521.36 213.47 518.4 263.63 520 M 190 520 C 190.48 519.73 216.33 519.81 263.63 520" fill="none" stroke="#c73500" stroke-linejoin="round" stroke-linecap="round" stroke-miterlimit="10" pointer-events="none"/><path d="M 261.59 516.84 C 261.59 516.84 261.59 516.84 261.59 516.84 M 261.59 516.84 C 261.59 516.84 261.59 516.84 261.59 516.84 M 263.95 520.22 C 264.03 519.79 264.51 519.62 265.26 518.71 M 263.95 520.22 C 264.39 519.84 264.72 519.28 265.26 518.71" fill="none" stroke="#c73500" stroke-width="0.5" stroke-linejoin="round" stroke-linecap="round" stroke-miterlimit="10" pointer-events="none"/><path d="M 268.88 520 M 268.88 520 C 265.4 521.29 263.86 522.8 261.88 523.5 M 268.88 520 C 266.1 521.44 262.98 522.58 261.88 523.5 M 261.88 523.5 C 262.63 522.09 262.61 521.04 263.63 520 M 261.88 523.5 C 262.31 522.24 263.12 521.04 263.63 520 M 263.63 520 C 263.27 519.21 262.76 517.42 261.88 516.5 M 263.63 520 C 263.22 519.05 262.66 518.04 261.88 516.5 M 261.88 516.5 C 264.24 516.82 265.63 518.83 268.88 520 M 261.88 516.5 C 264.57 517.89 266.96 518.82 268.88 520" fill="none" stroke="#c73500" stroke-linejoin="round" stroke-linecap="round" stroke-miterlimit="10" pointer-events="none"/><path d="M 156.98 500.34 L 183.71 501.83 L 188.02 500.23 L 190.07 505.51 L 190.42 534.88 L 190.32 539.47 L 182.42 540.65 L 156.02 540.74 L 150.37 537.77 L 150.36 534.74 L 151.78 507.35 L 150.62 499.76 L 157.76 498.86" fill="rgb(255, 255, 255)" stroke="none" pointer-events="none"/><path d="M 156 500 M 156 500 C 162.49 498.27 170.58 500.49 184 500 M 156 500 C 166.54 499.26 175.68 499.82 184 500 M 184 500 C 188.51 500.89 189.75 500.1 190 506 M 184 500 C 189.06 501.56 188.23 502.99 190 506 M 190 506 C 190.67 514.49 190.43 525.54 190 534 M 190 506 C 189.37 516.96 190.23 528.88 190 534 M 190 534 C 189.95 536.23 188.42 539.05 184 540 M 190 534 C 190.22 536.77 187.41 537.86 184 540 M 184 540 C 176.31 539.5 167.62 541.93 156 540 M 184 540 C 177.13 540.17 168.13 540.26 156 540 M 156 540 C 152.29 538.13 149.52 538.32 150 534 M 156 540 C 150.86 541.86 151.79 537.53 150 534 M 150 534 C 150.66 524.14 149.57 512.82 150 506 M 150 534 C 149.75 524.8 150.57 512.94 150 506 M 150 506 C 150.17 500.53 152.55 499.87 156 500 M 150 506 C 147.72 500.99 150.46 498.2 156 500" fill="none" stroke="rgb(0, 0, 0)" stroke-linejoin="round" stroke-linecap="round" stroke-miterlimit="10" pointer-events="none"/><g transform="translate(-0.5 -0.5)"><switch><foreignObject pointer-events="none" width="100%" height="100%" requiredFeatures="http://www.w3.org/TR/SVG11/feature#Extensibility" style="overflow: visible; text-align: left;"><div xmlns="http://www.w3.org/1999/xhtml" style="display: flex; align-items: unsafe center; justify-content: unsafe center; width: 38px; height: 1px; padding-top: 520px; margin-left: 151px;"><div data-drawio-colors="color: rgb(0, 0, 0); " style="box-sizing: border-box; font-size: 0px; text-align: center;"><div style="display: inline-block; font-size: 12px; font-family: 霞鹜文楷; color: rgb(0, 0, 0); line-height: 1.2; pointer-events: none; white-space: normal; overflow-wrap: normal;"><h3>产品接口</h3></div></div></div></foreignObject><text x="170" y="524" fill="rgb(0, 0, 0)" font-family="霞鹜文楷" font-size="12px" text-anchor="middle">产品接口</text></switch></g><path d="M 115 495 M 115 495 C 129.31 495.68 133.12 499.85 135 507.5 M 115 495 C 126.59 495.47 134.12 500.26 135 507.5 M 135 507.5 C 135.69 513.92 138.09 521.4 143.63 520 M 135 507.5 C 134.95 515.28 138.71 519.16 143.63 520" fill="none" stroke="rgb(0, 0, 0)" stroke-linejoin="round" stroke-linecap="round" stroke-miterlimit="10" pointer-events="none"/><path d="M 142.06 516.29 C 142.06 516.29 142.06 516.29 142.06 516.29 M 142.06 516.29 C 142.06 516.29 142.06 516.29 142.06 516.29 M 143.77 520.42 C 144.28 519.42 144.99 518.67 145.74 518.16 M 143.77 520.42 C 144.47 519.53 145.09 518.96 145.74 518.16" fill="none" stroke="rgb(0, 0, 0)" stroke-width="0.5" stroke-linejoin="round" stroke-linecap="round" stroke-miterlimit="10" pointer-events="none"/><path d="M 148.88 520 M 148.88 520 C 146.74 521.51 144.52 521.42 141.88 523.5 M 148.88 520 C 146.46 521.01 144.68 521.96 141.88 523.5 M 141.88 523.5 C 142.24 522.38 142.65 521.7 143.63 520 M 141.88 523.5 C 142.27 522.64 142.83 521.86 143.63 520 M 143.63 520 C 143.31 518.32 142.39 517.25 141.88 516.5 M 143.63 520 C 143.27 518.76 142.67 517.78 141.88 516.5 M 141.88 516.5 C 144.76 518.38 147.08 518.44 148.88 520 M 141.88 516.5 C 143.53 517.49 145.03 518.48 148.88 520" fill="none" stroke="rgb(0, 0, 0)" stroke-linejoin="round" stroke-linecap="round" stroke-miterlimit="10" pointer-events="none"/></g><switch><g requiredFeatures="http://www.w3.org/TR/SVG11/feature#Extensibility"/><a transform="translate(0,-5)" xlink:href="https://www.diagrams.net/doc/faq/svg-export-text-problems" target="_blank"><text text-anchor="middle" font-size="10px" x="50%" y="100%">Text is not SVG - cannot display</text></a></switch></svg>