<?xml version="1.0" encoding="UTF-8"?>
<!-- Do not edit this file with editors other than diagrams.net -->
<!DOCTYPE svg PUBLIC "-//W3C//DTD SVG 1.1//EN" "http://www.w3.org/Graphics/SVG/1.1/DTD/svg11.dtd">
<svg xmlns="http://www.w3.org/2000/svg" xmlns:xlink="http://www.w3.org/1999/xlink" version="1.1" width="1663px" height="611px" viewBox="-0.5 -0.5 1663 611" content="&lt;mxfile host=&quot;Electron&quot; modified=&quot;2022-08-29T22:24:42.103Z&quot; agent=&quot;5.0 (Windows NT 10.0; Win64; x64) AppleWebKit/537.36 (KHTML, like Gecko) draw.io/20.2.3 Chrome/102.0.5005.167 Electron/19.0.11 Safari/537.36&quot; version=&quot;20.2.3&quot; etag=&quot;Kec5rMb_fYOf14Y_A_Rg&quot; type=&quot;device&quot;&gt;&lt;diagram id=&quot;bIqv3B-Kq4KfqPeXB1ry&quot; name=&quot;第 1 页&quot;&gt;7Zxbc6M2FMc/jR+9g8TF+NF24mZ32mmmedj2qSODbGgAeYUc2/vpK4EExiiXTkwgrvJi6aALOvr9jySMM7IX6eEXirbRbyTEyQha4WFk34wghB6Y8g9hOZYW4Eyc0rKhcShtteEh/oml0ZLWXRzivFGQEZKweNs0BiTLcMAaNkQp2TeLrUnS7HWLNrJHqzY8BCjBrWLf45BFpdWHk9p+h+NNpHoGnhzxCgWPG0p2mewvIxkur6RINSO7zCMUkv2Jyb4d2QtKCCtT6WGBE+FX5bGy3vKZq9UtU5yxt1TIfyTZ979Tz/njOP4nhYtvP3/ejeU0PaFkJ10hb5YdlW+K0WHRCBjZ830UM/ywRYG4uuc4cFvE0kRezh8xCyKZCVEeVRVzRskjXpCE0KJde7mc8j9+Rd4Cpgwfnh0bqDzGKcQkxYweeRFVYep/cctKEkFnIt2+r+fT9YAqFZ3OpiWLIknRpmq/didPSI/+B+/C6/CurxCWvh07Gt8qf596FvoX8GzGw42ncaSX8F7m24Y7vR87Iad5iugmzkb2zNoequyYEe7PmVOYuDfYGCXxRpQKuCMwLZylWuCpjfws+lkpw2zFfY0CNguf4pzQ2Y6Re0oOxwXFiHHvy/J8VKvzNrhte26LqBiACoiqd3B6I8u6zhk8YlZjHsVm5ThuigHO5ahuErwWtQgvtU6KyLOOhZfna5IxGYOBI/NLlMaJmN87nDxh0WoTvZpTS+CmYpnIBCSNA5lO0Aon8yooKiCLsKgoVRG2RfQzXGrofRZV6HkNVG04baHq2Jog4FyIVGuApBpEh4SobfkNRKEDW4jaLugOUTAgRLOMMMRiks323KezfMt3d98MsIMClpPXANa17Pbyr44AnQDbf1CNTwwoFUQk7VwsmlmLzZsyN6ucgxu3dEEbZJ6LhWy/ZmuK+IzvArajeI5RZrTRbzCHzf0GcN12MAe6/YZ3GW24vUuj5lNG7yKSm93xAGmtthrqkAy89u7Yt7uL5LrHDf/DQC4UYqTQqxTGbnNT4/ktJQCoU8KF4vbEKIEnxA5mkaA8/5WgEFMjjP6FYb++n7E61AXo/3Q6FGEsUcC3TEcjiv5FMYYT+KouoNvhPt83spCyuCc542eKAOe5OVD0rIvp2eP2MWg/bofepDtZ2EYWPPE1yxnKWFw/STVCGZZQfLf50F9z3NAfvC+kk6nRCU/8Tvkhg8NitNCnFjwPvLqXAk6HiwY0YuCJBz4OZlaOoavFh/6ranGdjpYOHG60ajmbNa1XRU7Uf5DlCGUR2ZAMJbe1tX6LqZgExpGciff5ag/jLFSWVUKCx9KkJhtWc3Dy7pPF/3xxBR9i9qdo+4trWTL/V5G3LCDzNwfZeZE5qkzGPdWoKgyiLlB1haGuXORU7bcxkJMdDXAdluR8cR9sMKvN8tG7cOWLvJzyoHkXS9koTrjYn3DjVnSMFD1w16PjSYEt4VEpbyFU3cabqdJ+p9sBVuCSWPmwwujzYGXpsQLXyZVuo2uw+jisJsOkSt7AvTDUa6vjN78EgmByimCrfLX26svzRHkH7wH4DW9kG4C7jIvgmgkeA+fFChdBWPsdjmH44xieXjPCE7v7IGw2p/0CDK8ZYFD94KjLGPwxBJtTO9AT7A6T4HeernRvmxqqOqDK1VPlXSVVui9xh07Vp1xtJ3qqnGFS9bYzOLDPfvZ8vl18qfRFllrdqzkG3y6W2mfW2k/Fb+sE3j/Aul9XG4A7ANjW8+sPk993ruq6N9wNVR1QBfVU2Z+dKp6t/ztKWbz+9zP27b8=&lt;/diagram&gt;&lt;/mxfile&gt;" style="background-color: rgb(255, 255, 255);"><defs><style type="text/css">@import url(https://fonts.googleapis.com/css?family=Architects+Daughter);&#xa;@import url(https://fonts.googleapis.com/css?family=Architects+Daughter);&#xa;</style></defs><g><rect x="470.5" y="510" width="561.5" height="100" rx="15" ry="15" fill="none" stroke="none" pointer-events="all"/><path d="M 486.17 510.61 L 1019.81 510.4 L 1028.44 514.38 L 1032.06 520.94 L 1031.93 597.41 L 1028.99 604.33 L 1021.78 608.37 L 1017.81 610.14 L 481.57 609.44 L 475.53 604.9 L 469.83 600.22 L 472.04 526.52 L 470.62 519.46 L 475.79 515.32 L 478.78 512.08 L 485.35 508.53" fill="rgb(255, 255, 255)" stroke="none" pointer-events="all"/><path d="M 485.5 510 M 485.5 510 C 663.65 509.97 841.56 509.84 1017 510 M 485.5 510 C 661.55 512.25 838.01 512.09 1017 510 M 1017 510 C 1025.19 509.77 1031.89 513.71 1032 525 M 1017 510 C 1028.43 508.76 1033.81 515.53 1032 525 M 1032 525 C 1032.5 548.06 1029.68 571.73 1032 595 M 1032 525 C 1032.8 543.5 1032.78 562.1 1032 595 M 1032 595 C 1032.95 604.32 1026.93 610.4 1017 610 M 1032 595 C 1030.53 605.2 1027.55 608.41 1017 610 M 1017 610 C 816.41 610.49 615.52 611.18 485.5 610 M 1017 610 C 869.27 608.59 721.09 608.17 485.5 610 M 485.5 610 C 477.49 608.48 468.61 603.08 470.5 595 M 485.5 610 C 473.26 610.61 471.8 603.18 470.5 595 M 470.5 595 C 468.95 577.69 469.47 562.96 470.5 525 M 470.5 595 C 471.09 568.52 469.83 542.91 470.5 525 M 470.5 525 C 470.27 516.01 474.07 511.35 485.5 510 M 470.5 525 C 468.78 516.12 477.08 509.76 485.5 510" fill="none" stroke="#ff9999" stroke-linejoin="round" stroke-linecap="round" stroke-miterlimit="10" stroke-dasharray="3 3" pointer-events="all"/><rect x="1092" y="0" width="570" height="280" rx="42" ry="42" fill="none" stroke="none" pointer-events="all"/><path d="M 1134.67 -0.07 L 1618.49 -1.55 L 1628.11 1.92 L 1647.57 6.49 L 1655.71 16.89 L 1659.33 24.85 L 1661.13 43.58 L 1661.4 237.09 L 1663.17 248.26 L 1657.03 265.27 L 1647.02 272.79 L 1639.21 276.74 L 1618.27 281.95 L 1135.04 279.37 L 1125.54 280.91 L 1107.54 273.84 L 1096.33 264.37 L 1092.99 255.78 L 1093.73 238.65 L 1094.3 32.23 L 1092.91 21.73 L 1104.03 10.85 L 1115.34 2.53 L 1132.24 1.66" fill="rgb(255, 255, 255)" stroke="none" pointer-events="all"/><path d="M 1134 0 M 1134 0 C 1286.73 -2.08 1441.23 -1.15 1620 0 M 1134 0 C 1264.21 -0.88 1394.71 -0.99 1620 0 M 1620 0 C 1649.55 1.48 1663.33 13.69 1662 42 M 1620 0 C 1649.81 1.15 1663.38 14.87 1662 42 M 1662 42 C 1664.95 105.74 1665.27 169.21 1662 238 M 1662 42 C 1663.55 84.62 1664.4 124.76 1662 238 M 1662 238 C 1662.04 264.23 1648.21 280.28 1620 280 M 1662 238 C 1663.1 265.17 1647.89 278.68 1620 280 M 1620 280 C 1435.91 280.27 1251.4 279.72 1134 280 M 1620 280 C 1462.11 278.66 1303.87 278.56 1134 280 M 1134 280 C 1104.47 281.74 1090.68 267.93 1092 238 M 1134 280 C 1107.4 278.78 1093.86 266.52 1092 238 M 1092 238 C 1093.64 161.3 1092.75 83.06 1092 42 M 1092 238 C 1092.83 187.29 1094.22 136.16 1092 42 M 1092 42 C 1093.6 14.77 1106.95 -0.83 1134 0 M 1092 42 C 1090.97 14.21 1104.48 1.62 1134 0" fill="none" stroke="#ff9999" stroke-linejoin="round" stroke-linecap="round" stroke-miterlimit="10" stroke-dasharray="3 3" pointer-events="all"/><rect x="538" y="369" width="435" height="40" fill="none" stroke="none" pointer-events="all"/><path d="M 539.76 369.45 L 971.88 370.37 L 973.89 409.41 L 537.42 410.29" fill="rgb(255, 255, 255)" stroke="none" pointer-events="all"/><path d="M 538 369 C 674.32 368.58 809.1 366.78 973 369 M 538 369 C 651.86 368.58 764.68 367.76 973 369 M 973 369 C 972.36 379.78 973 386.6 973 409 M 973 369 C 972.39 382.22 973.83 396.88 973 409 M 973 409 C 810.58 407.78 648.09 408.76 538 409 M 973 409 C 881.2 410.77 788.71 410.99 538 409 M 538 409 C 539.7 394.27 538.99 380.22 538 369 M 538 409 C 537.39 395.34 538.89 382.36 538 369" fill="none" stroke="rgb(0, 0, 0)" stroke-linejoin="round" stroke-linecap="round" stroke-miterlimit="10" pointer-events="all"/><g transform="translate(-0.5 -0.5)"><switch><foreignObject pointer-events="none" width="100%" height="100%" requiredFeatures="http://www.w3.org/TR/SVG11/feature#Extensibility" style="overflow: visible; text-align: left;"><div xmlns="http://www.w3.org/1999/xhtml" style="display: flex; align-items: unsafe flex-start; justify-content: unsafe flex-start; width: 437px; height: 40px; padding-top: 369px; margin-left: 538px;"><div data-drawio-colors="color: rgb(0, 0, 0); " style="box-sizing: border-box; font-size: 0px; text-align: left; width: 435px; height: 40px; overflow: hidden;"><div style="display: inline-block; font-size: 14px; font-family: Helvetica; color: rgb(0, 0, 0); line-height: 1.2; pointer-events: all; width: 100%; height: 100%; white-space: nowrap;"><p style="margin:0px;margin-top:4px;text-align:center;"><b>AbstractAdvisorAutoProxyCreator</b></p><hr size="1" /></div></div></div></foreignObject><text x="538" y="383" fill="rgb(0, 0, 0)" font-family="Helvetica" font-size="14px">AbstractAdvisorAutoProxyCreator</text></switch></g><rect x="580" y="282" width="351" height="40" fill="none" stroke="none" pointer-events="all"/><path d="M 580.61 281.08 L 929.2 281.1 L 932.94 323.24 L 581.87 323.38" fill="rgb(255, 255, 255)" stroke="none" pointer-events="all"/><path d="M 580 282 C 689.56 283.42 799.89 282.93 931 282 M 580 282 C 660.03 279.96 741.13 280.66 931 282 M 931 282 C 932.76 291.31 932.23 297.7 931 322 M 931 282 C 930.6 294.55 930.66 304.45 931 322 M 931 322 C 859.22 323.54 787.67 324.15 580 322 M 931 322 C 801.94 321.8 674.16 321.22 580 322 M 580 322 C 578.61 309.17 578.72 298.03 580 282 M 580 322 C 579.37 313.2 579.87 303.54 580 282" fill="none" stroke="rgb(0, 0, 0)" stroke-linejoin="round" stroke-linecap="round" stroke-miterlimit="10" pointer-events="all"/><g transform="translate(-0.5 -0.5)"><switch><foreignObject pointer-events="none" width="100%" height="100%" requiredFeatures="http://www.w3.org/TR/SVG11/feature#Extensibility" style="overflow: visible; text-align: left;"><div xmlns="http://www.w3.org/1999/xhtml" style="display: flex; align-items: unsafe flex-start; justify-content: unsafe flex-start; width: 353px; height: 40px; padding-top: 282px; margin-left: 580px;"><div data-drawio-colors="color: rgb(0, 0, 0); " style="box-sizing: border-box; font-size: 0px; text-align: left; width: 351px; height: 40px; overflow: hidden;"><div style="display: inline-block; font-size: 14px; font-family: Helvetica; color: rgb(0, 0, 0); line-height: 1.2; pointer-events: all; width: 100%; height: 100%; white-space: nowrap;"><p style="margin:0px;margin-top:4px;text-align:center;"><b>AbstractAutoProxyCreator</b></p><hr size="1" /></div></div></div></foreignObject><text x="580" y="296" fill="rgb(0, 0, 0)" font-family="Helvetica" font-size="14px">AbstractAutoProxyCreator</text></switch></g><rect x="496" y="543" width="519" height="40" fill="none" stroke="none" pointer-events="all"/><path d="M 494.13 544.31 L 1013.32 543.81 L 1014.77 582.77 L 497.46 582.37" fill="rgb(255, 255, 255)" stroke="none" pointer-events="all"/><path d="M 496 543 C 657.44 541.37 819.34 541.15 1015 543 M 496 543 C 652.52 544.23 808.26 544.35 1015 543 M 1015 543 C 1016.1 551.89 1014.43 562.35 1015 583 M 1015 543 C 1013.9 554.33 1014.86 565.02 1015 583 M 1015 583 C 824.62 585.13 633.82 584.51 496 583 M 1015 583 C 907.56 582.32 799.23 582.31 496 583 M 496 583 C 496.59 572.52 497.23 561.56 496 543 M 496 583 C 495.64 568.05 496.3 552.17 496 543" fill="none" stroke="rgb(0, 0, 0)" stroke-linejoin="round" stroke-linecap="round" stroke-miterlimit="10" pointer-events="all"/><g transform="translate(-0.5 -0.5)"><switch><foreignObject pointer-events="none" width="100%" height="100%" requiredFeatures="http://www.w3.org/TR/SVG11/feature#Extensibility" style="overflow: visible; text-align: left;"><div xmlns="http://www.w3.org/1999/xhtml" style="display: flex; align-items: unsafe flex-start; justify-content: unsafe flex-start; width: 521px; height: 40px; padding-top: 543px; margin-left: 496px;"><div data-drawio-colors="color: rgb(0, 0, 0); " style="box-sizing: border-box; font-size: 0px; text-align: left; width: 519px; height: 40px; overflow: hidden;"><div style="display: inline-block; font-size: 14px; font-family: Helvetica; color: rgb(0, 0, 0); line-height: 1.2; pointer-events: all; width: 100%; height: 100%; white-space: nowrap;"><p style="margin:0px;margin-top:4px;text-align:center;"><b>AnnotationAwareAspectJAutoProxyCreator</b></p><hr size="1" /></div></div></div></foreignObject><text x="496" y="557" fill="rgb(0, 0, 0)" font-family="Helvetica" font-size="14px">AnnotationAwareAspectJAutoProxyCreator</text></switch></g><rect x="598" y="195" width="315" height="46" fill="none" stroke="none" pointer-events="all"/><path d="M 597.4 194.56 L 914.27 194.33 L 913.35 239.24 L 599.79 240.59" fill="rgb(255, 255, 255)" stroke="none" pointer-events="all"/><path d="M 598 195 C 681.43 194.53 766.36 194.96 913 195 M 598 195 C 720.61 193.59 844.33 193.34 913 195 M 913 195 C 912.64 212.45 914.16 226.11 913 241 M 913 195 C 912.75 207 913.54 218.13 913 241 M 913 241 C 814.18 243.22 712.19 243.11 598 241 M 913 241 C 788.06 238.48 662.87 238.73 598 241 M 598 241 C 597.07 231.59 598.45 219.29 598 195 M 598 241 C 597.92 229.4 598.4 219.13 598 195" fill="none" stroke="rgb(0, 0, 0)" stroke-linejoin="round" stroke-linecap="round" stroke-miterlimit="10" pointer-events="all"/><g transform="translate(-0.5 -0.5)"><switch><foreignObject pointer-events="none" width="100%" height="100%" requiredFeatures="http://www.w3.org/TR/SVG11/feature#Extensibility" style="overflow: visible; text-align: left;"><div xmlns="http://www.w3.org/1999/xhtml" style="display: flex; align-items: unsafe flex-start; justify-content: unsafe flex-start; width: 317px; height: 46px; padding-top: 195px; margin-left: 598px;"><div data-drawio-colors="color: rgb(0, 0, 0); " style="box-sizing: border-box; font-size: 0px; text-align: left; width: 315px; height: 46px; overflow: hidden;"><div style="display: inline-block; font-size: 14px; font-family: Helvetica; color: rgb(0, 0, 0); line-height: 1.2; pointer-events: all; width: 100%; height: 100%; white-space: nowrap;"><p style="margin:0px;margin-top:4px;text-align:center;"><i>&lt;&lt;interface&gt;&gt;</i><br /><b>AopInfrastructureBean</b></p><hr size="1" /></div></div></div></foreignObject><text x="598" y="209" fill="rgb(0, 0, 0)" font-family="Helvetica" font-size="14px">&lt;&lt;interface&gt;&gt;...</text></switch></g><rect x="514" y="456" width="483" height="40" fill="none" stroke="none" pointer-events="all"/><path d="M 514.24 454.22 L 995.77 455.66 L 996.06 497.88 L 513.83 495.3" fill="rgb(255, 255, 255)" stroke="none" pointer-events="all"/><path d="M 514 456 C 663.95 456.74 816.05 456.85 997 456 M 514 456 C 701.67 456.73 890 456.37 997 456 M 997 456 C 997.03 471.2 998.8 485.95 997 496 M 997 456 C 997.09 470.44 997.64 486.31 997 496 M 997 496 C 894.84 494.03 791.52 494.22 514 496 M 997 496 C 817.58 497.19 638.52 496.99 514 496 M 514 496 C 512.92 486.92 515.68 480.69 514 456 M 514 496 C 514.32 480.48 513.65 463.72 514 456" fill="none" stroke="rgb(0, 0, 0)" stroke-linejoin="round" stroke-linecap="round" stroke-miterlimit="10" pointer-events="all"/><g transform="translate(-0.5 -0.5)"><switch><foreignObject pointer-events="none" width="100%" height="100%" requiredFeatures="http://www.w3.org/TR/SVG11/feature#Extensibility" style="overflow: visible; text-align: left;"><div xmlns="http://www.w3.org/1999/xhtml" style="display: flex; align-items: unsafe flex-start; justify-content: unsafe flex-start; width: 485px; height: 40px; padding-top: 456px; margin-left: 514px;"><div data-drawio-colors="color: rgb(0, 0, 0); " style="box-sizing: border-box; font-size: 0px; text-align: left; width: 483px; height: 40px; overflow: hidden;"><div style="display: inline-block; font-size: 14px; font-family: Helvetica; color: rgb(0, 0, 0); line-height: 1.2; pointer-events: all; width: 100%; height: 100%; white-space: nowrap;"><p style="margin:0px;margin-top:4px;text-align:center;"><b>AspectJAwareAdvisorAutoProxyCreator</b></p><hr size="1" /></div></div></div></foreignObject><text x="514" y="470" fill="rgb(0, 0, 0)" font-family="Helvetica" font-size="14px">AspectJAwareAdvisorAutoProxyCreator</text></switch></g><rect x="218" y="108" width="123" height="46" fill="none" stroke="none" pointer-events="all"/><path d="M 216.71 108 L 339.66 109.95 L 342.24 153.35 L 218.24 155.32" fill="rgb(255, 255, 255)" stroke="none" pointer-events="all"/><path d="M 218 108 C 255.97 107.68 294.99 107.73 341 108 M 218 108 C 257.17 109.34 295.52 109.29 341 108 M 341 108 C 340.87 125.78 339.78 142.6 341 154 M 341 108 C 341.8 126.01 341.45 143.44 341 154 M 341 154 C 311.98 154.11 277.66 153.05 218 154 M 341 154 C 300.76 154.03 259.61 154.69 218 154 M 218 154 C 218.1 140.95 216.33 128.92 218 108 M 218 154 C 218.08 143.18 217.24 131.2 218 108" fill="none" stroke="rgb(0, 0, 0)" stroke-linejoin="round" stroke-linecap="round" stroke-miterlimit="10" pointer-events="all"/><g transform="translate(-0.5 -0.5)"><switch><foreignObject pointer-events="none" width="100%" height="100%" requiredFeatures="http://www.w3.org/TR/SVG11/feature#Extensibility" style="overflow: visible; text-align: left;"><div xmlns="http://www.w3.org/1999/xhtml" style="display: flex; align-items: unsafe flex-start; justify-content: unsafe flex-start; width: 125px; height: 46px; padding-top: 108px; margin-left: 218px;"><div data-drawio-colors="color: rgb(0, 0, 0); " style="box-sizing: border-box; font-size: 0px; text-align: left; width: 123px; height: 46px; overflow: hidden;"><div style="display: inline-block; font-size: 14px; font-family: Helvetica; color: rgb(0, 0, 0); line-height: 1.2; pointer-events: all; width: 100%; height: 100%; white-space: nowrap;"><p style="margin:0px;margin-top:4px;text-align:center;"><i>&lt;&lt;interface&gt;&gt;</i><br /><b>Aware</b></p><hr size="1" /></div></div></div></foreignObject><text x="218" y="122" fill="rgb(0, 0, 0)" font-family="Helvetica" font-size="14px">&lt;&lt;interface&gt;&gt;...</text></switch></g><rect x="275" y="195" width="303" height="46" fill="none" stroke="none" pointer-events="all"/><path d="M 274.29 193.68 L 577 194.09 L 576.71 239.94 L 274.01 240.27" fill="rgb(255, 255, 255)" stroke="none" pointer-events="all"/><path d="M 275 195 C 369.62 196 464.93 196.48 578 195 M 275 195 C 375.75 193.57 476.73 193.28 578 195 M 578 195 C 576.66 206.95 576.15 219.42 578 241 M 578 195 C 578.73 208.91 579.07 224.26 578 241 M 578 241 C 476.32 240.84 373.53 240.43 275 241 M 578 241 C 501.43 238.84 425.18 238.34 275 241 M 275 241 C 274.64 226.88 274.46 215.25 275 195 M 275 241 C 274.65 227.43 274.31 214.46 275 195" fill="none" stroke="rgb(0, 0, 0)" stroke-linejoin="round" stroke-linecap="round" stroke-miterlimit="10" pointer-events="all"/><g transform="translate(-0.5 -0.5)"><switch><foreignObject pointer-events="none" width="100%" height="100%" requiredFeatures="http://www.w3.org/TR/SVG11/feature#Extensibility" style="overflow: visible; text-align: left;"><div xmlns="http://www.w3.org/1999/xhtml" style="display: flex; align-items: unsafe flex-start; justify-content: unsafe flex-start; width: 305px; height: 46px; padding-top: 195px; margin-left: 275px;"><div data-drawio-colors="color: rgb(0, 0, 0); " style="box-sizing: border-box; font-size: 0px; text-align: left; width: 303px; height: 46px; overflow: hidden;"><div style="display: inline-block; font-size: 14px; font-family: Helvetica; color: rgb(0, 0, 0); line-height: 1.2; pointer-events: all; width: 100%; height: 100%; white-space: nowrap;"><p style="margin:0px;margin-top:4px;text-align:center;"><i>&lt;&lt;interface&gt;&gt;</i><br /><b>BeanClassLoaderAware</b></p><hr size="1" /></div></div></div></foreignObject><text x="275" y="209" fill="rgb(0, 0, 0)" font-family="Helvetica" font-size="14px">&lt;&lt;interface&gt;&gt;...</text></switch></g><rect x="0" y="195" width="255" height="46" fill="none" stroke="none" pointer-events="all"/><path d="M 0.93 196.79 L 256.38 196.04 L 253.18 241.76 L 1.38 242.58" fill="rgb(255, 255, 255)" stroke="none" pointer-events="all"/><path d="M 0 195 C 66.52 195.49 134.75 196.14 255 195 M 0 195 C 67.41 196.67 134.77 197.38 255 195 M 255 195 C 253.93 212.24 254.31 230.18 255 241 M 255 195 C 256.05 205.63 255.74 215.41 255 241 M 255 241 C 184.62 241.26 112.72 242.34 0 241 M 255 241 C 193.79 239.09 133.74 240.09 0 241 M 0 241 C 0.97 225.09 -1.12 208.14 0 195 M 0 241 C 0.14 222.35 0.78 204.95 0 195" fill="none" stroke="rgb(0, 0, 0)" stroke-linejoin="round" stroke-linecap="round" stroke-miterlimit="10" pointer-events="all"/><g transform="translate(-0.5 -0.5)"><switch><foreignObject pointer-events="none" width="100%" height="100%" requiredFeatures="http://www.w3.org/TR/SVG11/feature#Extensibility" style="overflow: visible; text-align: left;"><div xmlns="http://www.w3.org/1999/xhtml" style="display: flex; align-items: unsafe flex-start; justify-content: unsafe flex-start; width: 257px; height: 46px; padding-top: 195px; margin-left: 0px;"><div data-drawio-colors="color: rgb(0, 0, 0); " style="box-sizing: border-box; font-size: 0px; text-align: left; width: 255px; height: 46px; overflow: hidden;"><div style="display: inline-block; font-size: 14px; font-family: Helvetica; color: rgb(0, 0, 0); line-height: 1.2; pointer-events: all; width: 100%; height: 100%; white-space: nowrap;"><p style="margin:0px;margin-top:4px;text-align:center;"><i>&lt;&lt;interface&gt;&gt;</i><br /><b>BeanFactoryAware</b></p><hr size="1" /></div></div></div></foreignObject><text x="0" y="209" fill="rgb(0, 0, 0)" font-family="Helvetica" font-size="14px">&lt;&lt;interface&gt;&gt;...</text></switch></g><rect x="1238" y="21" width="267" height="46" fill="none" stroke="none" pointer-events="all"/><path d="M 1238.82 21.91 L 1504.11 21.8 L 1505.54 68.46 L 1236.61 68.26" fill="rgb(255, 255, 255)" stroke="none" pointer-events="all"/><path d="M 1238 21 C 1320.51 22.9 1403.73 23.56 1505 21 M 1238 21 C 1293.51 21.25 1347.99 21.9 1505 21 M 1505 21 C 1503.87 36.73 1506.22 49.49 1505 67 M 1505 21 C 1505.03 33.54 1506.27 47.54 1505 67 M 1505 67 C 1425.2 68.16 1346.24 65.75 1238 67 M 1505 67 C 1426.02 65.46 1348.79 65.62 1238 67 M 1238 67 C 1236.46 55.58 1236.81 44.5 1238 21 M 1238 67 C 1238.78 55.58 1238.61 44.68 1238 21" fill="none" stroke="rgb(0, 0, 0)" stroke-linejoin="round" stroke-linecap="round" stroke-miterlimit="10" pointer-events="all"/><g transform="translate(-0.5 -0.5)"><switch><foreignObject pointer-events="none" width="100%" height="100%" requiredFeatures="http://www.w3.org/TR/SVG11/feature#Extensibility" style="overflow: visible; text-align: left;"><div xmlns="http://www.w3.org/1999/xhtml" style="display: flex; align-items: unsafe flex-start; justify-content: unsafe flex-start; width: 269px; height: 46px; padding-top: 21px; margin-left: 1238px;"><div data-drawio-colors="color: rgb(0, 0, 0); " style="box-sizing: border-box; font-size: 0px; text-align: left; width: 267px; height: 46px; overflow: hidden;"><div style="display: inline-block; font-size: 14px; font-family: Helvetica; color: rgb(0, 0, 0); line-height: 1.2; pointer-events: all; width: 100%; height: 100%; white-space: nowrap;"><p style="margin:0px;margin-top:4px;text-align:center;"><i>&lt;&lt;interface&gt;&gt;</i><br /><b>BeanPostProcessor</b></p><hr size="1" /></div></div></div></foreignObject><text x="1238" y="35" fill="rgb(0, 0, 0)" font-family="Helvetica" font-size="14px">&lt;&lt;interface&gt;&gt;...</text></switch></g><rect x="1130" y="108" width="483" height="46" fill="none" stroke="none" pointer-events="all"/><path d="M 1131.19 109.77 L 1611.54 108.24 L 1612.42 154.83 L 1130.65 153.33" fill="rgb(255, 255, 255)" stroke="none" pointer-events="all"/><path d="M 1130 108 C 1280.93 110.47 1430.6 110.4 1613 108 M 1130 108 C 1248.81 106.91 1367.1 107.22 1613 108 M 1613 108 C 1613.58 121.99 1613.63 138.53 1613 154 M 1613 108 C 1612.49 118.18 1613.24 127.76 1613 154 M 1613 154 C 1472.47 152.03 1333.7 152.65 1130 154 M 1613 154 C 1472.89 154.24 1333.33 154.14 1130 154 M 1130 154 C 1132.2 138.25 1129.9 125.68 1130 108 M 1130 154 C 1128.94 141.03 1129.94 126.98 1130 108" fill="none" stroke="rgb(0, 0, 0)" stroke-linejoin="round" stroke-linecap="round" stroke-miterlimit="10" pointer-events="all"/><g transform="translate(-0.5 -0.5)"><switch><foreignObject pointer-events="none" width="100%" height="100%" requiredFeatures="http://www.w3.org/TR/SVG11/feature#Extensibility" style="overflow: visible; text-align: left;"><div xmlns="http://www.w3.org/1999/xhtml" style="display: flex; align-items: unsafe flex-start; justify-content: unsafe flex-start; width: 485px; height: 46px; padding-top: 108px; margin-left: 1130px;"><div data-drawio-colors="color: rgb(0, 0, 0); " style="box-sizing: border-box; font-size: 0px; text-align: left; width: 483px; height: 46px; overflow: hidden;"><div style="display: inline-block; font-size: 14px; font-family: Helvetica; color: rgb(0, 0, 0); line-height: 1.2; pointer-events: all; width: 100%; height: 100%; white-space: nowrap;"><p style="margin:0px;margin-top:4px;text-align:center;"><i>&lt;&lt;interface&gt;&gt;</i><br /><b>InstantiationAwareBeanPostProcessor</b></p><hr size="1" /></div></div></div></foreignObject><text x="1130" y="122" fill="rgb(0, 0, 0)" font-family="Helvetica" font-size="14px">&lt;&lt;interface&gt;&gt;...</text></switch></g><rect x="933" y="195" width="147" height="46" fill="none" stroke="none" pointer-events="all"/><path d="M 931.34 194.14 L 1079.22 193.51 L 1078.36 240.99 L 931.2 240.24" fill="rgb(255, 255, 255)" stroke="none" pointer-events="all"/><path d="M 933 195 C 980.74 193.43 1025.37 194.48 1080 195 M 933 195 C 973.88 194.12 1013.83 194.16 1080 195 M 1080 195 C 1078.15 210.52 1079.37 227.56 1080 241 M 1080 195 C 1081.34 208.17 1079.48 218.81 1080 241 M 1080 241 C 1040.79 239.9 1005.23 242.34 933 241 M 1080 241 C 1031.38 240.38 980.75 239.47 933 241 M 933 241 C 934.28 223.09 935.16 207.34 933 195 M 933 241 C 932 222.52 931.99 204.5 933 195" fill="none" stroke="rgb(0, 0, 0)" stroke-linejoin="round" stroke-linecap="round" stroke-miterlimit="10" pointer-events="all"/><g transform="translate(-0.5 -0.5)"><switch><foreignObject pointer-events="none" width="100%" height="100%" requiredFeatures="http://www.w3.org/TR/SVG11/feature#Extensibility" style="overflow: visible; text-align: left;"><div xmlns="http://www.w3.org/1999/xhtml" style="display: flex; align-items: unsafe flex-start; justify-content: unsafe flex-start; width: 149px; height: 46px; padding-top: 195px; margin-left: 933px;"><div data-drawio-colors="color: rgb(0, 0, 0); " style="box-sizing: border-box; font-size: 0px; text-align: left; width: 147px; height: 46px; overflow: hidden;"><div style="display: inline-block; font-size: 14px; font-family: Helvetica; color: rgb(0, 0, 0); line-height: 1.2; pointer-events: all; width: 100%; height: 100%; white-space: nowrap;"><p style="margin:0px;margin-top:4px;text-align:center;"><i>&lt;&lt;interface&gt;&gt;</i><br /><b>Ordered</b></p><hr size="1" /></div></div></div></foreignObject><text x="933" y="209" fill="rgb(0, 0, 0)" font-family="Helvetica" font-size="14px">&lt;&lt;interface&gt;&gt;...</text></switch></g><rect x="1100" y="195" width="543" height="46" fill="none" stroke="none" pointer-events="all"/><path d="M 1099.66 194.54 L 1641.43 193.52 L 1644.59 239.3 L 1101.06 242.35" fill="rgb(255, 255, 255)" stroke="none" pointer-events="all"/><path d="M 1100 195 C 1270.07 194.62 1438.98 196.09 1643 195 M 1100 195 C 1302.52 195.07 1505.2 194.88 1643 195 M 1643 195 C 1643.37 209.2 1640.56 221.46 1643 241 M 1643 195 C 1643.18 206.55 1643.04 217.49 1643 241 M 1643 241 C 1464.48 242.44 1286.57 242.42 1100 241 M 1643 241 C 1508.07 240.79 1372.95 241.15 1100 241 M 1100 241 C 1099.38 222.54 1100.55 205.44 1100 195 M 1100 241 C 1100.73 225.89 1099.56 209.76 1100 195" fill="none" stroke="rgb(0, 0, 0)" stroke-linejoin="round" stroke-linecap="round" stroke-miterlimit="10" pointer-events="all"/><g transform="translate(-0.5 -0.5)"><switch><foreignObject pointer-events="none" width="100%" height="100%" requiredFeatures="http://www.w3.org/TR/SVG11/feature#Extensibility" style="overflow: visible; text-align: left;"><div xmlns="http://www.w3.org/1999/xhtml" style="display: flex; align-items: unsafe flex-start; justify-content: unsafe flex-start; width: 545px; height: 46px; padding-top: 195px; margin-left: 1100px;"><div data-drawio-colors="color: rgb(0, 0, 0); " style="box-sizing: border-box; font-size: 0px; text-align: left; width: 543px; height: 46px; overflow: hidden;"><div style="display: inline-block; font-size: 14px; font-family: Helvetica; color: rgb(0, 0, 0); line-height: 1.2; pointer-events: all; width: 100%; height: 100%; white-space: nowrap;"><p style="margin:0px;margin-top:4px;text-align:center;"><i>&lt;&lt;interface&gt;&gt;</i><br /><b>SmartInstantiationAwareBeanPostProcessor</b></p><hr size="1" /></div></div></div></foreignObject><text x="1100" y="209" fill="rgb(0, 0, 0)" font-family="Helvetica" font-size="14px">&lt;&lt;interface&gt;&gt;...</text></switch></g><path d="M 755.5 369 L 755.5 336.12" fill="none" stroke="none" pointer-events="stroke"/><path d="M 755.5 323.12 L 762 336.12 L 749 336.12 Z" fill="none" stroke="none" pointer-events="all"/><path d="M 755.5 369 M 755.5 369 C 753.52 358.32 754.44 349.15 755.5 336.12 M 755.5 369 C 756.13 360.11 755.6 350.98 755.5 336.12" fill="none" stroke="#000082" stroke-linejoin="round" stroke-linecap="round" stroke-miterlimit="10" pointer-events="stroke"/><path d="M 755.3 323.35 C 755.3 323.35 755.3 323.35 755.3 323.35 M 755.3 323.35 C 755.3 323.35 755.3 323.35 755.3 323.35 M 749.13 336.54 C 751.78 333.37 754.12 330.87 757.66 326.73 M 749.13 336.54 C 752.83 333.38 755.83 329.04 757.66 326.73 M 754.78 336.15 C 757.05 333.7 757.99 332.09 759.37 330.86 M 754.78 336.15 C 756.15 334.22 757.97 332.45 759.37 330.86 M 759.76 336.51 C 760.18 336.08 760.14 335.81 761.07 335 M 759.76 336.51 C 760.18 335.99 760.61 335.35 761.07 335" fill="none" stroke="#000082" stroke-width="0.5" stroke-linejoin="round" stroke-linecap="round" stroke-miterlimit="10" pointer-events="all"/><path d="M 755.5 323.12 M 755.5 323.12 C 758.26 327.74 758.04 330.03 762 336.12 M 755.5 323.12 C 756.87 326.04 758.67 328.95 762 336.12 M 762 336.12 C 758.22 336.82 755.22 335.99 749 336.12 M 762 336.12 C 758.39 335.92 754.65 336.75 749 336.12 M 749 336.12 C 750.99 332.42 753.15 327.49 755.5 323.12 M 749 336.12 C 749.77 332.67 751.15 330.45 755.5 323.12" fill="none" stroke="#000082" stroke-linejoin="round" stroke-linecap="round" stroke-miterlimit="10" pointer-events="all"/><path d="M 755.5 282 L 755.5 255.12" fill="none" stroke="none" pointer-events="stroke"/><path d="M 755.5 242.12 L 762 255.12 L 749 255.12 Z" fill="none" stroke="none" pointer-events="all"/><path d="M 755.5 282 M 755.5 282 C 754.22 273.69 755.02 269.15 755.5 255.12 M 755.5 282 C 755.15 276.9 755.68 269.21 755.5 255.12" fill="none" stroke="#008200" stroke-linejoin="round" stroke-linecap="round" stroke-miterlimit="10" stroke-dasharray="3 3" pointer-events="stroke"/><path d="M 755.21 242.45 C 755.21 242.45 755.21 242.45 755.21 242.45 M 755.21 242.45 C 755.21 242.45 755.21 242.45 755.21 242.45 M 749.05 255.64 C 752.7 251.69 755.58 249.67 757.57 245.83 M 749.05 255.64 C 751.72 252.97 754.02 249.5 757.57 245.83 M 754.69 255.25 C 756.48 254 757.49 252.59 759.28 249.96 M 754.69 255.25 C 756.74 253.1 758.05 250.85 759.28 249.96 M 759.68 255.61 C 759.86 255.17 760.26 254.7 760.99 254.1 M 759.68 255.61 C 760.16 255.01 760.56 254.51 760.99 254.1" fill="none" stroke="#008200" stroke-width="0.5" stroke-linejoin="round" stroke-linecap="round" stroke-miterlimit="10" pointer-events="all"/><path d="M 755.5 242.12 M 755.5 242.12 C 757.96 244.62 757.86 248.7 762 255.12 M 755.5 242.12 C 757.4 246.13 759.57 250.6 762 255.12 M 762 255.12 C 759.78 256.21 755.62 254.3 749 255.12 M 762 255.12 C 758.57 255.33 755.56 255.14 749 255.12 M 749 255.12 C 752.24 252 753.06 244.75 755.5 242.12 M 749 255.12 C 750.2 252.59 752.67 249.33 755.5 242.12" fill="none" stroke="#008200" stroke-linejoin="round" stroke-linecap="round" stroke-miterlimit="10" pointer-events="all"/><path d="M 755.5 282 L 755.48 267.06 Q 755.47 257.06 745.47 257.06 L 436.53 257.06 Q 426.53 257.06 426.53 256.09 L 426.53 255.12" fill="none" stroke="none" pointer-events="stroke"/><path d="M 426.5 242.12 L 433.03 255.11 L 420.03 255.13 Z" fill="none" stroke="none" pointer-events="all"/><path d="M 755.5 282 M 755.5 282 C 754.17 277.33 754.68 274.27 755.48 267.06 M 755.5 282 C 756.1 276.1 754.97 270.79 755.48 267.06 M 755.48 267.06 C 755.52 258.62 752.99 255.2 745.47 257.06 M 755.48 267.06 C 753.46 258.55 753.22 255.03 745.47 257.06 M 745.47 257.06 C 680.02 253.96 617.79 255.45 436.53 257.06 M 745.47 257.06 C 645.71 258.97 546.29 258.08 436.53 257.06 M 436.53 257.06 C 427.92 257.94 426.86 257.62 426.53 256.09 M 436.53 257.06 C 430.04 258.75 428.82 254.52 426.53 256.09 M 426.53 256.09 C 426.51 255.88 426.45 255.61 426.53 255.12 M 426.53 256.09 C 426.57 255.77 426.58 255.47 426.53 255.12" fill="none" stroke="#008200" stroke-linejoin="round" stroke-linecap="round" stroke-miterlimit="10" stroke-dasharray="3 3" pointer-events="stroke"/><path d="M 426.77 241.82 C 426.77 241.82 426.77 241.82 426.77 241.82 M 426.77 241.82 C 426.77 241.82 426.77 241.82 426.77 241.82 M 420.6 255.01 C 421.95 251.18 424.48 250.06 428.47 245.95 M 420.6 255.01 C 421.88 252.7 423.45 251.74 428.47 245.95 M 425.59 255.37 C 427.49 253.29 428.75 251.52 430.18 250.08 M 425.59 255.37 C 426.73 254.31 427.73 253.22 430.18 250.08 M 431.23 254.97 C 431.66 254.26 432.23 253.77 432.54 253.46 M 431.23 254.97 C 431.5 254.62 431.87 254.28 432.54 253.46" fill="none" stroke="#008200" stroke-width="0.5" stroke-linejoin="round" stroke-linecap="round" stroke-miterlimit="10" pointer-events="all"/><path d="M 426.5 242.12 M 426.5 242.12 C 430.1 246.11 432.01 253.31 433.03 255.11 M 426.5 242.12 C 428.49 246.24 429.81 249.22 433.03 255.11 M 433.03 255.11 C 428.39 255.29 427.6 255.96 420.03 255.13 M 433.03 255.11 C 430.46 254.68 428.1 254.51 420.03 255.13 M 420.03 255.13 C 421.48 251.7 424.6 246.84 426.5 242.12 M 420.03 255.13 C 421.85 250.15 425.16 245.8 426.5 242.12" fill="none" stroke="#008200" stroke-linejoin="round" stroke-linecap="round" stroke-miterlimit="10" pointer-events="all"/><path d="M 755.5 282 L 755.48 267.06 Q 755.47 257.06 745.47 257.06 L 137.47 257.06 Q 127.47 257.06 127.47 256.09 L 127.47 255.12" fill="none" stroke="none" pointer-events="stroke"/><path d="M 127.5 242.12 L 133.97 255.13 L 120.97 255.11 Z" fill="none" stroke="none" pointer-events="all"/><path d="M 755.5 282 M 755.5 282 C 755.28 278.21 754.21 274.41 755.48 267.06 M 755.5 282 C 754.72 279.19 755.18 274.7 755.48 267.06 M 755.48 267.06 C 756.01 261.98 750.59 257.07 745.47 257.06 M 755.48 267.06 C 754.76 262.65 752.99 257.88 745.47 257.06 M 745.47 257.06 C 550.49 255.16 354.05 254.83 137.47 257.06 M 745.47 257.06 C 518.44 257.24 291.22 257.29 137.47 257.06 M 137.47 257.06 C 131.88 255.93 127.38 256.23 127.47 256.09 M 137.47 257.06 C 132.52 256.14 127.38 257.37 127.47 256.09 M 127.47 256.09 C 127.49 255.71 127.44 255.52 127.47 255.12 M 127.47 256.09 C 127.5 255.91 127.42 255.65 127.47 255.12" fill="none" stroke="#008200" stroke-linejoin="round" stroke-linecap="round" stroke-miterlimit="10" stroke-dasharray="3 3" pointer-events="stroke"/><path d="M 127.22 242.45 C 127.22 242.45 127.22 242.45 127.22 242.45 M 127.22 242.45 C 127.22 242.45 127.22 242.45 127.22 242.45 M 121.05 255.64 C 123.76 252.1 127.82 249.77 129.58 245.83 M 121.05 255.64 C 123.29 252.73 127.03 248.59 129.58 245.83 M 126.69 255.24 C 128.2 253.98 128.77 252.43 131.28 249.96 M 126.69 255.24 C 127.66 254.01 128.95 252.8 131.28 249.96 M 131.68 255.6 C 131.9 255.04 132.47 254.61 132.99 254.09 M 131.68 255.6 C 132.07 255.24 132.41 254.92 132.99 254.09" fill="none" stroke="#008200" stroke-width="0.5" stroke-linejoin="round" stroke-linecap="round" stroke-miterlimit="10" pointer-events="all"/><path d="M 127.5 242.12 M 127.5 242.12 C 129.55 245.87 130.21 247.2 133.97 255.13 M 127.5 242.12 C 129.94 247.22 133.12 252.59 133.97 255.13 M 133.97 255.13 C 129.94 256.12 128.69 256.09 120.97 255.11 M 133.97 255.13 C 128.98 254.74 123.6 254.72 120.97 255.11 M 120.97 255.11 C 122.55 249.73 123.57 246.44 127.5 242.12 M 120.97 255.11 C 122.27 253.01 123.21 250.09 127.5 242.12" fill="none" stroke="#008200" stroke-linejoin="round" stroke-linecap="round" stroke-miterlimit="10" pointer-events="all"/><path d="M 755.5 282 L 755.48 267.06 Q 755.47 257.06 765.47 257.06 L 996.53 257.06 Q 1006.53 257.06 1006.53 256.09 L 1006.53 255.12" fill="none" stroke="none" pointer-events="stroke"/><path d="M 1006.5 242.12 L 1013.03 255.11 L 1000.03 255.13 Z" fill="none" stroke="none" pointer-events="all"/><path d="M 755.5 282 M 755.5 282 C 756.67 279.31 756.39 274.39 755.48 267.06 M 755.5 282 C 756.06 276.92 756.14 273.64 755.48 267.06 M 755.48 267.06 C 757.18 262.26 760.33 257.66 765.47 257.06 M 755.48 267.06 C 756.96 259.59 756.66 256.79 765.47 257.06 M 765.47 257.06 C 856.87 257.78 946.14 257.22 996.53 257.06 M 765.47 257.06 C 823.26 255.44 879.33 255.7 996.53 257.06 M 996.53 257.06 C 1002.42 256.49 1006.41 256.59 1006.53 256.09 M 996.53 257.06 C 1002.08 257.94 1008.68 254.51 1006.53 256.09 M 1006.53 256.09 C 1006.44 255.78 1006.52 255.48 1006.53 255.12 M 1006.53 256.09 C 1006.55 255.76 1006.53 255.55 1006.53 255.12" fill="none" stroke="#008200" stroke-linejoin="round" stroke-linecap="round" stroke-miterlimit="10" stroke-dasharray="3 3" pointer-events="stroke"/><path d="M 1006.43 242.2 C 1006.43 242.2 1006.43 242.2 1006.43 242.2 M 1006.43 242.2 C 1006.43 242.2 1006.43 242.2 1006.43 242.2 M 1000.26 255.39 C 1003.57 252.62 1005.83 247.23 1008.13 246.34 M 1000.26 255.39 C 1002.06 252.97 1004.52 249.86 1008.13 246.34 M 1005.9 255 C 1007.31 254.35 1007.44 252.26 1010.5 249.72 M 1005.9 255 C 1007 253.73 1007.94 252.63 1010.5 249.72 M 1010.89 255.36 C 1011.52 254.71 1011.76 254.21 1012.2 253.85 M 1010.89 255.36 C 1011.36 254.83 1011.72 254.38 1012.2 253.85" fill="none" stroke="#008200" stroke-width="0.5" stroke-linejoin="round" stroke-linecap="round" stroke-miterlimit="10" pointer-events="all"/><path d="M 1006.5 242.12 M 1006.5 242.12 C 1007.94 246.93 1011.86 250.38 1013.03 255.11 M 1006.5 242.12 C 1008.37 244.55 1008.49 246.92 1013.03 255.11 M 1013.03 255.11 C 1008.09 255.05 1006.1 254.84 1000.03 255.13 M 1013.03 255.11 C 1010.86 255.36 1007.68 255.41 1000.03 255.13 M 1000.03 255.13 C 1002.41 251.08 1003.45 250.3 1006.5 242.12 M 1000.03 255.13 C 1002.34 252.55 1003.86 248.93 1006.5 242.12" fill="none" stroke="#008200" stroke-linejoin="round" stroke-linecap="round" stroke-miterlimit="10" pointer-events="all"/><path d="M 755.5 282 L 755.48 267.06 Q 755.47 257.06 765.47 257.06 L 1361.47 257.06 Q 1371.47 257.06 1371.47 256.09 L 1371.47 255.12" fill="none" stroke="none" pointer-events="stroke"/><path d="M 1371.5 242.12 L 1377.97 255.13 L 1364.97 255.11 Z" fill="none" stroke="none" pointer-events="all"/><path d="M 755.5 282 M 755.5 282 C 755.81 278.32 755.26 273.92 755.48 267.06 M 755.5 282 C 755.71 276.87 755.94 271.56 755.48 267.06 M 755.48 267.06 C 757.2 259.86 757.75 258.56 765.47 257.06 M 755.48 267.06 C 753.97 260.4 760.4 255.55 765.47 257.06 M 765.47 257.06 C 914.84 256.61 1064.31 256.31 1361.47 257.06 M 765.47 257.06 C 894.1 258.52 1022.25 258.21 1361.47 257.06 M 1361.47 257.06 C 1366.83 258.33 1373.44 255.11 1371.47 256.09 M 1361.47 257.06 C 1367.41 255.89 1372.24 258.73 1371.47 256.09 M 1371.47 256.09 C 1371.47 255.81 1371.42 255.48 1371.47 255.12 M 1371.47 256.09 C 1371.44 255.73 1371.47 255.36 1371.47 255.12" fill="none" stroke="#008200" stroke-linejoin="round" stroke-linecap="round" stroke-miterlimit="10" stroke-dasharray="3 3" pointer-events="stroke"/><path d="M 1371.78 241.8 C 1371.78 241.8 1371.78 241.8 1371.78 241.8 M 1371.78 241.8 C 1371.78 241.8 1371.78 241.8 1371.78 241.8 M 1364.96 255.74 C 1369.25 251.15 1371.58 249.11 1373.49 245.93 M 1364.96 255.74 C 1367.11 253.15 1368.96 250.57 1373.49 245.93 M 1370.6 255.35 C 1371.43 254.18 1373.23 252.17 1375.19 250.06 M 1370.6 255.35 C 1372.16 253.68 1372.89 252.42 1375.19 250.06 M 1375.59 255.71 C 1376.26 254.81 1376.87 254.19 1377.56 253.44 M 1375.59 255.71 C 1376.12 255.19 1376.52 254.52 1377.56 253.44" fill="none" stroke="#008200" stroke-width="0.5" stroke-linejoin="round" stroke-linecap="round" stroke-miterlimit="10" pointer-events="all"/><path d="M 1371.5 242.12 M 1371.5 242.12 C 1372.04 244.72 1376.75 250.87 1377.97 255.13 M 1371.5 242.12 C 1373.08 245.33 1374.78 246.94 1377.97 255.13 M 1377.97 255.13 C 1374.44 255.53 1369.69 253.9 1364.97 255.11 M 1377.97 255.13 C 1373.13 254.84 1369.75 255.22 1364.97 255.11 M 1364.97 255.11 C 1366.07 252.66 1368.1 248.68 1371.5 242.12 M 1364.97 255.11 C 1366.69 251.77 1368.51 248.79 1371.5 242.12" fill="none" stroke="#008200" stroke-linejoin="round" stroke-linecap="round" stroke-miterlimit="10" pointer-events="all"/><path d="M 755.5 543 L 755.5 510.12" fill="none" stroke="none" pointer-events="stroke"/><path d="M 755.5 497.12 L 762 510.12 L 749 510.12 Z" fill="none" stroke="none" pointer-events="all"/><path d="M 755.5 543 M 755.5 543 C 754.71 533.36 756.82 523.99 755.5 510.12 M 755.5 543 C 754.98 536.27 754.88 530.28 755.5 510.12" fill="none" stroke="#000082" stroke-linejoin="round" stroke-linecap="round" stroke-miterlimit="10" pointer-events="stroke"/><path d="M 755.51 497.11 C 755.51 497.11 755.51 497.11 755.51 497.11 M 755.51 497.11 C 755.51 497.11 755.51 497.11 755.51 497.11 M 749.34 510.3 C 751.67 508.74 751.84 505.15 757.21 501.24 M 749.34 510.3 C 750.66 507.95 752.7 506.86 757.21 501.24 M 754.33 510.66 C 754.84 510 755.88 508.54 759.58 504.62 M 754.33 510.66 C 755.94 508.55 757.4 507.23 759.58 504.62 M 759.97 510.27 C 760.2 509.75 760.59 509.61 761.28 508.76 M 759.97 510.27 C 760.31 509.99 760.53 509.6 761.28 508.76" fill="none" stroke="#000082" stroke-width="0.5" stroke-linejoin="round" stroke-linecap="round" stroke-miterlimit="10" pointer-events="all"/><path d="M 755.5 497.12 M 755.5 497.12 C 757.93 502.03 760.84 507.54 762 510.12 M 755.5 497.12 C 756.9 501.48 759.3 505.05 762 510.12 M 762 510.12 C 758.35 509.37 753.17 509.45 749 510.12 M 762 510.12 C 758.42 509.88 753.57 510.49 749 510.12 M 749 510.12 C 750.54 507.04 754.09 501.13 755.5 497.12 M 749 510.12 C 750.11 506.73 752.43 504.85 755.5 497.12" fill="none" stroke="#000082" stroke-linejoin="round" stroke-linecap="round" stroke-miterlimit="10" pointer-events="all"/><path d="M 755.5 456 L 755.5 423.12" fill="none" stroke="none" pointer-events="stroke"/><path d="M 755.5 410.12 L 762 423.12 L 749 423.12 Z" fill="none" stroke="none" pointer-events="all"/><path d="M 755.5 456 M 755.5 456 C 753.92 446.21 755.32 437.64 755.5 423.12 M 755.5 456 C 755.58 447.23 755.79 437.22 755.5 423.12" fill="none" stroke="#000082" stroke-linejoin="round" stroke-linecap="round" stroke-miterlimit="10" pointer-events="stroke"/><path d="M 755.73 409.85 C 755.73 409.85 755.73 409.85 755.73 409.85 M 755.73 409.85 C 755.73 409.85 755.73 409.85 755.73 409.85 M 749.56 423.04 C 752.19 420.65 755.53 417.39 757.44 413.99 M 749.56 423.04 C 752.16 420.41 754.75 417.88 757.44 413.99 M 754.55 423.4 C 755.67 421.33 756.76 420.51 759.14 418.12 M 754.55 423.4 C 755.48 422 756.62 420.88 759.14 418.12 M 760.19 423.01 C 760.6 422.53 760.74 422.37 761.51 421.5 M 760.19 423.01 C 760.4 422.71 760.69 422.44 761.51 421.5" fill="none" stroke="#000082" stroke-width="0.5" stroke-linejoin="round" stroke-linecap="round" stroke-miterlimit="10" pointer-events="all"/><path d="M 755.5 410.12 M 755.5 410.12 C 756.28 413.27 758.03 416.88 762 423.12 M 755.5 410.12 C 757.92 413.64 759.05 418.36 762 423.12 M 762 423.12 C 757.85 422.96 753.57 422.03 749 423.12 M 762 423.12 C 756.98 422.78 752.72 423 749 423.12 M 749 423.12 C 751.02 417.12 753.55 411.89 755.5 410.12 M 749 423.12 C 751.25 418.36 754 412.49 755.5 410.12" fill="none" stroke="#000082" stroke-linejoin="round" stroke-linecap="round" stroke-miterlimit="10" pointer-events="all"/><path d="M 426.5 195 L 426.52 180 Q 426.53 170 416.53 170 L 289.47 170 Q 279.47 170 279.47 169.06 L 279.47 168.12" fill="none" stroke="none" pointer-events="stroke"/><path d="M 279.5 155.12 L 285.97 168.13 L 272.97 168.11 Z" fill="none" stroke="none" pointer-events="all"/><path d="M 426.5 195 M 426.5 195 C 427.17 191.97 426.99 185.01 426.52 180 M 426.5 195 C 426.35 190.09 427.15 184.26 426.52 180 M 426.52 180 C 426.36 172.39 422.78 170.38 416.53 170 M 426.52 180 C 427.92 172.73 423.09 171.39 416.53 170 M 416.53 170 C 379.43 170.41 338.65 170.6 289.47 170 M 416.53 170 C 367.65 171.06 318.14 171.47 289.47 170 M 289.47 170 C 281.29 168.47 280.89 168.9 279.47 169.06 M 289.47 170 C 283.91 171.32 280.75 171.81 279.47 169.06 M 279.47 169.06 C 279.52 168.81 279.48 168.45 279.47 168.12 M 279.47 169.06 C 279.46 168.82 279.49 168.7 279.47 168.12" fill="none" stroke="#008200" stroke-linejoin="round" stroke-linecap="round" stroke-miterlimit="10" pointer-events="stroke"/><path d="M 279.62 154.98 C 279.62 154.98 279.62 154.98 279.62 154.98 M 279.62 154.98 C 279.62 154.98 279.62 154.98 279.62 154.98 M 273.46 168.17 C 276.02 166.27 277.77 162.85 281.33 159.11 M 273.46 168.17 C 276.2 165.29 279.3 161.38 281.33 159.11 M 278.44 168.53 C 280.33 166.68 281.79 164.4 283.03 163.25 M 278.44 168.53 C 280.48 166.42 282.14 164.75 283.03 163.25 M 284.09 168.14 C 284.52 167.49 285.11 167.19 285.4 166.63 M 284.09 168.14 C 284.49 167.71 284.88 167.13 285.4 166.63" fill="none" stroke="#008200" stroke-width="0.5" stroke-linejoin="round" stroke-linecap="round" stroke-miterlimit="10" pointer-events="all"/><path d="M 279.5 155.12 M 279.5 155.12 C 281.22 159.15 285 163.72 285.97 168.13 M 279.5 155.12 C 282.13 159.06 283.16 162.48 285.97 168.13 M 285.97 168.13 C 282.07 167.67 276.04 168.54 272.97 168.11 M 285.97 168.13 C 283.62 167.71 279.71 167.46 272.97 168.11 M 272.97 168.11 C 274.11 166.39 276.5 162.12 279.5 155.12 M 272.97 168.11 C 274.86 166.06 275.3 162.04 279.5 155.12" fill="none" stroke="#008200" stroke-linejoin="round" stroke-linecap="round" stroke-miterlimit="10" pointer-events="all"/><path d="M 127.5 195 L 127.48 180 Q 127.47 170 137.47 170 L 269.47 170 Q 279.47 170 279.47 169.06 L 279.47 168.12" fill="none" stroke="none" pointer-events="stroke"/><path d="M 279.5 155.12 L 285.97 168.13 L 272.97 168.11 Z" fill="none" stroke="none" pointer-events="all"/><path d="M 127.5 195 M 127.5 195 C 127.05 191.09 128.44 187.87 127.48 180 M 127.5 195 C 127.22 190 127.91 186.33 127.48 180 M 127.48 180 C 126.82 173.04 132.78 168.52 137.47 170 M 127.48 180 C 127.56 173.23 130.92 168.54 137.47 170 M 137.47 170 C 188.33 171.87 239.63 170.96 269.47 170 M 137.47 170 C 182.04 171.12 224.9 172.15 269.47 170 M 269.47 170 C 275.6 170.48 281.32 170.29 279.47 169.06 M 269.47 170 C 275.7 169.33 278.53 168.96 279.47 169.06 M 279.47 169.06 C 279.48 168.78 279.43 168.73 279.47 168.12 M 279.47 169.06 C 279.47 168.78 279.48 168.53 279.47 168.12" fill="none" stroke="#008200" stroke-linejoin="round" stroke-linecap="round" stroke-miterlimit="10" pointer-events="stroke"/><path d="M 279.62 154.98 C 279.62 154.98 279.62 154.98 279.62 154.98 M 279.62 154.98 C 279.62 154.98 279.62 154.98 279.62 154.98 M 273.46 168.17 C 274.68 165.72 277.63 163.31 281.33 159.11 M 273.46 168.17 C 275.23 165.82 277.65 163.57 281.33 159.11 M 278.44 168.53 C 279.33 167.27 281.48 164.77 283.03 163.25 M 278.44 168.53 C 280.54 166.6 281.92 164.36 283.03 163.25 M 284.09 168.14 C 284.47 167.64 284.81 167.19 285.4 166.63 M 284.09 168.14 C 284.34 167.72 284.76 167.33 285.4 166.63" fill="none" stroke="#008200" stroke-width="0.5" stroke-linejoin="round" stroke-linecap="round" stroke-miterlimit="10" pointer-events="all"/><path d="M 279.5 155.12 M 279.5 155.12 C 281.46 159.71 282.26 164.64 285.97 168.13 M 279.5 155.12 C 281.5 160.82 284.86 165.91 285.97 168.13 M 285.97 168.13 C 281.45 167.11 275.89 168.67 272.97 168.11 M 285.97 168.13 C 282.13 167.91 279.95 168.8 272.97 168.11 M 272.97 168.11 C 273.99 165.31 275.6 162.39 279.5 155.12 M 272.97 168.11 C 275.15 163.19 277.98 159.19 279.5 155.12" fill="none" stroke="#008200" stroke-linejoin="round" stroke-linecap="round" stroke-miterlimit="10" pointer-events="all"/><path d="M 1371.5 108 L 1371.5 81.12" fill="none" stroke="none" pointer-events="stroke"/><path d="M 1371.5 68.12 L 1378 81.12 L 1365 81.12 Z" fill="none" stroke="none" pointer-events="all"/><path d="M 1371.5 108 M 1371.5 108 C 1373.32 98.89 1373.54 92.23 1371.5 81.12 M 1371.5 108 C 1370.77 97.27 1370.54 88.31 1371.5 81.12" fill="none" stroke="#008200" stroke-linejoin="round" stroke-linecap="round" stroke-miterlimit="10" pointer-events="stroke"/><path d="M 1371.57 68.04 C 1371.57 68.04 1371.57 68.04 1371.57 68.04 M 1371.57 68.04 C 1371.57 68.04 1371.57 68.04 1371.57 68.04 M 1365.41 81.23 C 1368.15 77.46 1371.08 73.08 1373.28 72.17 M 1365.41 81.23 C 1367.33 78.63 1370.26 76.2 1373.28 72.17 M 1370.39 81.59 C 1371.23 79.89 1373.07 78.18 1375.64 75.55 M 1370.39 81.59 C 1372.21 79.78 1373.33 77.81 1375.64 75.55 M 1376.04 81.19 C 1376.45 80.5 1376.84 79.91 1377.35 79.68 M 1376.04 81.19 C 1376.49 80.65 1377 80.14 1377.35 79.68" fill="none" stroke="#008200" stroke-width="0.5" stroke-linejoin="round" stroke-linecap="round" stroke-miterlimit="10" pointer-events="all"/><path d="M 1371.5 68.12 M 1371.5 68.12 C 1374.16 73.59 1377 76.56 1378 81.12 M 1371.5 68.12 C 1373.73 72.79 1377.01 78.02 1378 81.12 M 1378 81.12 C 1376.33 82.41 1371.62 80.58 1365 81.12 M 1378 81.12 C 1374.24 80.83 1369.81 81.26 1365 81.12 M 1365 81.12 C 1366.42 77.09 1369.18 75.44 1371.5 68.12 M 1365 81.12 C 1368.11 76.31 1369.91 71.55 1371.5 68.12" fill="none" stroke="#008200" stroke-linejoin="round" stroke-linecap="round" stroke-miterlimit="10" pointer-events="all"/><path d="M 1371.5 195 L 1371.5 168.12" fill="none" stroke="none" pointer-events="stroke"/><path d="M 1371.5 155.12 L 1378 168.12 L 1365 168.12 Z" fill="none" stroke="none" pointer-events="all"/><path d="M 1371.5 195 M 1371.5 195 C 1372.13 188.86 1371.18 178.4 1371.5 168.12 M 1371.5 195 C 1371.93 187.92 1371.28 181.62 1371.5 168.12" fill="none" stroke="#008200" stroke-linejoin="round" stroke-linecap="round" stroke-miterlimit="10" pointer-events="stroke"/><path d="M 1371.35 155.29 C 1371.35 155.29 1371.35 155.29 1371.35 155.29 M 1371.35 155.29 C 1371.35 155.29 1371.35 155.29 1371.35 155.29 M 1365.18 168.48 C 1366.38 167.48 1370.01 163.49 1373.71 158.67 M 1365.18 168.48 C 1367.83 165.89 1370.09 163.35 1373.71 158.67 M 1370.83 168.09 C 1372.09 166.23 1373.73 164.41 1375.42 162.81 M 1370.83 168.09 C 1372.27 166.33 1373.8 164.7 1375.42 162.81 M 1375.81 168.45 C 1376.41 167.84 1376.77 167.52 1377.12 166.94 M 1375.81 168.45 C 1376.28 167.97 1376.54 167.52 1377.12 166.94" fill="none" stroke="#008200" stroke-width="0.5" stroke-linejoin="round" stroke-linecap="round" stroke-miterlimit="10" pointer-events="all"/><path d="M 1371.5 155.12 M 1371.5 155.12 C 1371.58 157.39 1374.21 160.04 1378 168.12 M 1371.5 155.12 C 1373.7 159.67 1374.92 162.79 1378 168.12 M 1378 168.12 C 1373.6 168.26 1371.07 168.13 1365 168.12 M 1378 168.12 C 1374.2 167.87 1370.89 168.53 1365 168.12 M 1365 168.12 C 1366.87 163.34 1368.24 159.75 1371.5 155.12 M 1365 168.12 C 1367.77 163.25 1370.08 158.14 1371.5 155.12" fill="none" stroke="#008200" stroke-linejoin="round" stroke-linecap="round" stroke-miterlimit="10" pointer-events="all"/></g><switch><g requiredFeatures="http://www.w3.org/TR/SVG11/feature#Extensibility"/><a transform="translate(0,-5)" xlink:href="https://www.diagrams.net/doc/faq/svg-export-text-problems" target="_blank"><text text-anchor="middle" font-size="10px" x="50%" y="100%">Text is not SVG - cannot display</text></a></switch></svg>